G04*
G04 #@! TF.GenerationSoftware,Altium Limited,Altium Designer,22.4.2 (48)*
G04*
G04 Layer_Color=32896*
%FSLAX25Y25*%
%MOIN*%
G70*
G04*
G04 #@! TF.SameCoordinates,3B532130-91F3-4BA7-A02C-12DA98C8FE5B*
G04*
G04*
G04 #@! TF.FilePolarity,Positive*
G04*
G01*
G75*
G36*
X88835Y40095D02*
X89292D01*
Y40057D01*
X89483D01*
Y40019D01*
X89712D01*
Y39981D01*
X89826D01*
Y39942D01*
X90017D01*
Y39904D01*
X90131D01*
Y39866D01*
X90284D01*
Y39828D01*
X90398D01*
Y39790D01*
X90512D01*
Y39752D01*
X90627D01*
Y39714D01*
X90703D01*
Y39676D01*
X90817D01*
Y39638D01*
X90932D01*
Y39599D01*
X91008D01*
Y39561D01*
X91084D01*
Y39523D01*
X91161D01*
Y39485D01*
X91237D01*
Y39447D01*
X91313D01*
Y39409D01*
X91389D01*
Y39371D01*
X91466D01*
Y39333D01*
X91542D01*
Y39294D01*
X91618D01*
Y39256D01*
X91656D01*
Y39218D01*
X91732D01*
Y39180D01*
X91809D01*
Y39142D01*
X91847D01*
Y39104D01*
X91923D01*
Y39066D01*
X91961D01*
Y39028D01*
X92037D01*
Y38989D01*
X92076D01*
Y38951D01*
X92114D01*
Y38913D01*
X92190D01*
Y38875D01*
X92228D01*
Y38837D01*
X92266D01*
Y38799D01*
X92304D01*
Y38761D01*
X92342D01*
Y38722D01*
X92380D01*
Y38684D01*
X92419D01*
Y38646D01*
X92457D01*
Y38608D01*
X92495D01*
Y38570D01*
X92533D01*
Y38532D01*
X92571D01*
Y38494D01*
Y38456D01*
X92609D01*
Y38418D01*
X92647D01*
Y38379D01*
Y38341D01*
X92686D01*
Y38303D01*
Y38265D01*
X92724D01*
Y38227D01*
Y38189D01*
Y38151D01*
X92762D01*
Y38113D01*
Y38074D01*
Y38036D01*
Y37998D01*
Y37960D01*
Y37922D01*
Y37884D01*
Y37846D01*
Y37808D01*
Y37769D01*
Y37731D01*
Y37693D01*
X92724D01*
Y37655D01*
Y37617D01*
Y37579D01*
X92686D01*
Y37541D01*
Y37503D01*
Y37464D01*
Y37426D01*
X92647D01*
Y37388D01*
Y37350D01*
Y37312D01*
X92609D01*
Y37274D01*
Y37236D01*
X92571D01*
Y37198D01*
Y37159D01*
Y37121D01*
X92533D01*
Y37083D01*
Y37045D01*
X92495D01*
Y37007D01*
Y36969D01*
Y36931D01*
X92457D01*
Y36893D01*
Y36854D01*
X92419D01*
Y36816D01*
Y36778D01*
Y36740D01*
X92380D01*
Y36702D01*
Y36664D01*
Y36626D01*
X92342D01*
Y36588D01*
Y36549D01*
X92304D01*
Y36511D01*
Y36473D01*
Y36435D01*
X92266D01*
Y36397D01*
Y36359D01*
X92228D01*
Y36321D01*
Y36283D01*
X92190D01*
Y36244D01*
Y36206D01*
Y36168D01*
X92152D01*
Y36130D01*
Y36092D01*
X92114D01*
Y36054D01*
Y36016D01*
Y35978D01*
X92076D01*
Y35939D01*
Y35901D01*
X92037D01*
Y35863D01*
Y35825D01*
Y35787D01*
X91999D01*
Y35749D01*
Y35711D01*
X91961D01*
Y35673D01*
Y35634D01*
Y35596D01*
X91923D01*
Y35558D01*
Y35520D01*
X91885D01*
Y35482D01*
Y35444D01*
Y35406D01*
X91847D01*
Y35368D01*
Y35329D01*
X91809D01*
Y35291D01*
Y35253D01*
X91770D01*
Y35215D01*
Y35177D01*
Y35139D01*
X91732D01*
Y35101D01*
Y35063D01*
Y35024D01*
X91694D01*
Y34986D01*
Y34948D01*
X91656D01*
Y34910D01*
Y34872D01*
Y34834D01*
X91618D01*
Y34796D01*
Y34758D01*
X91580D01*
Y34719D01*
Y34681D01*
Y34643D01*
X91542D01*
Y34605D01*
Y34567D01*
X91504D01*
Y34529D01*
Y34491D01*
Y34453D01*
X91466D01*
Y34414D01*
Y34376D01*
X91427D01*
Y34338D01*
Y34300D01*
Y34262D01*
X91389D01*
Y34224D01*
Y34186D01*
X91351D01*
Y34148D01*
Y34109D01*
X91313D01*
Y34071D01*
Y34033D01*
Y33995D01*
X91275D01*
Y33957D01*
Y33919D01*
Y33881D01*
X91237D01*
Y33843D01*
Y33804D01*
X91199D01*
Y33766D01*
Y33728D01*
Y33690D01*
X91161D01*
Y33652D01*
Y33614D01*
X91122D01*
Y33576D01*
Y33538D01*
X91084D01*
Y33499D01*
Y33461D01*
X91046D01*
Y33423D01*
Y33385D01*
Y33347D01*
X91008D01*
Y33309D01*
Y33271D01*
X90970D01*
Y33233D01*
Y33194D01*
X90932D01*
Y33156D01*
Y33118D01*
X90894D01*
Y33080D01*
Y33042D01*
X90855D01*
Y33004D01*
X90817D01*
Y32966D01*
Y32928D01*
X90779D01*
Y32889D01*
Y32851D01*
X90741D01*
Y32813D01*
X90703D01*
Y32775D01*
Y32737D01*
X90665D01*
Y32699D01*
X90627D01*
Y32661D01*
X90589D01*
Y32623D01*
X90551D01*
Y32584D01*
X90512D01*
Y32546D01*
X90474D01*
Y32508D01*
X90436D01*
Y32470D01*
X90398D01*
Y32432D01*
X90360D01*
Y32394D01*
X90322D01*
Y32356D01*
X90284D01*
Y32318D01*
X90207D01*
Y32279D01*
X90131D01*
Y32241D01*
X90093D01*
Y32203D01*
X90017D01*
Y32165D01*
X89941D01*
Y32127D01*
X89864D01*
Y32089D01*
X89750D01*
Y32051D01*
X89635D01*
Y32013D01*
X89559D01*
Y31974D01*
X89407D01*
Y31936D01*
X89254D01*
Y31898D01*
X89025D01*
Y31860D01*
X88530D01*
Y31822D01*
X88415D01*
Y31860D01*
X87882D01*
Y31898D01*
X87615D01*
Y31936D01*
X87501D01*
Y31974D01*
X87310D01*
Y32013D01*
X87195D01*
Y32051D01*
X87081D01*
Y32089D01*
X86967D01*
Y32127D01*
X86852D01*
Y32165D01*
X86776D01*
Y32203D01*
X86700D01*
Y32241D01*
X86624D01*
Y32279D01*
X86547D01*
Y32318D01*
X86471D01*
Y32356D01*
X86395D01*
Y32394D01*
X86357D01*
Y32432D01*
X86319D01*
Y32470D01*
X86242D01*
Y32508D01*
X86204D01*
Y32546D01*
X86166D01*
Y32584D01*
X86128D01*
Y32623D01*
X86090D01*
Y32661D01*
Y32699D01*
X86052D01*
Y32737D01*
X86014D01*
Y32775D01*
X85975D01*
Y32813D01*
Y32851D01*
X85937D01*
Y32889D01*
Y32928D01*
X85899D01*
Y32966D01*
Y33004D01*
X85861D01*
Y33042D01*
Y33080D01*
X85823D01*
Y33118D01*
Y33156D01*
X85785D01*
Y33194D01*
Y33233D01*
Y33271D01*
X85747D01*
Y33309D01*
Y33347D01*
X85709D01*
Y33385D01*
Y33423D01*
Y33461D01*
X85671D01*
Y33499D01*
Y33538D01*
Y33576D01*
Y33614D01*
X85632D01*
Y33652D01*
Y33690D01*
Y33728D01*
X85594D01*
Y33766D01*
Y33804D01*
Y33843D01*
X85556D01*
Y33881D01*
Y33919D01*
Y33957D01*
X85518D01*
Y33995D01*
Y34033D01*
Y34071D01*
X85480D01*
Y34109D01*
Y34148D01*
Y34186D01*
X85442D01*
Y34224D01*
Y34262D01*
Y34300D01*
Y34338D01*
X85404D01*
Y34376D01*
Y34414D01*
Y34453D01*
X85365D01*
Y34491D01*
Y34529D01*
Y34567D01*
X85327D01*
Y34605D01*
Y34643D01*
Y34681D01*
Y34719D01*
X85289D01*
Y34758D01*
Y34796D01*
Y34834D01*
X85251D01*
Y34872D01*
Y34910D01*
Y34948D01*
X85213D01*
Y34986D01*
Y35024D01*
Y35063D01*
X85175D01*
Y35101D01*
Y35139D01*
Y35177D01*
X85137D01*
Y35215D01*
Y35253D01*
Y35291D01*
X85099D01*
Y35329D01*
Y35368D01*
Y35406D01*
Y35444D01*
X85061D01*
Y35482D01*
Y35520D01*
Y35558D01*
X85022D01*
Y35596D01*
Y35634D01*
Y35673D01*
X84984D01*
Y35711D01*
Y35749D01*
Y35787D01*
X84946D01*
Y35825D01*
Y35863D01*
Y35901D01*
X84908D01*
Y35939D01*
Y35978D01*
Y36016D01*
X84870D01*
Y36054D01*
Y36092D01*
Y36130D01*
Y36168D01*
X84832D01*
Y36206D01*
Y36244D01*
Y36283D01*
X84794D01*
Y36321D01*
Y36359D01*
Y36397D01*
X84756D01*
Y36435D01*
Y36473D01*
Y36511D01*
X84717D01*
Y36549D01*
Y36588D01*
Y36626D01*
X84679D01*
Y36664D01*
Y36702D01*
Y36740D01*
X84641D01*
Y36778D01*
Y36816D01*
Y36854D01*
Y36893D01*
X84603D01*
Y36931D01*
Y36969D01*
Y37007D01*
X84565D01*
Y37045D01*
Y37083D01*
Y37121D01*
X84527D01*
Y37159D01*
Y37198D01*
Y37236D01*
X84489D01*
Y37274D01*
Y37312D01*
X84451D01*
Y37350D01*
Y37388D01*
Y37426D01*
Y37464D01*
X84412D01*
Y37503D01*
Y37541D01*
Y37579D01*
Y37617D01*
X84374D01*
Y37655D01*
Y37693D01*
Y37731D01*
Y37769D01*
Y37808D01*
Y37846D01*
Y37884D01*
Y37922D01*
Y37960D01*
X84412D01*
Y37998D01*
Y38036D01*
Y38074D01*
Y38113D01*
X84451D01*
Y38151D01*
Y38189D01*
X84489D01*
Y38227D01*
Y38265D01*
X84527D01*
Y38303D01*
X84565D01*
Y38341D01*
Y38379D01*
X84603D01*
Y38418D01*
X84641D01*
Y38456D01*
X84679D01*
Y38494D01*
Y38532D01*
X84717D01*
Y38570D01*
X84756D01*
Y38608D01*
X84794D01*
Y38646D01*
X84832D01*
Y38684D01*
X84870D01*
Y38722D01*
X84946D01*
Y38761D01*
X84984D01*
Y38799D01*
X85022D01*
Y38837D01*
X85061D01*
Y38875D01*
X85099D01*
Y38913D01*
X85175D01*
Y38951D01*
X85213D01*
Y38989D01*
X85251D01*
Y39028D01*
X85327D01*
Y39066D01*
X85365D01*
Y39104D01*
X85442D01*
Y39142D01*
X85480D01*
Y39180D01*
X85556D01*
Y39218D01*
X85594D01*
Y39256D01*
X85671D01*
Y39294D01*
X85747D01*
Y39333D01*
X85785D01*
Y39371D01*
X85861D01*
Y39409D01*
X85937D01*
Y39447D01*
X86014D01*
Y39485D01*
X86090D01*
Y39523D01*
X86166D01*
Y39561D01*
X86242D01*
Y39599D01*
X86319D01*
Y39638D01*
X86433D01*
Y39676D01*
X86509D01*
Y39714D01*
X86585D01*
Y39752D01*
X86700D01*
Y39790D01*
X86814D01*
Y39828D01*
X86929D01*
Y39866D01*
X87043D01*
Y39904D01*
X87157D01*
Y39942D01*
X87348D01*
Y39981D01*
X87462D01*
Y40019D01*
X87691D01*
Y40057D01*
X87844D01*
Y40095D01*
X88301D01*
Y40133D01*
X88835D01*
Y40095D01*
D02*
G37*
G36*
X83574Y37579D02*
Y37541D01*
Y37503D01*
X83612D01*
Y37464D01*
Y37426D01*
Y37388D01*
Y37350D01*
X83650D01*
Y37312D01*
Y37274D01*
Y37236D01*
Y37198D01*
X83688D01*
Y37159D01*
Y37121D01*
Y37083D01*
X83726D01*
Y37045D01*
Y37007D01*
Y36969D01*
X83764D01*
Y36931D01*
Y36893D01*
Y36854D01*
X83802D01*
Y36816D01*
Y36778D01*
Y36740D01*
X83841D01*
Y36702D01*
Y36664D01*
Y36626D01*
X83879D01*
Y36588D01*
Y36549D01*
Y36511D01*
X83917D01*
Y36473D01*
Y36435D01*
Y36397D01*
Y36359D01*
X83955D01*
Y36321D01*
Y36283D01*
Y36244D01*
X83993D01*
Y36206D01*
Y36168D01*
Y36130D01*
X84031D01*
Y36092D01*
Y36054D01*
Y36016D01*
X84069D01*
Y35978D01*
Y35939D01*
Y35901D01*
X84107D01*
Y35863D01*
Y35825D01*
Y35787D01*
Y35749D01*
X84146D01*
Y35711D01*
Y35673D01*
X84184D01*
Y35634D01*
Y35596D01*
Y35558D01*
Y35520D01*
X84222D01*
Y35482D01*
Y35444D01*
Y35406D01*
X84260D01*
Y35368D01*
Y35329D01*
Y35291D01*
X84298D01*
Y35253D01*
Y35215D01*
Y35177D01*
Y35139D01*
X84336D01*
Y35101D01*
Y35063D01*
X84374D01*
Y35024D01*
Y34986D01*
Y34948D01*
Y34910D01*
X84412D01*
Y34872D01*
Y34834D01*
Y34796D01*
X84451D01*
Y34758D01*
Y34719D01*
Y34681D01*
X84489D01*
Y34643D01*
Y34605D01*
Y34567D01*
Y34529D01*
X84527D01*
Y34491D01*
Y34453D01*
X84565D01*
Y34414D01*
Y34376D01*
Y34338D01*
Y34300D01*
X84603D01*
Y34262D01*
Y34224D01*
X84641D01*
Y34186D01*
Y34148D01*
Y34109D01*
Y34071D01*
X84679D01*
Y34033D01*
Y33995D01*
Y33957D01*
X84717D01*
Y33919D01*
Y33881D01*
Y33843D01*
X84756D01*
Y33804D01*
Y33766D01*
Y33728D01*
Y33690D01*
X84794D01*
Y33652D01*
Y33614D01*
X84832D01*
Y33576D01*
Y33538D01*
Y33499D01*
Y33461D01*
X84870D01*
Y33423D01*
Y33385D01*
Y33347D01*
X84908D01*
Y33309D01*
Y33271D01*
Y33233D01*
X84946D01*
Y33194D01*
Y33156D01*
Y33118D01*
X84984D01*
Y33080D01*
Y33042D01*
Y33004D01*
X85022D01*
Y32966D01*
Y32928D01*
Y32889D01*
X85061D01*
Y32851D01*
Y32813D01*
X85099D01*
Y32775D01*
Y32737D01*
X85137D01*
Y32699D01*
Y32661D01*
X85175D01*
Y32623D01*
Y32584D01*
X85213D01*
Y32546D01*
Y32508D01*
X85251D01*
Y32470D01*
Y32432D01*
X85289D01*
Y32394D01*
Y32356D01*
X85327D01*
Y32318D01*
X85365D01*
Y32279D01*
X85404D01*
Y32241D01*
Y32203D01*
X85442D01*
Y32165D01*
X85480D01*
Y32127D01*
X85518D01*
Y32089D01*
X85556D01*
Y32051D01*
X85480D01*
Y32013D01*
X85404D01*
Y31974D01*
X85289D01*
Y31936D01*
X85213D01*
Y31898D01*
X85137D01*
Y31860D01*
X85022D01*
Y31822D01*
X84946D01*
Y31784D01*
X84832D01*
Y31746D01*
X84756D01*
Y31708D01*
X84641D01*
Y31669D01*
X84527D01*
Y31631D01*
X84374D01*
Y31593D01*
X83879D01*
Y31631D01*
X83802D01*
Y31669D01*
X83726D01*
Y31708D01*
X83688D01*
Y31746D01*
X83650D01*
Y31784D01*
X83574D01*
Y31822D01*
X83536D01*
Y31860D01*
X83498D01*
Y31898D01*
X83459D01*
Y31936D01*
X83421D01*
Y31974D01*
Y32013D01*
X83383D01*
Y32051D01*
X83345D01*
Y32089D01*
X83307D01*
Y32127D01*
X83269D01*
Y32165D01*
Y32203D01*
X83231D01*
Y32241D01*
X83192D01*
Y32279D01*
X83154D01*
Y32318D01*
Y32356D01*
X83116D01*
Y32394D01*
X83078D01*
Y32432D01*
Y32470D01*
X83040D01*
Y32508D01*
X83002D01*
Y32546D01*
Y32584D01*
X82964D01*
Y32623D01*
X82926D01*
Y32661D01*
Y32699D01*
X82888D01*
Y32737D01*
X82849D01*
Y32775D01*
Y32813D01*
X82811D01*
Y32851D01*
X82773D01*
Y32889D01*
Y32928D01*
X82735D01*
Y32966D01*
X82697D01*
Y33004D01*
Y33042D01*
X82659D01*
Y33080D01*
X82621D01*
Y33118D01*
Y33156D01*
X82582D01*
Y33194D01*
Y33233D01*
X82544D01*
Y33271D01*
X82506D01*
Y33309D01*
Y33347D01*
X82468D01*
Y33385D01*
X82430D01*
Y33423D01*
Y33461D01*
X82392D01*
Y33499D01*
Y33538D01*
X82354D01*
Y33576D01*
X82316D01*
Y33614D01*
Y33652D01*
X82278D01*
Y33690D01*
Y33728D01*
X82239D01*
Y33766D01*
X82201D01*
Y33804D01*
Y33843D01*
X82163D01*
Y33881D01*
X82125D01*
Y33919D01*
Y33957D01*
X82087D01*
Y33995D01*
Y34033D01*
X82049D01*
Y34071D01*
X82011D01*
Y34109D01*
Y34148D01*
X81972D01*
Y34186D01*
Y34224D01*
X81934D01*
Y34262D01*
X81896D01*
Y34300D01*
Y34338D01*
X81858D01*
Y34376D01*
Y34414D01*
X81820D01*
Y34453D01*
X81782D01*
Y34491D01*
Y34529D01*
X81744D01*
Y34567D01*
X81706D01*
Y34605D01*
Y34643D01*
X81668D01*
Y34681D01*
Y34719D01*
X81629D01*
Y34758D01*
Y34796D01*
X81591D01*
Y34834D01*
Y34872D01*
X81553D01*
Y34910D01*
Y34948D01*
X81515D01*
Y34986D01*
Y35024D01*
Y35063D01*
X81477D01*
Y35101D01*
Y35139D01*
X81439D01*
Y35177D01*
Y35215D01*
X81401D01*
Y35253D01*
Y35291D01*
Y35329D01*
X81362D01*
Y35368D01*
Y35406D01*
Y35444D01*
X81324D01*
Y35482D01*
Y35520D01*
X81286D01*
Y35558D01*
Y35596D01*
Y35634D01*
Y35673D01*
X81248D01*
Y35711D01*
Y35749D01*
Y35787D01*
Y35825D01*
Y35863D01*
Y35901D01*
Y35939D01*
Y35978D01*
Y36016D01*
Y36054D01*
Y36092D01*
Y36130D01*
Y36168D01*
Y36206D01*
X81286D01*
Y36244D01*
Y36283D01*
X81324D01*
Y36321D01*
Y36359D01*
X81362D01*
Y36397D01*
Y36435D01*
X81401D01*
Y36473D01*
X81439D01*
Y36511D01*
X81477D01*
Y36549D01*
X81515D01*
Y36588D01*
X81553D01*
Y36626D01*
X81591D01*
Y36664D01*
X81629D01*
Y36702D01*
X81706D01*
Y36740D01*
X81744D01*
Y36778D01*
X81782D01*
Y36816D01*
X81858D01*
Y36854D01*
X81934D01*
Y36893D01*
X81972D01*
Y36931D01*
X82049D01*
Y36969D01*
X82125D01*
Y37007D01*
X82201D01*
Y37045D01*
X82278D01*
Y37083D01*
X82316D01*
Y37121D01*
X82430D01*
Y37159D01*
X82506D01*
Y37198D01*
X82582D01*
Y37236D01*
X82659D01*
Y37274D01*
X82735D01*
Y37312D01*
X82849D01*
Y37350D01*
X82926D01*
Y37388D01*
X83040D01*
Y37426D01*
X83116D01*
Y37464D01*
X83231D01*
Y37503D01*
X83307D01*
Y37541D01*
X83421D01*
Y37579D01*
X83536D01*
Y37617D01*
X83574D01*
Y37579D01*
D02*
G37*
G36*
X93639Y37426D02*
X93715D01*
Y37388D01*
X93829D01*
Y37350D01*
X93906D01*
Y37312D01*
X93982D01*
Y37274D01*
X94096D01*
Y37236D01*
X94172D01*
Y37198D01*
X94287D01*
Y37159D01*
X94325D01*
Y37121D01*
X94439D01*
Y37083D01*
X94516D01*
Y37045D01*
X94592D01*
Y37007D01*
X94668D01*
Y36969D01*
X94744D01*
Y36931D01*
X94859D01*
Y36893D01*
X94897D01*
Y36854D01*
X94973D01*
Y36816D01*
X95049D01*
Y36778D01*
X95126D01*
Y36740D01*
X95202D01*
Y36702D01*
X95240D01*
Y36664D01*
X95316D01*
Y36626D01*
X95392D01*
Y36588D01*
X95430D01*
Y36549D01*
X95507D01*
Y36511D01*
X95545D01*
Y36473D01*
X95621D01*
Y36435D01*
X95659D01*
Y36397D01*
X95697D01*
Y36359D01*
X95735D01*
Y36321D01*
X95774D01*
Y36283D01*
X95812D01*
Y36244D01*
X95850D01*
Y36206D01*
Y36168D01*
X95888D01*
Y36130D01*
Y36092D01*
X95926D01*
Y36054D01*
Y36016D01*
Y35978D01*
Y35939D01*
Y35901D01*
Y35863D01*
Y35825D01*
Y35787D01*
X95888D01*
Y35749D01*
Y35711D01*
X95850D01*
Y35673D01*
Y35634D01*
Y35596D01*
X95812D01*
Y35558D01*
Y35520D01*
X95774D01*
Y35482D01*
Y35444D01*
X95735D01*
Y35406D01*
Y35368D01*
X95697D01*
Y35329D01*
Y35291D01*
X95659D01*
Y35253D01*
Y35215D01*
X95621D01*
Y35177D01*
X95583D01*
Y35139D01*
Y35101D01*
X95545D01*
Y35063D01*
Y35024D01*
X95507D01*
Y34986D01*
Y34948D01*
X95469D01*
Y34910D01*
Y34872D01*
X95430D01*
Y34834D01*
X95392D01*
Y34796D01*
Y34758D01*
X95354D01*
Y34719D01*
Y34681D01*
X95316D01*
Y34643D01*
Y34605D01*
X95278D01*
Y34567D01*
Y34529D01*
X95240D01*
Y34491D01*
Y34453D01*
X95202D01*
Y34414D01*
Y34376D01*
X95164D01*
Y34338D01*
X95126D01*
Y34300D01*
Y34262D01*
X95087D01*
Y34224D01*
Y34186D01*
X95049D01*
Y34148D01*
Y34109D01*
X95011D01*
Y34071D01*
Y34033D01*
X94973D01*
Y33995D01*
X94935D01*
Y33957D01*
Y33919D01*
X94897D01*
Y33881D01*
Y33843D01*
X94859D01*
Y33804D01*
Y33766D01*
X94820D01*
Y33728D01*
Y33690D01*
X94782D01*
Y33652D01*
X94744D01*
Y33614D01*
Y33576D01*
X94706D01*
Y33538D01*
Y33499D01*
X94668D01*
Y33461D01*
Y33423D01*
X94630D01*
Y33385D01*
Y33347D01*
X94592D01*
Y33309D01*
Y33271D01*
X94554D01*
Y33233D01*
Y33194D01*
X94516D01*
Y33156D01*
X94477D01*
Y33118D01*
Y33080D01*
X94439D01*
Y33042D01*
Y33004D01*
X94401D01*
Y32966D01*
Y32928D01*
X94363D01*
Y32889D01*
Y32851D01*
X94325D01*
Y32813D01*
X94287D01*
Y32775D01*
Y32737D01*
X94249D01*
Y32699D01*
Y32661D01*
X94210D01*
Y32623D01*
Y32584D01*
X94172D01*
Y32546D01*
Y32508D01*
X94134D01*
Y32470D01*
X94096D01*
Y32432D01*
X94058D01*
Y32394D01*
Y32356D01*
X94020D01*
Y32318D01*
X93982D01*
Y32279D01*
X93944D01*
Y32241D01*
X93906D01*
Y32203D01*
Y32165D01*
X93867D01*
Y32127D01*
X93829D01*
Y32089D01*
X93791D01*
Y32051D01*
X93753D01*
Y32013D01*
X93715D01*
Y31974D01*
X93677D01*
Y31936D01*
X93639D01*
Y31898D01*
X93600D01*
Y31860D01*
X93562D01*
Y31822D01*
X93524D01*
Y31784D01*
X93486D01*
Y31746D01*
X93410D01*
Y31708D01*
X93372D01*
Y31669D01*
X93296D01*
Y31631D01*
X93219D01*
Y31593D01*
X93105D01*
Y31555D01*
X92571D01*
Y31593D01*
X92380D01*
Y31631D01*
X92228D01*
Y31669D01*
X92114D01*
Y31708D01*
X91961D01*
Y31746D01*
X91885D01*
Y31784D01*
X91770D01*
Y31822D01*
X91656D01*
Y31860D01*
X91580D01*
Y31898D01*
X91466D01*
Y31936D01*
X91389D01*
Y31974D01*
X91275D01*
Y32013D01*
X91199D01*
Y32051D01*
X91161D01*
Y32089D01*
X91199D01*
Y32127D01*
X91237D01*
Y32165D01*
Y32203D01*
X91275D01*
Y32241D01*
X91313D01*
Y32279D01*
X91351D01*
Y32318D01*
X91389D01*
Y32356D01*
Y32394D01*
X91427D01*
Y32432D01*
X91466D01*
Y32470D01*
Y32508D01*
X91504D01*
Y32546D01*
X91542D01*
Y32584D01*
Y32623D01*
X91580D01*
Y32661D01*
Y32699D01*
X91618D01*
Y32737D01*
Y32775D01*
X91656D01*
Y32813D01*
Y32851D01*
X91694D01*
Y32889D01*
Y32928D01*
X91732D01*
Y32966D01*
Y33004D01*
X91770D01*
Y33042D01*
Y33080D01*
X91809D01*
Y33118D01*
Y33156D01*
X91847D01*
Y33194D01*
Y33233D01*
Y33271D01*
X91885D01*
Y33309D01*
Y33347D01*
X91923D01*
Y33385D01*
Y33423D01*
X91961D01*
Y33461D01*
Y33499D01*
Y33538D01*
X91999D01*
Y33576D01*
Y33614D01*
X92037D01*
Y33652D01*
Y33690D01*
Y33728D01*
X92076D01*
Y33766D01*
Y33804D01*
X92114D01*
Y33843D01*
Y33881D01*
Y33919D01*
X92152D01*
Y33957D01*
Y33995D01*
X92190D01*
Y34033D01*
Y34071D01*
Y34109D01*
X92228D01*
Y34148D01*
Y34186D01*
X92266D01*
Y34224D01*
Y34262D01*
Y34300D01*
X92304D01*
Y34338D01*
Y34376D01*
X92342D01*
Y34414D01*
Y34453D01*
Y34491D01*
X92380D01*
Y34529D01*
Y34567D01*
X92419D01*
Y34605D01*
Y34643D01*
Y34681D01*
X92457D01*
Y34719D01*
Y34758D01*
X92495D01*
Y34796D01*
Y34834D01*
Y34872D01*
X92533D01*
Y34910D01*
Y34948D01*
X92571D01*
Y34986D01*
Y35024D01*
Y35063D01*
X92609D01*
Y35101D01*
Y35139D01*
X92647D01*
Y35177D01*
Y35215D01*
Y35253D01*
X92686D01*
Y35291D01*
Y35329D01*
X92724D01*
Y35368D01*
Y35406D01*
X92762D01*
Y35444D01*
Y35482D01*
Y35520D01*
X92800D01*
Y35558D01*
Y35596D01*
Y35634D01*
X92838D01*
Y35673D01*
Y35711D01*
X92876D01*
Y35749D01*
Y35787D01*
X92914D01*
Y35825D01*
Y35863D01*
Y35901D01*
X92952D01*
Y35939D01*
Y35978D01*
X92990D01*
Y36016D01*
Y36054D01*
Y36092D01*
X93029D01*
Y36130D01*
Y36168D01*
X93067D01*
Y36206D01*
Y36244D01*
Y36283D01*
X93105D01*
Y36321D01*
Y36359D01*
X93143D01*
Y36397D01*
Y36435D01*
Y36473D01*
X93181D01*
Y36511D01*
Y36549D01*
X93219D01*
Y36588D01*
Y36626D01*
Y36664D01*
X93257D01*
Y36702D01*
Y36740D01*
X93296D01*
Y36778D01*
Y36816D01*
Y36854D01*
X93334D01*
Y36893D01*
Y36931D01*
X93372D01*
Y36969D01*
Y37007D01*
Y37045D01*
X93410D01*
Y37083D01*
Y37121D01*
Y37159D01*
X93448D01*
Y37198D01*
Y37236D01*
Y37274D01*
X93486D01*
Y37312D01*
Y37350D01*
Y37388D01*
X93524D01*
Y37426D01*
Y37464D01*
X93639D01*
Y37426D01*
D02*
G37*
G36*
X80867Y34491D02*
Y34453D01*
X80905D01*
Y34414D01*
Y34376D01*
X80943D01*
Y34338D01*
Y34300D01*
X80981D01*
Y34262D01*
Y34224D01*
X81019D01*
Y34186D01*
Y34148D01*
X81058D01*
Y34109D01*
X81096D01*
Y34071D01*
Y34033D01*
X81134D01*
Y33995D01*
X81172D01*
Y33957D01*
Y33919D01*
X81210D01*
Y33881D01*
Y33843D01*
X81248D01*
Y33804D01*
X81286D01*
Y33766D01*
Y33728D01*
X81324D01*
Y33690D01*
Y33652D01*
X81362D01*
Y33614D01*
X81401D01*
Y33576D01*
Y33538D01*
X81439D01*
Y33499D01*
Y33461D01*
X81477D01*
Y33423D01*
X81515D01*
Y33385D01*
Y33347D01*
X81553D01*
Y33309D01*
Y33271D01*
X81591D01*
Y33233D01*
X81629D01*
Y33194D01*
Y33156D01*
X81668D01*
Y33118D01*
X81706D01*
Y33080D01*
Y33042D01*
X81744D01*
Y33004D01*
Y32966D01*
X81782D01*
Y32928D01*
X81820D01*
Y32889D01*
Y32851D01*
X81858D01*
Y32813D01*
X81896D01*
Y32775D01*
Y32737D01*
X81934D01*
Y32699D01*
Y32661D01*
X81972D01*
Y32623D01*
X82011D01*
Y32584D01*
Y32546D01*
X82049D01*
Y32508D01*
X82087D01*
Y32470D01*
Y32432D01*
X82125D01*
Y32394D01*
X82163D01*
Y32356D01*
Y32318D01*
X82201D01*
Y32279D01*
X82239D01*
Y32241D01*
Y32203D01*
X82201D01*
Y32165D01*
X82087D01*
Y32127D01*
X82011D01*
Y32089D01*
X81896D01*
Y32051D01*
X81820D01*
Y32013D01*
X81744D01*
Y31974D01*
X81629D01*
Y31936D01*
X81553D01*
Y31898D01*
X81439D01*
Y31860D01*
X81362D01*
Y31822D01*
X81248D01*
Y31784D01*
X81172D01*
Y31746D01*
X81096D01*
Y31708D01*
X80981D01*
Y31669D01*
X80905D01*
Y31631D01*
X80829D01*
Y31593D01*
X80714D01*
Y31555D01*
X80638D01*
Y31517D01*
X80524D01*
Y31479D01*
X80448D01*
Y31441D01*
X80333D01*
Y31403D01*
X80257D01*
Y31364D01*
X80142D01*
Y31326D01*
X80028D01*
Y31288D01*
X79914D01*
Y31250D01*
X79647D01*
Y31288D01*
Y31326D01*
Y31364D01*
X79609D01*
Y31403D01*
Y31441D01*
Y31479D01*
Y31517D01*
Y31555D01*
Y31593D01*
Y31631D01*
Y31669D01*
X79571D01*
Y31708D01*
Y31746D01*
Y31784D01*
Y31822D01*
Y31860D01*
Y31898D01*
Y31936D01*
Y31974D01*
Y32013D01*
Y32051D01*
X79609D01*
Y32089D01*
Y32127D01*
Y32165D01*
Y32203D01*
Y32241D01*
Y32279D01*
Y32318D01*
Y32356D01*
Y32394D01*
X79647D01*
Y32432D01*
Y32470D01*
Y32508D01*
Y32546D01*
Y32584D01*
X79685D01*
Y32623D01*
Y32661D01*
Y32699D01*
Y32737D01*
X79723D01*
Y32775D01*
Y32813D01*
Y32851D01*
Y32889D01*
X79761D01*
Y32928D01*
Y32966D01*
Y33004D01*
X79799D01*
Y33042D01*
Y33080D01*
Y33118D01*
X79838D01*
Y33156D01*
Y33194D01*
X79876D01*
Y33233D01*
Y33271D01*
Y33309D01*
X79914D01*
Y33347D01*
Y33385D01*
X79952D01*
Y33423D01*
Y33461D01*
X79990D01*
Y33499D01*
Y33538D01*
X80028D01*
Y33576D01*
X80066D01*
Y33614D01*
Y33652D01*
X80104D01*
Y33690D01*
Y33728D01*
X80142D01*
Y33766D01*
X80181D01*
Y33804D01*
Y33843D01*
X80219D01*
Y33881D01*
X80257D01*
Y33919D01*
Y33957D01*
X80295D01*
Y33995D01*
X80333D01*
Y34033D01*
X80371D01*
Y34071D01*
X80409D01*
Y34109D01*
Y34148D01*
X80448D01*
Y34186D01*
X80486D01*
Y34224D01*
X80524D01*
Y34262D01*
X80562D01*
Y34300D01*
X80600D01*
Y34338D01*
X80638D01*
Y34376D01*
X80676D01*
Y34414D01*
X80714D01*
Y34453D01*
X80791D01*
Y34491D01*
X80829D01*
Y34529D01*
X80867D01*
Y34491D01*
D02*
G37*
G36*
X96155Y34414D02*
X96193D01*
Y34376D01*
X96269D01*
Y34338D01*
Y34300D01*
X96345D01*
Y34262D01*
X96384D01*
Y34224D01*
X96422D01*
Y34186D01*
X96460D01*
Y34148D01*
Y34109D01*
X96498D01*
Y34071D01*
X96536D01*
Y34033D01*
X96574D01*
Y33995D01*
X96612D01*
Y33957D01*
X96650D01*
Y33919D01*
Y33881D01*
X96689D01*
Y33843D01*
X96727D01*
Y33804D01*
X96765D01*
Y33766D01*
Y33728D01*
X96803D01*
Y33690D01*
X96841D01*
Y33652D01*
Y33614D01*
X96879D01*
Y33576D01*
Y33538D01*
X96917D01*
Y33499D01*
Y33461D01*
X96955D01*
Y33423D01*
Y33385D01*
X96994D01*
Y33347D01*
Y33309D01*
X97032D01*
Y33271D01*
Y33233D01*
X97070D01*
Y33194D01*
Y33156D01*
X97108D01*
Y33118D01*
Y33080D01*
Y33042D01*
X97146D01*
Y33004D01*
Y32966D01*
Y32928D01*
X97184D01*
Y32889D01*
Y32851D01*
Y32813D01*
X97222D01*
Y32775D01*
Y32737D01*
Y32699D01*
Y32661D01*
Y32623D01*
X97260D01*
Y32584D01*
Y32546D01*
Y32508D01*
Y32470D01*
X97299D01*
Y32432D01*
Y32394D01*
Y32356D01*
Y32318D01*
Y32279D01*
Y32241D01*
Y32203D01*
Y32165D01*
Y32127D01*
X97337D01*
Y32089D01*
Y32051D01*
Y32013D01*
Y31974D01*
Y31936D01*
Y31898D01*
Y31860D01*
Y31822D01*
Y31784D01*
Y31746D01*
Y31708D01*
Y31669D01*
Y31631D01*
Y31593D01*
X97299D01*
Y31555D01*
Y31517D01*
Y31479D01*
Y31441D01*
Y31403D01*
Y31364D01*
Y31326D01*
X97260D01*
Y31288D01*
Y31250D01*
Y31212D01*
X97222D01*
Y31174D01*
Y31136D01*
X97108D01*
Y31174D01*
X96955D01*
Y31212D01*
X96841D01*
Y31250D01*
X96727D01*
Y31288D01*
X96612D01*
Y31326D01*
X96536D01*
Y31364D01*
X96422D01*
Y31403D01*
X96345D01*
Y31441D01*
X96231D01*
Y31479D01*
X96155D01*
Y31517D01*
X96079D01*
Y31555D01*
X95964D01*
Y31593D01*
X95888D01*
Y31631D01*
X95812D01*
Y31669D01*
X95697D01*
Y31708D01*
X95621D01*
Y31746D01*
X95545D01*
Y31784D01*
X95430D01*
Y31822D01*
X95354D01*
Y31860D01*
X95240D01*
Y31898D01*
X95164D01*
Y31936D01*
X95087D01*
Y31974D01*
X94973D01*
Y32013D01*
X94897D01*
Y32051D01*
X94820D01*
Y32089D01*
X94859D01*
Y32127D01*
Y32165D01*
X94897D01*
Y32203D01*
Y32241D01*
X94935D01*
Y32279D01*
Y32318D01*
X94973D01*
Y32356D01*
X95011D01*
Y32394D01*
Y32432D01*
X95049D01*
Y32470D01*
Y32508D01*
X95087D01*
Y32546D01*
Y32584D01*
X95126D01*
Y32623D01*
Y32661D01*
X95164D01*
Y32699D01*
X95202D01*
Y32737D01*
Y32775D01*
X95240D01*
Y32813D01*
Y32851D01*
X95278D01*
Y32889D01*
Y32928D01*
X95316D01*
Y32966D01*
Y33004D01*
X95354D01*
Y33042D01*
Y33080D01*
X95392D01*
Y33118D01*
X95430D01*
Y33156D01*
Y33194D01*
X95469D01*
Y33233D01*
Y33271D01*
X95507D01*
Y33309D01*
Y33347D01*
X95545D01*
Y33385D01*
Y33423D01*
X95583D01*
Y33461D01*
Y33499D01*
X95621D01*
Y33538D01*
X95659D01*
Y33576D01*
Y33614D01*
X95697D01*
Y33652D01*
Y33690D01*
X95735D01*
Y33728D01*
Y33766D01*
X95774D01*
Y33804D01*
Y33843D01*
X95812D01*
Y33881D01*
X95850D01*
Y33919D01*
Y33957D01*
X95888D01*
Y33995D01*
Y34033D01*
X95926D01*
Y34071D01*
Y34109D01*
X95964D01*
Y34148D01*
Y34186D01*
X96002D01*
Y34224D01*
Y34262D01*
X96040D01*
Y34300D01*
X96079D01*
Y34338D01*
Y34376D01*
X96117D01*
Y34414D01*
Y34453D01*
X96155D01*
Y34414D01*
D02*
G37*
G36*
X107416Y7864D02*
Y3543D01*
X69749D01*
Y7864D01*
Y11828D01*
X107416D01*
Y7864D01*
D02*
G37*
%LPC*%
G36*
X100787Y11385D02*
X99691D01*
D01*
X100787D01*
D02*
G37*
G36*
X92708Y11435D02*
X92664D01*
X92620Y11429D01*
X92555Y11424D01*
X92489Y11413D01*
X92413Y11396D01*
X92336Y11375D01*
X92260Y11347D01*
X92249Y11342D01*
X92227Y11331D01*
X92189Y11309D01*
X92145Y11282D01*
X92091Y11249D01*
X92036Y11200D01*
X91982Y11151D01*
X91927Y11091D01*
X91922Y11085D01*
X91905Y11063D01*
X91878Y11025D01*
X91851Y10982D01*
X91818Y10921D01*
X91780Y10850D01*
X91747Y10774D01*
X91719Y10687D01*
X91714Y10676D01*
X91708Y10643D01*
X91698Y10599D01*
X91681Y10534D01*
X91670Y10452D01*
X91659Y10364D01*
X91654Y10261D01*
X91649Y10152D01*
Y11435D01*
Y8148D01*
X93761D01*
D01*
X92746D01*
X92790Y8153D01*
X92850Y8159D01*
X92921Y8170D01*
X92997Y8180D01*
X93073Y8202D01*
X93150Y8230D01*
X93161Y8235D01*
X93183Y8246D01*
X93216Y8262D01*
X93265Y8290D01*
X93314Y8328D01*
X93368Y8366D01*
X93423Y8415D01*
X93478Y8475D01*
X93483Y8481D01*
X93499Y8503D01*
X93527Y8541D01*
X93554Y8585D01*
X93587Y8645D01*
X93625Y8710D01*
X93658Y8792D01*
X93691Y8874D01*
Y8879D01*
X93696Y8885D01*
X93701Y8918D01*
X93712Y8967D01*
X93723Y9032D01*
X93740Y9114D01*
X93751Y9207D01*
X93756Y9311D01*
X93761Y9420D01*
Y10201D01*
X93756Y10261D01*
X93751Y10332D01*
X93745Y10419D01*
X93729Y10507D01*
X93712Y10599D01*
X93691Y10692D01*
Y10698D01*
X93685Y10703D01*
X93680Y10730D01*
X93663Y10774D01*
X93636Y10829D01*
X93609Y10894D01*
X93570Y10960D01*
X93532Y11025D01*
X93483Y11091D01*
X93478Y11096D01*
X93456Y11118D01*
X93428Y11151D01*
X93390Y11189D01*
X93341Y11227D01*
X93287Y11271D01*
X93221Y11309D01*
X93150Y11347D01*
X93139Y11353D01*
X93117Y11364D01*
X93073Y11375D01*
X93019Y11391D01*
X92953Y11407D01*
X92882Y11424D01*
X92795Y11429D01*
X92708Y11435D01*
D02*
G37*
G36*
X90021D02*
X89978D01*
X89934Y11429D01*
X89868Y11424D01*
X89803Y11413D01*
X89727Y11396D01*
X89650Y11375D01*
X89574Y11347D01*
X89563Y11342D01*
X89541Y11331D01*
X89503Y11309D01*
X89459Y11282D01*
X89404Y11249D01*
X89350Y11200D01*
X89295Y11151D01*
X89241Y11091D01*
X89235Y11085D01*
X89219Y11063D01*
X89192Y11025D01*
X89164Y10982D01*
X89131Y10921D01*
X89093Y10850D01*
X89060Y10774D01*
X89033Y10687D01*
X89028Y10676D01*
X89022Y10643D01*
X89011Y10599D01*
X88995Y10534D01*
X88984Y10452D01*
X88973Y10364D01*
X88968Y10261D01*
X88962Y10152D01*
Y11435D01*
Y8148D01*
X91075D01*
D01*
X90060D01*
X90103Y8153D01*
X90163Y8159D01*
X90234Y8170D01*
X90311Y8180D01*
X90387Y8202D01*
X90464Y8230D01*
X90475Y8235D01*
X90496Y8246D01*
X90529Y8262D01*
X90578Y8290D01*
X90627Y8328D01*
X90682Y8366D01*
X90737Y8415D01*
X90791Y8475D01*
X90797Y8481D01*
X90813Y8503D01*
X90840Y8541D01*
X90868Y8585D01*
X90900Y8645D01*
X90939Y8710D01*
X90971Y8792D01*
X91004Y8874D01*
Y8879D01*
X91010Y8885D01*
X91015Y8918D01*
X91026Y8967D01*
X91037Y9032D01*
X91053Y9114D01*
X91064Y9207D01*
X91070Y9311D01*
X91075Y9420D01*
Y10201D01*
X91070Y10261D01*
X91064Y10332D01*
X91059Y10419D01*
X91042Y10507D01*
X91026Y10599D01*
X91004Y10692D01*
Y10698D01*
X90999Y10703D01*
X90993Y10730D01*
X90977Y10774D01*
X90950Y10829D01*
X90922Y10894D01*
X90884Y10960D01*
X90846Y11025D01*
X90797Y11091D01*
X90791Y11096D01*
X90769Y11118D01*
X90742Y11151D01*
X90704Y11189D01*
X90655Y11227D01*
X90600Y11271D01*
X90535Y11309D01*
X90464Y11347D01*
X90453Y11353D01*
X90431Y11364D01*
X90387Y11375D01*
X90333Y11391D01*
X90267Y11407D01*
X90196Y11424D01*
X90109Y11429D01*
X90021Y11435D01*
D02*
G37*
G36*
X96453Y11391D02*
X94389D01*
X94832D01*
Y10949D01*
X94979D01*
X95028Y10943D01*
X95077Y10938D01*
X95137Y10932D01*
X95252Y10905D01*
X95258D01*
X95279Y10900D01*
X95307Y10889D01*
X95339Y10878D01*
X95427Y10845D01*
X95514Y10801D01*
X95520Y10796D01*
X95530Y10790D01*
X95552Y10774D01*
X95580Y10758D01*
X95640Y10708D01*
X95705Y10643D01*
X95711Y10638D01*
X95716Y10627D01*
X95733Y10610D01*
X95749Y10583D01*
X95793Y10517D01*
X95836Y10441D01*
Y10435D01*
X95847Y10425D01*
X95853Y10397D01*
X95869Y10370D01*
X95880Y10337D01*
X95896Y10294D01*
X95924Y10206D01*
Y10201D01*
X95929Y10184D01*
X95935Y10163D01*
X95940Y10135D01*
X95951Y10070D01*
X95952Y10060D01*
X95946Y10070D01*
X95929Y10091D01*
X95907Y10113D01*
X95902Y10119D01*
X95896Y10124D01*
X95880Y10135D01*
X95858Y10152D01*
X95803Y10184D01*
X95744Y10217D01*
X95738D01*
X95727Y10222D01*
X95711Y10233D01*
X95683Y10244D01*
X95623Y10266D01*
X95552Y10288D01*
X95547D01*
X95536Y10294D01*
X95514Y10299D01*
X95487Y10304D01*
X95416Y10310D01*
X95334Y10315D01*
X95290D01*
X95247Y10310D01*
X95187Y10304D01*
X95121Y10294D01*
X95050Y10272D01*
X94979Y10250D01*
X94908Y10217D01*
X94903Y10212D01*
X94875Y10201D01*
X94843Y10179D01*
X94804Y10152D01*
X94755Y10119D01*
X94706Y10075D01*
X94657Y10026D01*
X94613Y9971D01*
X94608Y9966D01*
X94597Y9944D01*
X94575Y9911D01*
X94548Y9873D01*
X94520Y9819D01*
X94493Y9764D01*
X94466Y9698D01*
X94444Y9627D01*
Y9617D01*
X94433Y9595D01*
X94428Y9556D01*
X94417Y9507D01*
X94406Y9453D01*
X94400Y9387D01*
X94389Y9245D01*
Y9207D01*
X94395Y9163D01*
Y9109D01*
X94406Y9043D01*
X94417Y8972D01*
X94433Y8896D01*
X94455Y8819D01*
X94460Y8808D01*
X94466Y8787D01*
X94482Y8748D01*
X94504Y8705D01*
X94531Y8650D01*
X94564Y8590D01*
X94608Y8530D01*
X94652Y8470D01*
X94657Y8464D01*
X94673Y8443D01*
X94701Y8415D01*
X94739Y8382D01*
X94783Y8344D01*
X94837Y8306D01*
X94897Y8268D01*
X94968Y8230D01*
X94979Y8224D01*
X95001Y8219D01*
X95039Y8202D01*
X95094Y8191D01*
X95154Y8175D01*
X95230Y8159D01*
X95312Y8153D01*
X95405Y8148D01*
X94389D01*
Y9207D01*
Y8148D01*
D01*
X96453D01*
D01*
X95470D01*
X95514Y8153D01*
X95563Y8159D01*
X95618Y8164D01*
X95733Y8191D01*
X95738D01*
X95754Y8202D01*
X95782Y8213D01*
X95820Y8230D01*
X95858Y8246D01*
X95902Y8268D01*
X95995Y8328D01*
X96000Y8333D01*
X96011Y8344D01*
X96033Y8366D01*
X96060Y8388D01*
X96093Y8421D01*
X96126Y8459D01*
X96197Y8541D01*
X96202Y8546D01*
X96213Y8563D01*
X96229Y8585D01*
X96246Y8617D01*
X96273Y8655D01*
X96295Y8699D01*
X96344Y8798D01*
Y8803D01*
X96355Y8819D01*
X96360Y8847D01*
X96377Y8885D01*
X96388Y8929D01*
X96404Y8978D01*
X96426Y9081D01*
Y9087D01*
X96431Y9109D01*
X96437Y9136D01*
Y9174D01*
X96442Y9218D01*
X96448Y9267D01*
X96453Y9376D01*
Y9693D01*
Y9649D01*
X96448Y9704D01*
Y9769D01*
X96442Y9840D01*
X96426Y9999D01*
Y10010D01*
X96421Y10037D01*
X96415Y10081D01*
X96404Y10135D01*
X96393Y10195D01*
X96377Y10266D01*
X96333Y10419D01*
X96328Y10430D01*
X96322Y10452D01*
X96306Y10496D01*
X96284Y10545D01*
X96262Y10605D01*
X96229Y10670D01*
X96158Y10801D01*
X96153Y10807D01*
X96137Y10829D01*
X96115Y10861D01*
X96082Y10905D01*
X96038Y10954D01*
X95989Y11003D01*
X95935Y11058D01*
X95875Y11107D01*
X95869Y11112D01*
X95842Y11129D01*
X95809Y11151D01*
X95760Y11184D01*
X95700Y11216D01*
X95629Y11249D01*
X95552Y11282D01*
X95465Y11315D01*
X95460D01*
X95454Y11320D01*
X95421Y11326D01*
X95372Y11336D01*
X95307Y11353D01*
X95225Y11369D01*
X95132Y11380D01*
X95028Y11385D01*
X94914Y11391D01*
X96453D01*
D02*
G37*
G36*
X91075Y8639D02*
D01*
D01*
D01*
D02*
G37*
G36*
X93761Y8574D02*
D01*
D01*
D01*
D02*
G37*
G36*
X76639Y11429D02*
X76530D01*
X76481Y11424D01*
X76426Y11418D01*
X76355Y11413D01*
X76284Y11396D01*
X76208Y11380D01*
X76137Y11353D01*
X76126Y11347D01*
X76104Y11336D01*
X76066Y11320D01*
X76022Y11298D01*
X75967Y11265D01*
X75913Y11233D01*
X75858Y11189D01*
X75804Y11140D01*
X75798Y11134D01*
X75782Y11118D01*
X75754Y11085D01*
X75722Y11047D01*
X75689Y10998D01*
X75651Y10943D01*
X75612Y10883D01*
X75580Y10812D01*
X75574Y10801D01*
X75563Y10780D01*
X75552Y10736D01*
X75531Y10681D01*
X75514Y10616D01*
X75498Y10534D01*
X75481Y10446D01*
X75471Y10348D01*
X75951D01*
Y10354D01*
X75956Y10375D01*
X75962Y10408D01*
X75967Y10446D01*
X75989Y10539D01*
X76022Y10632D01*
Y10638D01*
X76027Y10654D01*
X76038Y10676D01*
X76055Y10703D01*
X76093Y10768D01*
X76142Y10834D01*
X76148Y10840D01*
X76153Y10850D01*
X76169Y10867D01*
X76191Y10883D01*
X76246Y10927D01*
X76322Y10971D01*
X76328D01*
X76339Y10976D01*
X76360Y10987D01*
X76393Y10998D01*
X76426Y11003D01*
X76470Y11014D01*
X76568Y11020D01*
X76617D01*
X76644Y11014D01*
X76721Y11003D01*
X76803Y10976D01*
X76808D01*
X76819Y10971D01*
X76836Y10960D01*
X76863Y10949D01*
X76917Y10910D01*
X76972Y10861D01*
X76977Y10856D01*
X76983Y10850D01*
X76999Y10834D01*
X77016Y10812D01*
X77054Y10758D01*
X77092Y10687D01*
Y10681D01*
X77098Y10670D01*
X77109Y10648D01*
X77119Y10621D01*
X77147Y10556D01*
X77174Y10474D01*
Y10468D01*
X77179Y10452D01*
X77185Y10430D01*
X77190Y10403D01*
X77201Y10364D01*
X77207Y10326D01*
X77223Y10239D01*
Y10233D01*
Y10217D01*
X77229Y10195D01*
Y10168D01*
Y10130D01*
X77234Y10091D01*
Y10004D01*
Y9567D01*
Y9562D01*
Y9545D01*
Y9524D01*
Y9491D01*
X77229Y9458D01*
Y9414D01*
X77223Y9327D01*
Y9322D01*
X77218Y9305D01*
Y9283D01*
X77212Y9256D01*
X77196Y9180D01*
X77174Y9098D01*
Y9092D01*
X77169Y9076D01*
X77163Y9054D01*
X77152Y9027D01*
X77125Y8956D01*
X77092Y8879D01*
Y8874D01*
X77081Y8863D01*
X77070Y8847D01*
X77059Y8819D01*
X77021Y8765D01*
X76972Y8705D01*
X76967Y8699D01*
X76961Y8694D01*
X76945Y8677D01*
X76923Y8666D01*
X76868Y8628D01*
X76803Y8590D01*
X76797D01*
X76786Y8585D01*
X76765Y8579D01*
X76737Y8568D01*
X76704Y8563D01*
X76661Y8552D01*
X76568Y8546D01*
X76513D01*
X76481Y8552D01*
X76399Y8563D01*
X76317Y8590D01*
X76311D01*
X76300Y8601D01*
X76279Y8612D01*
X76257Y8623D01*
X76197Y8666D01*
X76142Y8721D01*
X76137Y8726D01*
X76131Y8737D01*
X76115Y8754D01*
X76098Y8776D01*
X76060Y8841D01*
X76022Y8918D01*
Y8923D01*
X76011Y8939D01*
X76006Y8961D01*
X75995Y8999D01*
X75984Y9038D01*
X75973Y9087D01*
X75962Y9147D01*
X75951Y9207D01*
X75471D01*
Y9196D01*
X75476Y9163D01*
X75481Y9109D01*
X75492Y9049D01*
X75509Y8978D01*
X75531Y8901D01*
X75552Y8819D01*
X75585Y8748D01*
X75591Y8743D01*
X75602Y8716D01*
X75618Y8683D01*
X75645Y8639D01*
X75678Y8590D01*
X75716Y8535D01*
X75760Y8481D01*
X75809Y8426D01*
X75814Y8421D01*
X75836Y8404D01*
X75864Y8377D01*
X75902Y8350D01*
X75951Y8317D01*
X76011Y8279D01*
X76071Y8246D01*
X76142Y8219D01*
X76153Y8213D01*
X76175Y8208D01*
X76213Y8197D01*
X76268Y8186D01*
X76328Y8170D01*
X76404Y8159D01*
X76481Y8153D01*
X76568Y8148D01*
X75471D01*
X77725D01*
D01*
X76601D01*
X76639Y8153D01*
X76688D01*
X76748Y8159D01*
X76808Y8170D01*
X76934Y8202D01*
X76939D01*
X76961Y8213D01*
X76994Y8224D01*
X77032Y8241D01*
X77076Y8262D01*
X77125Y8290D01*
X77229Y8355D01*
X77234Y8361D01*
X77250Y8372D01*
X77272Y8393D01*
X77305Y8421D01*
X77338Y8454D01*
X77376Y8497D01*
X77447Y8590D01*
X77452Y8596D01*
X77463Y8612D01*
X77480Y8639D01*
X77502Y8677D01*
X77523Y8721D01*
X77551Y8770D01*
X77600Y8885D01*
Y8890D01*
X77611Y8912D01*
X77622Y8945D01*
X77633Y8983D01*
X77649Y9032D01*
X77665Y9092D01*
X77693Y9212D01*
Y9218D01*
X77698Y9245D01*
X77704Y9278D01*
X77709Y9322D01*
X77715Y9376D01*
X77720Y9436D01*
X77725Y9567D01*
Y10037D01*
X77720Y10070D01*
Y10113D01*
X77715Y10168D01*
X77709Y10228D01*
X77693Y10354D01*
Y10359D01*
X77687Y10381D01*
X77682Y10414D01*
X77671Y10457D01*
X77660Y10507D01*
X77644Y10561D01*
X77605Y10681D01*
X77600Y10687D01*
X77594Y10708D01*
X77578Y10741D01*
X77562Y10780D01*
X77540Y10823D01*
X77513Y10872D01*
X77447Y10976D01*
X77442Y10982D01*
X77431Y10998D01*
X77409Y11025D01*
X77387Y11058D01*
X77354Y11096D01*
X77316Y11134D01*
X77229Y11211D01*
X77223Y11216D01*
X77207Y11227D01*
X77179Y11249D01*
X77141Y11271D01*
X77098Y11293D01*
X77048Y11320D01*
X76934Y11369D01*
X76928Y11375D01*
X76907Y11380D01*
X76874Y11391D01*
X76825Y11402D01*
X76770Y11413D01*
X76710Y11418D01*
X76639Y11429D01*
D02*
G37*
G36*
X101706Y11385D02*
X101214D01*
Y8606D01*
X99691D01*
Y8186D01*
X101706D01*
Y11385D01*
D02*
G37*
G36*
X99019D02*
X98528D01*
Y8606D01*
X97005D01*
Y8186D01*
X99019D01*
Y11385D01*
D02*
G37*
G36*
X88460D02*
X86260D01*
Y11112D01*
X87564Y8186D01*
X86260D01*
X88460D01*
X88056D01*
X86773Y10954D01*
X88460D01*
Y11385D01*
D02*
G37*
G36*
X82918D02*
X80909D01*
Y8186D01*
Y10960D01*
X82421D01*
Y9982D01*
X81127D01*
Y9562D01*
X82421D01*
Y8186D01*
X82918D01*
Y11385D01*
D02*
G37*
G36*
X80232D02*
X79162D01*
X79118Y11380D01*
X79058Y11375D01*
X78987Y11364D01*
X78910Y11353D01*
X78834Y11336D01*
X78763Y11315D01*
X78752D01*
X78730Y11304D01*
X78692Y11287D01*
X78648Y11271D01*
X78594Y11244D01*
X78534Y11211D01*
X78474Y11173D01*
X78419Y11129D01*
X78413Y11123D01*
X78392Y11107D01*
X78364Y11080D01*
X78332Y11041D01*
X78293Y10998D01*
X78255Y10949D01*
X78217Y10889D01*
X78184Y10823D01*
X78179Y10818D01*
X78168Y10790D01*
X78157Y10752D01*
X78140Y10703D01*
X78124Y10643D01*
X78108Y10572D01*
X78102Y10496D01*
X78097Y10408D01*
Y10370D01*
X78102Y10326D01*
X78108Y10266D01*
X78119Y10206D01*
X78135Y10135D01*
X78157Y10064D01*
X78184Y9993D01*
X78190Y9988D01*
X78201Y9966D01*
X78217Y9928D01*
X78244Y9889D01*
X78277Y9840D01*
X78315Y9786D01*
X78364Y9737D01*
X78419Y9687D01*
X78424Y9682D01*
X78446Y9666D01*
X78474Y9644D01*
X78517Y9622D01*
X78566Y9589D01*
X78626Y9556D01*
X78692Y9529D01*
X78763Y9502D01*
X78774D01*
X78796Y9491D01*
X78834Y9480D01*
X78888Y9469D01*
X78948Y9458D01*
X79019Y9442D01*
X79096Y9436D01*
X79178Y9431D01*
X79740D01*
Y8186D01*
X78097Y8186D01*
D01*
X80232Y8186D01*
Y11385D01*
D02*
G37*
G36*
X85681Y8273D02*
X83622D01*
Y7864D01*
X85681D01*
Y8273D01*
D02*
G37*
G36*
X86835Y7219D02*
X84804D01*
X85793D01*
X85765Y7213D01*
X85738Y7208D01*
X85705Y7197D01*
X85667Y7186D01*
X85634Y7164D01*
X85607Y7137D01*
X85602Y7131D01*
X85596Y7120D01*
X85585Y7104D01*
X85569Y7082D01*
X85541Y7022D01*
X85536Y6984D01*
X85531Y6940D01*
Y6934D01*
Y6924D01*
X85536Y6902D01*
X85541Y6875D01*
X85563Y6814D01*
X85580Y6782D01*
X85607Y6749D01*
X85612Y6743D01*
X85618Y6738D01*
X85634Y6727D01*
X85662Y6711D01*
X85689Y6694D01*
X85722Y6683D01*
X85765Y6678D01*
X85814Y6673D01*
X85836D01*
X85864Y6678D01*
X85896Y6683D01*
X85962Y6705D01*
X86000Y6722D01*
X86027Y6749D01*
X86033Y6754D01*
X86038Y6765D01*
X86049Y6782D01*
X86060Y6803D01*
X86088Y6864D01*
X86093Y6896D01*
X86098Y6940D01*
Y6945D01*
Y6962D01*
X86093Y6978D01*
X86088Y7006D01*
X86066Y7071D01*
X86049Y7104D01*
X86027Y7137D01*
X86022Y7142D01*
X86016Y7147D01*
X85995Y7164D01*
X85973Y7180D01*
X85945Y7191D01*
X85907Y7208D01*
X85864Y7213D01*
X85814Y7219D01*
X86835D01*
D02*
G37*
G36*
X89620Y6421D02*
X87556D01*
X88539D01*
X88484Y6416D01*
X88430Y6410D01*
X88364Y6400D01*
X88228Y6367D01*
X88222D01*
X88195Y6356D01*
X88162Y6345D01*
X88119Y6329D01*
X88075Y6307D01*
X88020Y6279D01*
X87917Y6214D01*
X87911Y6208D01*
X87895Y6197D01*
X87873Y6170D01*
X87840Y6143D01*
X87807Y6105D01*
X87775Y6061D01*
X87742Y6006D01*
X87714Y5952D01*
X87709Y5946D01*
X87704Y5924D01*
X87693Y5892D01*
X87676Y5848D01*
X87660Y5799D01*
X87649Y5739D01*
X87644Y5668D01*
X87638Y5597D01*
Y4521D01*
Y4516D01*
Y4499D01*
Y4478D01*
X87633Y4450D01*
Y4412D01*
X87627Y4374D01*
X87616Y4281D01*
Y4276D01*
X87611Y4259D01*
X87605Y4237D01*
X87600Y4205D01*
X87584Y4134D01*
X87556Y4057D01*
Y3937D01*
X89620D01*
Y4701D01*
Y4690D01*
X89615Y4729D01*
X89609Y4778D01*
X89604Y4832D01*
X89587Y4893D01*
X89571Y4953D01*
X89544Y5013D01*
X89538Y5018D01*
X89527Y5040D01*
X89511Y5067D01*
X89484Y5100D01*
X89451Y5144D01*
X89413Y5182D01*
X89369Y5226D01*
X89314Y5264D01*
X89309Y5269D01*
X89287Y5280D01*
X89254Y5302D01*
X89216Y5324D01*
X89161Y5346D01*
X89107Y5373D01*
X89036Y5395D01*
X88965Y5417D01*
X88954D01*
X88927Y5422D01*
X88888Y5433D01*
X88834Y5444D01*
X88763Y5449D01*
X88686Y5460D01*
X88604Y5466D01*
X88124D01*
Y5602D01*
Y5608D01*
Y5619D01*
Y5635D01*
X88130Y5657D01*
X88140Y5711D01*
X88162Y5772D01*
Y5777D01*
X88168Y5782D01*
X88184Y5815D01*
X88217Y5859D01*
X88261Y5897D01*
X88271Y5908D01*
X88304Y5930D01*
X88353Y5957D01*
X88419Y5979D01*
X88424D01*
X88435Y5985D01*
X88457Y5990D01*
X88479Y5995D01*
X88512Y6001D01*
X88550Y6006D01*
X88632Y6012D01*
X88670D01*
X88697Y6006D01*
X88763Y6001D01*
X88828Y5985D01*
X88834D01*
X88839Y5979D01*
X88877Y5968D01*
X88921Y5941D01*
X88970Y5914D01*
X88981Y5908D01*
X89003Y5886D01*
X89030Y5853D01*
X89058Y5810D01*
X89063Y5799D01*
X89069Y5772D01*
X89079Y5717D01*
X89085Y5646D01*
X89576D01*
Y5651D01*
Y5679D01*
X89571Y5711D01*
X89565Y5755D01*
X89555Y5799D01*
X89544Y5853D01*
X89527Y5908D01*
X89505Y5957D01*
X89500Y5963D01*
X89495Y5979D01*
X89478Y6006D01*
X89456Y6034D01*
X89429Y6072D01*
X89396Y6110D01*
X89358Y6154D01*
X89314Y6192D01*
X89309Y6197D01*
X89293Y6208D01*
X89265Y6230D01*
X89227Y6252D01*
X89183Y6279D01*
X89134Y6307D01*
X89079Y6334D01*
X89014Y6356D01*
X89003Y6361D01*
X88981Y6367D01*
X88943Y6378D01*
X88894Y6389D01*
X88834Y6400D01*
X88768Y6410D01*
X88692Y6421D01*
X89620D01*
D02*
G37*
G36*
X95042D02*
D01*
Y5231D01*
X95036Y5286D01*
X95031Y5357D01*
X95020Y5438D01*
X95004Y5520D01*
X94982Y5613D01*
X94949Y5701D01*
X94944Y5711D01*
X94933Y5739D01*
X94911Y5782D01*
X94884Y5837D01*
X94851Y5897D01*
X94807Y5963D01*
X94758Y6028D01*
X94703Y6088D01*
X94698Y6094D01*
X94676Y6115D01*
X94643Y6143D01*
X94600Y6181D01*
X94545Y6219D01*
X94485Y6257D01*
X94419Y6301D01*
X94348Y6334D01*
X94337Y6339D01*
X94316Y6350D01*
X94272Y6361D01*
X94223Y6378D01*
X94157Y6394D01*
X94092Y6410D01*
X94015Y6416D01*
X93939Y6421D01*
X93895D01*
X93846Y6416D01*
X93781Y6410D01*
X93710Y6400D01*
X93633Y6383D01*
X93557Y6361D01*
X93480Y6329D01*
X93469Y6323D01*
X93448Y6312D01*
X93409Y6290D01*
X93366Y6263D01*
X93311Y6225D01*
X93256Y6181D01*
X93202Y6132D01*
X93153Y6072D01*
X93147Y6066D01*
X93131Y6045D01*
X93109Y6012D01*
X93082Y5968D01*
X93049Y5908D01*
X93016Y5848D01*
X92989Y5772D01*
X92962Y5695D01*
X92956Y5684D01*
X92951Y5657D01*
X92940Y5613D01*
X92929Y5559D01*
X92918Y5488D01*
X92907Y5411D01*
X92896Y5329D01*
Y5018D01*
X94551D01*
Y5013D01*
Y5002D01*
X94545Y4974D01*
X94539Y4947D01*
X94534Y4914D01*
X94523Y4871D01*
X94496Y4778D01*
Y4772D01*
X94485Y4756D01*
X94474Y4729D01*
X94458Y4701D01*
X94414Y4625D01*
X94354Y4549D01*
X94348Y4543D01*
X94337Y4532D01*
X94316Y4516D01*
X94294Y4494D01*
X94261Y4467D01*
X94223Y4445D01*
X94141Y4396D01*
X94135D01*
X94119Y4385D01*
X94092Y4379D01*
X94059Y4368D01*
X94021Y4357D01*
X93972Y4352D01*
X93868Y4341D01*
X93835D01*
X93797Y4346D01*
X93748Y4352D01*
X93693Y4357D01*
X93633Y4374D01*
X93573Y4390D01*
X93513Y4417D01*
X93508Y4423D01*
X93486Y4434D01*
X93458Y4450D01*
X93415Y4478D01*
X93371Y4510D01*
X93322Y4554D01*
X93273Y4598D01*
X93224Y4652D01*
X92923Y4428D01*
X92929Y4423D01*
X92934Y4407D01*
X92951Y4385D01*
X92972Y4357D01*
X93022Y4292D01*
X93087Y4221D01*
X93093Y4216D01*
X93104Y4210D01*
X93120Y4194D01*
X93147Y4172D01*
X93174Y4150D01*
X93213Y4123D01*
X93295Y4073D01*
X93300D01*
X93317Y4063D01*
X93338Y4052D01*
X93371Y4035D01*
X93415Y4019D01*
X93458Y4002D01*
X93568Y3975D01*
X93573D01*
X93595Y3970D01*
X93622Y3964D01*
X93660Y3959D01*
X93710Y3948D01*
X93764Y3943D01*
X93890Y3937D01*
X93933D01*
X93983Y3943D01*
X94043Y3948D01*
X94114Y3959D01*
X94190Y3970D01*
X94272Y3992D01*
X94354Y4019D01*
X94365Y4024D01*
X94387Y4035D01*
X94430Y4052D01*
X94480Y4079D01*
X94534Y4112D01*
X94600Y4155D01*
X94660Y4205D01*
X94720Y4259D01*
X94725Y4265D01*
X94747Y4286D01*
X94774Y4319D01*
X94807Y4363D01*
X94845Y4417D01*
X94884Y4483D01*
X94922Y4554D01*
X94960Y4630D01*
X94965Y4641D01*
X94971Y4669D01*
X94987Y4712D01*
X94998Y4767D01*
X95015Y4838D01*
X95031Y4914D01*
X95036Y5002D01*
X95042Y5094D01*
Y6421D01*
D02*
G37*
G36*
X89620D02*
D01*
Y5040D01*
Y6421D01*
D02*
G37*
G36*
X76341Y7218D02*
X75249D01*
X75206Y7213D01*
X75151Y7208D01*
X75086Y7202D01*
X75015Y7191D01*
X74944Y7169D01*
X74873Y7147D01*
X74862Y7142D01*
X74840Y7136D01*
X74807Y7120D01*
X74763Y7098D01*
X74714Y7071D01*
X74665Y7038D01*
X74611Y7000D01*
X74561Y6956D01*
X74556Y6951D01*
X74540Y6934D01*
X74518Y6907D01*
X74485Y6875D01*
X74452Y6831D01*
X74419Y6782D01*
X74387Y6727D01*
X74359Y6667D01*
X74354Y6662D01*
X74348Y6640D01*
X74338Y6607D01*
X74321Y6563D01*
X74310Y6509D01*
X74299Y6449D01*
X74294Y6383D01*
X74288Y6312D01*
Y6307D01*
Y6285D01*
Y6257D01*
X74294Y6219D01*
X74299Y6176D01*
X74310Y6126D01*
X74338Y6023D01*
Y6017D01*
X74348Y6001D01*
X74359Y5968D01*
X74370Y5935D01*
X74392Y5892D01*
X74414Y5848D01*
X74474Y5744D01*
X74480Y5739D01*
X74490Y5722D01*
X74507Y5695D01*
X74529Y5662D01*
X74556Y5624D01*
X74589Y5575D01*
X74665Y5477D01*
X74671Y5471D01*
X74682Y5455D01*
X74703Y5428D01*
X74736Y5395D01*
X74769Y5357D01*
X74807Y5313D01*
X74889Y5215D01*
X75713Y4385D01*
X74146D01*
Y3975D01*
X76341D01*
Y4417D01*
Y3975D01*
X76281D01*
Y4319D01*
X75249Y5466D01*
X75244Y5471D01*
X75227Y5493D01*
X75200Y5520D01*
X75173Y5553D01*
X75102Y5641D01*
X75025Y5728D01*
X75020Y5733D01*
X75009Y5750D01*
X74993Y5771D01*
X74971Y5799D01*
X74922Y5870D01*
X74878Y5941D01*
Y5946D01*
X74867Y5957D01*
X74862Y5979D01*
X74845Y6001D01*
X74823Y6061D01*
X74802Y6121D01*
Y6126D01*
X74796Y6137D01*
Y6154D01*
X74791Y6176D01*
X74785Y6230D01*
X74780Y6296D01*
Y6301D01*
Y6312D01*
Y6334D01*
X74785Y6361D01*
X74796Y6421D01*
X74818Y6492D01*
Y6498D01*
X74823Y6509D01*
X74829Y6525D01*
X74840Y6552D01*
X74873Y6601D01*
X74916Y6656D01*
X74922Y6662D01*
X74927Y6667D01*
X74960Y6694D01*
X75009Y6733D01*
X75075Y6765D01*
X75080D01*
X75091Y6771D01*
X75113Y6782D01*
X75135Y6787D01*
X75168Y6798D01*
X75206Y6803D01*
X75288Y6809D01*
X75342D01*
X75375Y6803D01*
X75457Y6793D01*
X75539Y6765D01*
X75544D01*
X75555Y6760D01*
X75577Y6749D01*
X75599Y6738D01*
X75653Y6700D01*
X75713Y6651D01*
X75719Y6645D01*
X75724Y6640D01*
X75735Y6623D01*
X75752Y6601D01*
X75784Y6541D01*
X75817Y6465D01*
Y6459D01*
X75823Y6443D01*
X75828Y6421D01*
X75834Y6389D01*
X75839Y6345D01*
X75845Y6296D01*
X75850Y6236D01*
Y6170D01*
X76341D01*
Y4417D01*
Y6170D01*
Y6214D01*
X76336Y6257D01*
X76330Y6318D01*
X76325Y6389D01*
X76309Y6459D01*
X76292Y6531D01*
X76270Y6601D01*
X76265Y6612D01*
X76259Y6634D01*
X76243Y6667D01*
X76216Y6711D01*
X76188Y6760D01*
X76150Y6814D01*
X76112Y6869D01*
X76063Y6924D01*
X76057Y6929D01*
X76041Y6945D01*
X76008Y6973D01*
X75970Y7000D01*
X75921Y7038D01*
X75866Y7071D01*
X75806Y7104D01*
X75735Y7136D01*
X75724Y7142D01*
X75703Y7147D01*
X75659Y7164D01*
X75604Y7180D01*
X75539Y7191D01*
X75462Y7208D01*
X75380Y7213D01*
X75288Y7218D01*
X76341D01*
D02*
G37*
G36*
X86835Y7219D02*
Y6378D01*
X85558D01*
Y4401D01*
X84804D01*
D01*
Y3975D01*
X86835D01*
Y7219D01*
D02*
G37*
G36*
X92268Y6421D02*
D01*
Y4772D01*
X91782D01*
Y4767D01*
Y4745D01*
X91777Y4718D01*
X91771Y4685D01*
X91750Y4614D01*
X91739Y4576D01*
X91722Y4543D01*
Y4538D01*
X91711Y4532D01*
X91689Y4499D01*
X91646Y4461D01*
X91597Y4423D01*
X91591D01*
X91580Y4417D01*
X91564Y4407D01*
X91542Y4401D01*
X91487Y4379D01*
X91422Y4357D01*
X91416D01*
X91405Y4352D01*
X91389D01*
X91362Y4346D01*
X91302Y4341D01*
X91231Y4336D01*
X91193D01*
X91149Y4341D01*
X91094Y4346D01*
X91034Y4357D01*
X90974Y4368D01*
X90914Y4390D01*
X90865Y4417D01*
X90860Y4423D01*
X90843Y4434D01*
X90821Y4450D01*
X90799Y4478D01*
X90772Y4510D01*
X90750Y4543D01*
X90734Y4587D01*
X90728Y4630D01*
Y4636D01*
Y4641D01*
X90734Y4669D01*
X90739Y4701D01*
X90756Y4734D01*
X90761Y4745D01*
X90772Y4767D01*
X90799Y4794D01*
X90838Y4827D01*
X90849Y4832D01*
X90881Y4854D01*
X90930Y4882D01*
X91001Y4909D01*
X91007D01*
X91018Y4914D01*
X91045Y4925D01*
X91072Y4931D01*
X91111Y4942D01*
X91154Y4953D01*
X91209Y4969D01*
X91264Y4980D01*
X91274D01*
X91296Y4985D01*
X91340Y4996D01*
X91389Y5007D01*
X91449Y5023D01*
X91509Y5040D01*
X91640Y5078D01*
X91646Y5084D01*
X91668Y5089D01*
X91700Y5100D01*
X91739Y5116D01*
X91782Y5138D01*
X91831Y5165D01*
X91930Y5220D01*
X91935Y5226D01*
X91952Y5237D01*
X91973Y5253D01*
X92001Y5280D01*
X92061Y5340D01*
X92121Y5422D01*
Y5428D01*
X92132Y5444D01*
X92143Y5466D01*
X92154Y5504D01*
X92164Y5542D01*
X92175Y5586D01*
X92181Y5641D01*
X92186Y5695D01*
Y5701D01*
Y5722D01*
X92181Y5750D01*
X92175Y5788D01*
X92170Y5832D01*
X92154Y5881D01*
X92137Y5930D01*
X92115Y5979D01*
X92110Y5985D01*
X92104Y6001D01*
X92088Y6028D01*
X92066Y6055D01*
X92033Y6094D01*
X92001Y6132D01*
X91962Y6170D01*
X91919Y6208D01*
X91913Y6214D01*
X91897Y6225D01*
X91870Y6241D01*
X91831Y6263D01*
X91788Y6290D01*
X91739Y6312D01*
X91684Y6339D01*
X91618Y6361D01*
X91613Y6367D01*
X91586Y6372D01*
X91553Y6383D01*
X91504Y6394D01*
X91449Y6405D01*
X91384Y6410D01*
X91318Y6421D01*
X90242D01*
X91203D01*
X91165Y6416D01*
X91111D01*
X91051Y6405D01*
X90980Y6394D01*
X90914Y6383D01*
X90843Y6361D01*
X90832D01*
X90810Y6350D01*
X90778Y6339D01*
X90734Y6318D01*
X90685Y6296D01*
X90636Y6268D01*
X90581Y6236D01*
X90532Y6197D01*
X90526Y6192D01*
X90510Y6181D01*
X90488Y6159D01*
X90461Y6126D01*
X90428Y6094D01*
X90395Y6050D01*
X90335Y5952D01*
X90330Y5946D01*
X90324Y5924D01*
X90314Y5897D01*
X90297Y5853D01*
X90286Y5804D01*
X90275Y5744D01*
X90270Y5679D01*
X90264Y5608D01*
X90756D01*
Y5613D01*
Y5624D01*
Y5646D01*
X90761Y5668D01*
X90767Y5728D01*
X90789Y5777D01*
Y5782D01*
X90794Y5788D01*
X90810Y5815D01*
X90843Y5853D01*
X90887Y5892D01*
X90898Y5903D01*
X90930Y5919D01*
X90974Y5946D01*
X91040Y5974D01*
X91045D01*
X91056Y5979D01*
X91072Y5985D01*
X91100Y5990D01*
X91160Y6001D01*
X91242Y6006D01*
X91285D01*
X91313Y6001D01*
X91378Y5995D01*
X91449Y5979D01*
X91455D01*
X91460Y5974D01*
X91498Y5963D01*
X91542Y5941D01*
X91591Y5914D01*
X91602Y5908D01*
X91624Y5886D01*
X91651Y5853D01*
X91673Y5815D01*
X91679Y5804D01*
X91684Y5782D01*
X91695Y5750D01*
X91700Y5711D01*
Y5701D01*
X91695Y5673D01*
X91689Y5641D01*
X91679Y5602D01*
X91673Y5597D01*
X91662Y5575D01*
X91635Y5548D01*
X91602Y5520D01*
X91591Y5515D01*
X91564Y5499D01*
X91515Y5477D01*
X91449Y5455D01*
X91444D01*
X91427Y5449D01*
X91405Y5444D01*
X91373Y5433D01*
X91334Y5422D01*
X91285Y5411D01*
X91231Y5400D01*
X91171Y5389D01*
X91160D01*
X91138Y5384D01*
X91100Y5373D01*
X91045Y5362D01*
X90991Y5346D01*
X90925Y5329D01*
X90794Y5286D01*
X90789D01*
X90767Y5275D01*
X90734Y5264D01*
X90690Y5247D01*
X90647Y5226D01*
X90597Y5198D01*
X90499Y5138D01*
X90494Y5133D01*
X90477Y5122D01*
X90456Y5105D01*
X90428Y5078D01*
X90395Y5051D01*
X90363Y5013D01*
X90335Y4974D01*
X90308Y4931D01*
X90303Y4925D01*
X90297Y4909D01*
X90286Y4887D01*
X90275Y4854D01*
X90264Y4811D01*
X90253Y4767D01*
X90242Y4712D01*
Y4630D01*
X90248Y4598D01*
X90253Y4559D01*
X90259Y4510D01*
X90275Y4461D01*
X90292Y4412D01*
X90319Y4357D01*
X90324Y4352D01*
X90330Y4336D01*
X90346Y4308D01*
X90374Y4281D01*
X90401Y4243D01*
X90434Y4205D01*
X90477Y4166D01*
X90526Y4128D01*
X90532Y4123D01*
X90548Y4112D01*
X90576Y4095D01*
X90614Y4073D01*
X90658Y4052D01*
X90712Y4024D01*
X90772Y4002D01*
X90838Y3981D01*
X90843D01*
X90870Y3975D01*
X90903Y3970D01*
X90952Y3959D01*
X91012Y3953D01*
X91078Y3943D01*
X91154Y3937D01*
X92268D01*
Y6421D01*
D02*
G37*
G36*
X102325Y4625D02*
X101610D01*
X101938D01*
X101916Y4620D01*
X101867Y4614D01*
X101818Y4592D01*
X101812D01*
X101807Y4587D01*
X101774Y4570D01*
X101741Y4549D01*
X101703Y4516D01*
X101692Y4510D01*
X101676Y4488D01*
X101654Y4450D01*
X101632Y4407D01*
Y4401D01*
X101627Y4396D01*
X101621Y4368D01*
X101616Y4325D01*
X101610Y4276D01*
Y4281D01*
Y4232D01*
X101621Y4188D01*
X101632Y4139D01*
X101637Y4128D01*
X101648Y4101D01*
X101670Y4068D01*
X101703Y4030D01*
X101708Y4024D01*
X101736Y4008D01*
X101769Y3986D01*
X101818Y3964D01*
X101823D01*
X101829Y3959D01*
X101861Y3953D01*
X101910Y3943D01*
X101971Y3937D01*
X101610D01*
X102325D01*
Y4286D01*
X102320Y4319D01*
X102315Y4363D01*
X102304Y4407D01*
Y4412D01*
X102298Y4417D01*
X102287Y4445D01*
X102265Y4483D01*
X102238Y4521D01*
X102227Y4532D01*
X102205Y4549D01*
X102167Y4576D01*
X102123Y4598D01*
X102118D01*
X102113Y4603D01*
X102080Y4614D01*
X102031Y4620D01*
X101971Y4625D01*
X102325D01*
D01*
D02*
G37*
G36*
X80660Y7219D02*
X80622D01*
X80578Y7213D01*
X80524Y7208D01*
X80458Y7202D01*
X80387Y7191D01*
X80316Y7169D01*
X80245Y7147D01*
X80234Y7142D01*
X80212Y7137D01*
X80180Y7120D01*
X80136Y7098D01*
X80087Y7071D01*
X80038Y7038D01*
X79983Y7000D01*
X79934Y6956D01*
X79929Y6951D01*
X79912Y6934D01*
X79890Y6907D01*
X79858Y6875D01*
X79825Y6831D01*
X79792Y6782D01*
X79759Y6727D01*
X79732Y6667D01*
X79727Y6662D01*
X79721Y6640D01*
X79710Y6607D01*
X79694Y6563D01*
X79683Y6509D01*
X79672Y6449D01*
X79667Y6383D01*
X79661Y6312D01*
Y6307D01*
Y6285D01*
Y6257D01*
X79667Y6219D01*
X79672Y6176D01*
X79683Y6126D01*
X79710Y6023D01*
Y6017D01*
X79721Y6001D01*
X79732Y5968D01*
X79743Y5935D01*
X79765Y5892D01*
X79787Y5848D01*
X79847Y5744D01*
X79852Y5739D01*
X79863Y5722D01*
X79879Y5695D01*
X79901Y5662D01*
X79929Y5624D01*
X79961Y5575D01*
X80038Y5477D01*
X80043Y5471D01*
X80054Y5455D01*
X80076Y5428D01*
X80109Y5395D01*
X80142Y5357D01*
X80180Y5313D01*
X80262Y5215D01*
X81086Y4385D01*
X79519D01*
Y3975D01*
X81714D01*
Y4166D01*
Y3975D01*
X81654D01*
Y4319D01*
X80622Y5466D01*
X80616Y5471D01*
X80600Y5493D01*
X80573Y5520D01*
X80546Y5553D01*
X80475Y5641D01*
X80398Y5728D01*
X80393Y5733D01*
X80382Y5750D01*
X80365Y5772D01*
X80344Y5799D01*
X80294Y5870D01*
X80251Y5941D01*
Y5946D01*
X80240Y5957D01*
X80234Y5979D01*
X80218Y6001D01*
X80196Y6061D01*
X80174Y6121D01*
Y6126D01*
X80169Y6137D01*
Y6154D01*
X80163Y6176D01*
X80158Y6230D01*
X80152Y6296D01*
Y6301D01*
Y6312D01*
Y6334D01*
X80158Y6361D01*
X80169Y6421D01*
X80191Y6492D01*
Y6498D01*
X80196Y6509D01*
X80202Y6525D01*
X80212Y6552D01*
X80245Y6601D01*
X80289Y6656D01*
X80294Y6662D01*
X80300Y6667D01*
X80333Y6694D01*
X80382Y6733D01*
X80447Y6765D01*
X80453D01*
X80464Y6771D01*
X80485Y6782D01*
X80507Y6787D01*
X80540Y6798D01*
X80578Y6803D01*
X80660Y6809D01*
X80715D01*
X80748Y6803D01*
X80830Y6793D01*
X80911Y6765D01*
X80917D01*
X80928Y6760D01*
X80950Y6749D01*
X80971Y6738D01*
X81026Y6700D01*
X81086Y6651D01*
X81092Y6645D01*
X81097Y6640D01*
X81108Y6623D01*
X81124Y6601D01*
X81157Y6541D01*
X81190Y6465D01*
Y6459D01*
X81195Y6443D01*
X81201Y6421D01*
X81206Y6389D01*
X81212Y6345D01*
X81217Y6296D01*
X81223Y6236D01*
Y6170D01*
X81714D01*
Y4166D01*
Y6170D01*
Y6214D01*
X81709Y6257D01*
X81703Y6318D01*
X81698Y6389D01*
X81681Y6459D01*
X81665Y6531D01*
X81643Y6601D01*
X81638Y6612D01*
X81632Y6634D01*
X81616Y6667D01*
X81588Y6711D01*
X81561Y6760D01*
X81523Y6814D01*
X81485Y6869D01*
X81436Y6924D01*
X81430Y6929D01*
X81414Y6945D01*
X81381Y6973D01*
X81343Y7000D01*
X81294Y7038D01*
X81239Y7071D01*
X81179Y7104D01*
X81108Y7137D01*
X81097Y7142D01*
X81075Y7147D01*
X81032Y7164D01*
X80977Y7180D01*
X80911Y7191D01*
X80835Y7208D01*
X80753Y7213D01*
X80660Y7219D01*
D02*
G37*
G36*
X73655Y7218D02*
X72563D01*
X72519Y7213D01*
X72465Y7208D01*
X72399Y7202D01*
X72328Y7191D01*
X72257Y7169D01*
X72186Y7147D01*
X72175Y7142D01*
X72154Y7136D01*
X72121Y7120D01*
X72077Y7098D01*
X72028Y7071D01*
X71979Y7038D01*
X71924Y7000D01*
X71875Y6956D01*
X71870Y6951D01*
X71853Y6934D01*
X71831Y6907D01*
X71799Y6875D01*
X71766Y6831D01*
X71733Y6782D01*
X71700Y6727D01*
X71673Y6667D01*
X71668Y6662D01*
X71662Y6640D01*
X71651Y6607D01*
X71635Y6563D01*
X71624Y6509D01*
X71613Y6449D01*
X71608Y6383D01*
X71602Y6312D01*
Y6307D01*
Y6285D01*
Y6257D01*
X71608Y6219D01*
X71613Y6176D01*
X71624Y6126D01*
X71651Y6023D01*
Y6017D01*
X71662Y6001D01*
X71673Y5968D01*
X71684Y5935D01*
X71706Y5892D01*
X71728Y5848D01*
X71788Y5744D01*
X71793Y5739D01*
X71804Y5722D01*
X71820Y5695D01*
X71842Y5662D01*
X71870Y5624D01*
X71902Y5575D01*
X71979Y5477D01*
X71984Y5471D01*
X71995Y5455D01*
X72017Y5428D01*
X72050Y5395D01*
X72083Y5357D01*
X72121Y5313D01*
X72203Y5215D01*
X73027Y4385D01*
X71460D01*
Y3975D01*
X73655D01*
Y4123D01*
Y3975D01*
X73595D01*
Y4319D01*
X72563Y5466D01*
X72558Y5471D01*
X72541Y5493D01*
X72514Y5520D01*
X72487Y5553D01*
X72416Y5641D01*
X72339Y5728D01*
X72334Y5733D01*
X72323Y5750D01*
X72306Y5771D01*
X72285Y5799D01*
X72235Y5870D01*
X72192Y5941D01*
Y5946D01*
X72181Y5957D01*
X72175Y5979D01*
X72159Y6001D01*
X72137Y6061D01*
X72115Y6121D01*
Y6126D01*
X72110Y6137D01*
Y6154D01*
X72104Y6176D01*
X72099Y6230D01*
X72093Y6296D01*
Y6301D01*
Y6312D01*
Y6334D01*
X72099Y6361D01*
X72110Y6421D01*
X72132Y6492D01*
Y6498D01*
X72137Y6509D01*
X72143Y6525D01*
X72154Y6552D01*
X72186Y6601D01*
X72230Y6656D01*
X72235Y6662D01*
X72241Y6667D01*
X72274Y6694D01*
X72323Y6733D01*
X72388Y6765D01*
X72394D01*
X72405Y6771D01*
X72426Y6782D01*
X72448Y6787D01*
X72481Y6798D01*
X72519Y6803D01*
X72601Y6809D01*
X72656D01*
X72689Y6803D01*
X72771Y6793D01*
X72852Y6765D01*
X72858D01*
X72869Y6760D01*
X72891Y6749D01*
X72913Y6738D01*
X72967Y6700D01*
X73027Y6651D01*
X73033Y6645D01*
X73038Y6640D01*
X73049Y6623D01*
X73065Y6601D01*
X73098Y6541D01*
X73131Y6465D01*
Y6459D01*
X73136Y6443D01*
X73142Y6421D01*
X73147Y6389D01*
X73153Y6345D01*
X73158Y6296D01*
X73164Y6236D01*
Y6170D01*
X73655D01*
Y4123D01*
Y6170D01*
Y6214D01*
X73650Y6257D01*
X73644Y6318D01*
X73639Y6389D01*
X73622Y6459D01*
X73606Y6531D01*
X73584Y6601D01*
X73579Y6612D01*
X73573Y6634D01*
X73557Y6667D01*
X73529Y6711D01*
X73502Y6760D01*
X73464Y6814D01*
X73426Y6869D01*
X73377Y6924D01*
X73371Y6929D01*
X73355Y6945D01*
X73322Y6973D01*
X73284Y7000D01*
X73235Y7038D01*
X73180Y7071D01*
X73120Y7104D01*
X73049Y7136D01*
X73038Y7142D01*
X73016Y7147D01*
X72973Y7164D01*
X72918Y7180D01*
X72852Y7191D01*
X72776Y7208D01*
X72694Y7213D01*
X72601Y7218D01*
X73655D01*
D02*
G37*
G36*
X77848Y7224D02*
X76789D01*
X77805D01*
X77761Y7218D01*
X77695Y7213D01*
X77630Y7202D01*
X77553Y7186D01*
X77477Y7164D01*
X77401Y7136D01*
X77390Y7131D01*
X77368Y7120D01*
X77330Y7098D01*
X77286Y7071D01*
X77231Y7038D01*
X77177Y6989D01*
X77122Y6940D01*
X77068Y6880D01*
X77062Y6875D01*
X77046Y6853D01*
X77018Y6814D01*
X76991Y6771D01*
X76958Y6711D01*
X76920Y6640D01*
X76887Y6563D01*
X76860Y6476D01*
X76855Y6465D01*
X76849Y6432D01*
X76838Y6389D01*
X76822Y6323D01*
X76811Y6241D01*
X76800Y6154D01*
X76794Y6050D01*
X76789Y5941D01*
Y3937D01*
Y5160D01*
X76794Y5100D01*
X76800Y5029D01*
X76806Y4942D01*
X76816Y4854D01*
X76838Y4761D01*
X76860Y4669D01*
X76866Y4658D01*
X76871Y4630D01*
X76887Y4587D01*
X76915Y4532D01*
X76942Y4467D01*
X76975Y4401D01*
X77018Y4330D01*
X77068Y4265D01*
X77073Y4259D01*
X77089Y4237D01*
X77117Y4210D01*
X77155Y4172D01*
X77204Y4134D01*
X77259Y4090D01*
X77324Y4052D01*
X77395Y4019D01*
X77406Y4013D01*
X77428Y4008D01*
X77472Y3992D01*
X77526Y3981D01*
X77592Y3964D01*
X77668Y3948D01*
X77750Y3943D01*
X77843Y3937D01*
X77886D01*
X77930Y3943D01*
X77990Y3948D01*
X78061Y3959D01*
X78138Y3970D01*
X78214Y3992D01*
X78291Y4019D01*
X78302Y4024D01*
X78323Y4035D01*
X78356Y4052D01*
X78405Y4079D01*
X78454Y4117D01*
X78509Y4155D01*
X78564Y4205D01*
X78618Y4265D01*
X78624Y4270D01*
X78640Y4292D01*
X78667Y4330D01*
X78695Y4374D01*
X78727Y4434D01*
X78766Y4499D01*
X78798Y4581D01*
X78831Y4663D01*
Y4669D01*
X78837Y4674D01*
X78842Y4707D01*
X78853Y4756D01*
X78864Y4822D01*
X78880Y4903D01*
X78891Y4996D01*
X78897Y5100D01*
X78902Y5209D01*
Y4024D01*
Y5990D01*
X78897Y6050D01*
X78891Y6121D01*
X78886Y6208D01*
X78869Y6296D01*
X78853Y6389D01*
X78831Y6481D01*
Y6487D01*
X78826Y6492D01*
X78820Y6520D01*
X78804Y6563D01*
X78777Y6618D01*
X78749Y6683D01*
X78711Y6749D01*
X78673Y6814D01*
X78624Y6880D01*
X78618Y6885D01*
X78596Y6907D01*
X78569Y6940D01*
X78531Y6978D01*
X78482Y7016D01*
X78427Y7060D01*
X78362Y7098D01*
X78291Y7136D01*
X78280Y7142D01*
X78258Y7153D01*
X78214Y7164D01*
X78159Y7180D01*
X78094Y7197D01*
X78023Y7213D01*
X77936Y7218D01*
X77848Y7224D01*
D02*
G37*
G36*
X105705Y7175D02*
X103439D01*
X103510D01*
X104602Y5766D01*
X103439Y3975D01*
X104962D01*
X103991D01*
X104913Y5422D01*
X105208Y5056D01*
Y3975D01*
X105705D01*
Y7175D01*
D02*
G37*
G36*
X97685D02*
X96898D01*
X96865Y7169D01*
X96827D01*
X96740Y7158D01*
X96636Y7142D01*
X96532Y7126D01*
X96423Y7098D01*
X96320Y7060D01*
X96314D01*
X96309Y7055D01*
X96276Y7038D01*
X96227Y7016D01*
X96161Y6984D01*
X96090Y6940D01*
X96019Y6885D01*
X95943Y6825D01*
X95872Y6754D01*
X95861Y6743D01*
X95839Y6722D01*
X95806Y6678D01*
X95768Y6623D01*
X95719Y6552D01*
X95675Y6476D01*
X95626Y6383D01*
X95588Y6285D01*
Y6279D01*
X95582Y6274D01*
X95577Y6257D01*
X95572Y6236D01*
X95555Y6181D01*
X95539Y6110D01*
X95522Y6023D01*
X95506Y5919D01*
X95495Y5810D01*
X95490Y5690D01*
Y5406D01*
X95495Y5340D01*
X95500Y5264D01*
X95511Y5171D01*
X95533Y5067D01*
X95555Y4964D01*
X95588Y4860D01*
Y4854D01*
X95593Y4849D01*
X95604Y4816D01*
X95626Y4761D01*
X95659Y4701D01*
X95702Y4625D01*
X95746Y4549D01*
X95806Y4467D01*
X95872Y4390D01*
X95877Y4379D01*
X95904Y4357D01*
X95943Y4325D01*
X95997Y4281D01*
X96057Y4232D01*
X96134Y4177D01*
X96221Y4128D01*
X96320Y4084D01*
X96325D01*
X96330Y4079D01*
X96347Y4073D01*
X96363Y4068D01*
X96418Y4052D01*
X96494Y4030D01*
X96582Y4008D01*
X96685Y3992D01*
X96794Y3981D01*
X96920Y3975D01*
X95490D01*
X97685D01*
Y7175D01*
D02*
G37*
%LPD*%
G36*
X92751Y11014D02*
X92806Y11009D01*
X92866Y10998D01*
X92937Y10971D01*
X93008Y10938D01*
X93073Y10889D01*
X93134Y10823D01*
X93139Y10812D01*
X93155Y10785D01*
X93177Y10741D01*
X93199Y10681D01*
X93226Y10599D01*
X93248Y10496D01*
X93265Y10375D01*
X93270Y10239D01*
Y9540D01*
X92145Y10446D01*
Y10452D01*
Y10457D01*
X92151Y10490D01*
X92162Y10539D01*
X92178Y10599D01*
X92200Y10670D01*
X92233Y10741D01*
X92265Y10807D01*
X92315Y10867D01*
X92320Y10872D01*
X92342Y10889D01*
X92369Y10916D01*
X92413Y10943D01*
X92473Y10971D01*
X92538Y10998D01*
X92615Y11014D01*
X92708Y11020D01*
X92719D01*
X92751Y11014D01*
D02*
G37*
G36*
X93259Y9103D02*
Y9098D01*
Y9092D01*
X93254Y9060D01*
X93243Y9010D01*
X93226Y8956D01*
X93205Y8890D01*
X93172Y8819D01*
X93134Y8754D01*
X93090Y8694D01*
X93085Y8688D01*
X93063Y8672D01*
X93030Y8645D01*
X92986Y8623D01*
X92932Y8596D01*
X92866Y8568D01*
X92790Y8552D01*
X92702Y8546D01*
X92675D01*
X92653Y8552D01*
X92604Y8557D01*
X92538Y8574D01*
X92473Y8596D01*
X92402Y8628D01*
X92331Y8677D01*
X92276Y8743D01*
X92271Y8754D01*
X92255Y8781D01*
X92233Y8830D01*
X92205Y8896D01*
X92184Y8978D01*
X92162Y9081D01*
X92145Y9201D01*
X92140Y9338D01*
Y10010D01*
X93259Y9103D01*
D02*
G37*
G36*
X91654Y9311D02*
X91659Y9240D01*
X91665Y9152D01*
X91676Y9065D01*
X91698Y8972D01*
X91719Y8879D01*
X91725Y8868D01*
X91730Y8841D01*
X91747Y8798D01*
X91774Y8743D01*
X91801Y8677D01*
X91834Y8612D01*
X91878Y8541D01*
X91927Y8475D01*
X91932Y8470D01*
X91949Y8448D01*
X91976Y8421D01*
X92014Y8382D01*
X92063Y8344D01*
X92118Y8301D01*
X92184Y8262D01*
X92255Y8230D01*
X92265Y8224D01*
X92287Y8219D01*
X92331Y8202D01*
X92386Y8191D01*
X92451Y8175D01*
X92528Y8159D01*
X92609Y8153D01*
X92702Y8148D01*
X91649D01*
Y9371D01*
X91654Y9311D01*
D02*
G37*
G36*
X90065Y11014D02*
X90120Y11009D01*
X90180Y10998D01*
X90251Y10971D01*
X90322Y10938D01*
X90387Y10889D01*
X90447Y10823D01*
X90453Y10812D01*
X90469Y10785D01*
X90491Y10741D01*
X90513Y10681D01*
X90540Y10599D01*
X90562Y10496D01*
X90578Y10375D01*
X90584Y10239D01*
Y9540D01*
X89459Y10446D01*
Y10452D01*
Y10457D01*
X89464Y10490D01*
X89475Y10539D01*
X89492Y10599D01*
X89514Y10670D01*
X89546Y10741D01*
X89579Y10807D01*
X89628Y10867D01*
X89634Y10872D01*
X89656Y10889D01*
X89683Y10916D01*
X89727Y10943D01*
X89787Y10971D01*
X89852Y10998D01*
X89929Y11014D01*
X90021Y11020D01*
X90032D01*
X90065Y11014D01*
D02*
G37*
G36*
X90573Y9103D02*
Y9098D01*
Y9092D01*
X90567Y9060D01*
X90557Y9010D01*
X90540Y8956D01*
X90518Y8890D01*
X90486Y8819D01*
X90447Y8754D01*
X90404Y8694D01*
X90398Y8688D01*
X90376Y8672D01*
X90343Y8645D01*
X90300Y8623D01*
X90245Y8596D01*
X90180Y8568D01*
X90103Y8552D01*
X90016Y8546D01*
X89989D01*
X89967Y8552D01*
X89918Y8557D01*
X89852Y8574D01*
X89787Y8596D01*
X89716Y8628D01*
X89645Y8677D01*
X89590Y8743D01*
X89585Y8754D01*
X89568Y8781D01*
X89546Y8830D01*
X89519Y8896D01*
X89497Y8978D01*
X89475Y9081D01*
X89459Y9201D01*
X89454Y9338D01*
Y10010D01*
X90573Y9103D01*
D02*
G37*
G36*
X88968Y9311D02*
X88973Y9240D01*
X88978Y9152D01*
X88989Y9065D01*
X89011Y8972D01*
X89033Y8879D01*
X89039Y8868D01*
X89044Y8841D01*
X89060Y8798D01*
X89088Y8743D01*
X89115Y8677D01*
X89148Y8612D01*
X89192Y8541D01*
X89241Y8475D01*
X89246Y8470D01*
X89262Y8448D01*
X89290Y8421D01*
X89328Y8382D01*
X89377Y8344D01*
X89432Y8301D01*
X89497Y8262D01*
X89568Y8230D01*
X89579Y8224D01*
X89601Y8219D01*
X89645Y8202D01*
X89699Y8191D01*
X89765Y8175D01*
X89841Y8159D01*
X89923Y8153D01*
X90016Y8148D01*
X88962D01*
Y9371D01*
X88968Y9311D01*
D02*
G37*
G36*
X95454Y9895D02*
X95509Y9889D01*
X95574Y9868D01*
X95580D01*
X95591Y9862D01*
X95607Y9857D01*
X95629Y9846D01*
X95678Y9824D01*
X95738Y9786D01*
X95744D01*
X95749Y9775D01*
X95782Y9747D01*
X95825Y9709D01*
X95875Y9655D01*
Y9649D01*
X95885Y9644D01*
X95891Y9627D01*
X95907Y9606D01*
X95935Y9556D01*
X95962Y9491D01*
Y9365D01*
Y9354D01*
Y9333D01*
Y9294D01*
X95956Y9245D01*
X95951Y9191D01*
X95946Y9131D01*
X95918Y9010D01*
Y9005D01*
X95907Y8983D01*
X95896Y8956D01*
X95885Y8923D01*
X95842Y8836D01*
X95793Y8754D01*
X95787Y8748D01*
X95776Y8737D01*
X95760Y8721D01*
X95738Y8699D01*
X95683Y8650D01*
X95612Y8606D01*
X95607D01*
X95596Y8601D01*
X95574Y8590D01*
X95547Y8585D01*
X95481Y8563D01*
X95405Y8557D01*
X95383D01*
X95361Y8563D01*
X95328D01*
X95258Y8579D01*
X95181Y8606D01*
X95176D01*
X95165Y8617D01*
X95148Y8628D01*
X95121Y8639D01*
X95072Y8683D01*
X95017Y8737D01*
X95012Y8743D01*
X95006Y8754D01*
X94995Y8770D01*
X94979Y8798D01*
X94963Y8830D01*
X94941Y8863D01*
X94914Y8950D01*
Y8956D01*
X94908Y8972D01*
X94903Y8999D01*
X94892Y9032D01*
X94886Y9070D01*
X94881Y9120D01*
X94875Y9223D01*
Y9229D01*
Y9245D01*
Y9273D01*
X94881Y9305D01*
Y9343D01*
X94886Y9387D01*
X94908Y9475D01*
Y9480D01*
X94914Y9496D01*
X94919Y9518D01*
X94930Y9551D01*
X94963Y9622D01*
X95006Y9693D01*
X95012Y9698D01*
X95017Y9709D01*
X95034Y9726D01*
X95050Y9747D01*
X95105Y9797D01*
X95170Y9840D01*
X95176Y9846D01*
X95187Y9851D01*
X95208Y9862D01*
X95236Y9873D01*
X95268Y9884D01*
X95307Y9889D01*
X95350Y9900D01*
X95432D01*
X95454Y9895D01*
D02*
G37*
G36*
X79740Y9846D02*
X79101D01*
X79074Y9851D01*
X79014Y9862D01*
X78938Y9884D01*
X78932D01*
X78921Y9889D01*
X78899Y9900D01*
X78872Y9917D01*
X78812Y9950D01*
X78752Y9999D01*
X78746Y10004D01*
X78736Y10010D01*
X78725Y10026D01*
X78703Y10048D01*
X78665Y10102D01*
X78626Y10168D01*
Y10173D01*
X78621Y10184D01*
X78610Y10206D01*
X78605Y10239D01*
X78594Y10272D01*
X78588Y10310D01*
X78583Y10403D01*
Y10408D01*
Y10425D01*
Y10452D01*
X78588Y10479D01*
X78599Y10556D01*
X78626Y10638D01*
Y10643D01*
X78632Y10654D01*
X78643Y10676D01*
X78659Y10703D01*
X78697Y10758D01*
X78752Y10818D01*
X78757Y10823D01*
X78763Y10829D01*
X78779Y10845D01*
X78801Y10861D01*
X78861Y10900D01*
X78938Y10932D01*
X78943D01*
X78954Y10938D01*
X78981Y10943D01*
X79009Y10954D01*
X79041Y10960D01*
X79085Y10965D01*
X79178Y10976D01*
X79740D01*
Y9846D01*
D02*
G37*
G36*
X88566Y5089D02*
X88637Y5084D01*
X88719Y5073D01*
X88806Y5056D01*
X88888Y5034D01*
X88959Y5002D01*
X88965Y4996D01*
X88987Y4985D01*
X89014Y4964D01*
X89047Y4931D01*
X89079Y4893D01*
X89107Y4843D01*
X89129Y4783D01*
X89134Y4712D01*
Y4707D01*
Y4701D01*
X89129Y4669D01*
X89123Y4620D01*
X89107Y4570D01*
X89101Y4559D01*
X89085Y4532D01*
X89063Y4499D01*
X89030Y4461D01*
X89020Y4456D01*
X88998Y4434D01*
X88954Y4412D01*
X88905Y4390D01*
X88899D01*
X88888Y4385D01*
X88872Y4379D01*
X88850D01*
X88796Y4368D01*
X88719Y4363D01*
X88681D01*
X88654Y4368D01*
X88588Y4374D01*
X88517Y4390D01*
X88512D01*
X88501Y4396D01*
X88484Y4401D01*
X88457Y4412D01*
X88402Y4434D01*
X88342Y4461D01*
X88337D01*
X88332Y4472D01*
X88299Y4494D01*
X88255Y4527D01*
X88211Y4570D01*
X88206Y4576D01*
X88200Y4581D01*
X88179Y4609D01*
X88151Y4641D01*
X88124Y4680D01*
Y5094D01*
X88506D01*
X88566Y5089D01*
D02*
G37*
G36*
X89620Y3937D02*
X88806D01*
X88845Y3943D01*
X88894D01*
X88949Y3948D01*
X89009Y3959D01*
X89129Y3986D01*
X89134D01*
X89156Y3997D01*
X89183Y4008D01*
X89216Y4024D01*
X89303Y4073D01*
X89391Y4139D01*
X89396Y4144D01*
X89407Y4155D01*
X89429Y4177D01*
X89451Y4205D01*
X89478Y4237D01*
X89505Y4276D01*
X89560Y4368D01*
Y4374D01*
X89571Y4390D01*
X89576Y4417D01*
X89587Y4456D01*
X89598Y4499D01*
X89609Y4549D01*
X89615Y4598D01*
X89620Y4658D01*
Y3937D01*
D02*
G37*
G36*
X88113Y4194D02*
X88119Y4177D01*
X88135Y4161D01*
X88151Y4139D01*
X88179Y4117D01*
X88184D01*
X88195Y4106D01*
X88211Y4095D01*
X88233Y4084D01*
X88288Y4052D01*
X88353Y4019D01*
X88359D01*
X88370Y4013D01*
X88386Y4008D01*
X88408Y3997D01*
X88473Y3975D01*
X88550Y3959D01*
X88555D01*
X88566Y3953D01*
X88588D01*
X88615Y3948D01*
X88648Y3943D01*
X88686D01*
X88774Y3937D01*
X87556D01*
Y3975D01*
X88042D01*
Y3981D01*
X88048Y3986D01*
X88064Y4019D01*
X88080Y4063D01*
X88097Y4117D01*
Y4123D01*
Y4128D01*
X88102Y4155D01*
X88108Y4194D01*
Y4216D01*
X88113Y4194D01*
D02*
G37*
G36*
X94004Y6001D02*
X94070Y5990D01*
X94146Y5963D01*
X94152D01*
X94163Y5957D01*
X94179Y5946D01*
X94207Y5935D01*
X94261Y5897D01*
X94327Y5848D01*
X94332Y5843D01*
X94337Y5837D01*
X94354Y5815D01*
X94370Y5793D01*
X94392Y5766D01*
X94414Y5733D01*
X94463Y5651D01*
Y5646D01*
X94474Y5630D01*
X94480Y5608D01*
X94490Y5581D01*
X94518Y5509D01*
X94539Y5428D01*
X93382D01*
X93388Y5449D01*
X93393Y5482D01*
X93409Y5548D01*
X93431Y5630D01*
Y5635D01*
X93437Y5646D01*
X93442Y5668D01*
X93453Y5695D01*
X93486Y5755D01*
X93529Y5821D01*
X93535Y5826D01*
X93540Y5837D01*
X93557Y5848D01*
X93573Y5870D01*
X93628Y5908D01*
X93699Y5952D01*
X93704D01*
X93715Y5963D01*
X93737Y5968D01*
X93770Y5979D01*
X93802Y5990D01*
X93846Y5995D01*
X93939Y6006D01*
X93977D01*
X94004Y6001D01*
D02*
G37*
G36*
X86835Y4401D02*
X86049D01*
Y5946D01*
X86835D01*
Y4401D01*
D02*
G37*
G36*
X92268Y4772D02*
Y3937D01*
X91274D01*
X91318Y3943D01*
X91378D01*
X91444Y3953D01*
X91520Y3964D01*
X91591Y3975D01*
X91668Y3997D01*
X91679Y4002D01*
X91700Y4008D01*
X91733Y4024D01*
X91782Y4046D01*
X91831Y4068D01*
X91886Y4101D01*
X91995Y4172D01*
X92001Y4177D01*
X92017Y4194D01*
X92039Y4216D01*
X92072Y4243D01*
X92104Y4281D01*
X92137Y4325D01*
X92170Y4374D01*
X92197Y4423D01*
X92203Y4428D01*
X92208Y4450D01*
X92219Y4483D01*
X92230Y4521D01*
X92246Y4576D01*
X92257Y4630D01*
X92263Y4701D01*
X92268Y4772D01*
D01*
D01*
D01*
D02*
G37*
G36*
X102325Y3937D02*
X102003D01*
X102020Y3943D01*
X102074Y3948D01*
X102123Y3959D01*
X102134Y3964D01*
X102162Y3975D01*
X102194Y3997D01*
X102233Y4030D01*
X102238Y4041D01*
X102260Y4063D01*
X102282Y4095D01*
X102304Y4139D01*
Y4144D01*
X102309Y4150D01*
X102315Y4183D01*
X102320Y4226D01*
X102325Y4276D01*
Y3937D01*
D02*
G37*
G36*
X77892Y6803D02*
X77947Y6798D01*
X78007Y6787D01*
X78078Y6760D01*
X78149Y6727D01*
X78214Y6678D01*
X78274Y6612D01*
X78280Y6601D01*
X78296Y6574D01*
X78318Y6531D01*
X78340Y6470D01*
X78367Y6389D01*
X78389Y6285D01*
X78405Y6165D01*
X78411Y6028D01*
Y5329D01*
X77286Y6236D01*
Y6241D01*
Y6247D01*
X77291Y6279D01*
X77302Y6329D01*
X77319Y6389D01*
X77341Y6459D01*
X77373Y6531D01*
X77406Y6596D01*
X77455Y6656D01*
X77461Y6662D01*
X77482Y6678D01*
X77510Y6705D01*
X77553Y6733D01*
X77614Y6760D01*
X77679Y6787D01*
X77755Y6803D01*
X77848Y6809D01*
X77859D01*
X77892Y6803D01*
D02*
G37*
G36*
X78400Y4893D02*
Y4887D01*
Y4882D01*
X78394Y4849D01*
X78383Y4800D01*
X78367Y4745D01*
X78345Y4679D01*
X78312Y4609D01*
X78274Y4543D01*
X78231Y4483D01*
X78225Y4478D01*
X78203Y4461D01*
X78171Y4434D01*
X78127Y4412D01*
X78072Y4385D01*
X78007Y4357D01*
X77930Y4341D01*
X77843Y4336D01*
X77816D01*
X77794Y4341D01*
X77745Y4346D01*
X77679Y4363D01*
X77614Y4385D01*
X77543Y4417D01*
X77472Y4467D01*
X77417Y4532D01*
X77412Y4543D01*
X77395Y4570D01*
X77373Y4620D01*
X77346Y4685D01*
X77324Y4767D01*
X77302Y4871D01*
X77286Y4991D01*
X77280Y5127D01*
Y5799D01*
X78400Y4893D01*
D02*
G37*
G36*
X105208Y5657D02*
X105001Y5963D01*
X104062Y7175D01*
X105208D01*
Y5657D01*
D02*
G37*
G36*
X97188Y4385D02*
X96838D01*
X96800Y4390D01*
X96751Y4396D01*
X96696Y4407D01*
X96631Y4417D01*
X96565Y4439D01*
X96500Y4467D01*
X96494Y4472D01*
X96472Y4483D01*
X96440Y4499D01*
X96396Y4527D01*
X96352Y4559D01*
X96303Y4598D01*
X96254Y4641D01*
X96210Y4690D01*
X96205Y4696D01*
X96194Y4718D01*
X96172Y4745D01*
X96145Y4789D01*
X96118Y4838D01*
X96090Y4893D01*
X96063Y4958D01*
X96041Y5029D01*
X96036Y5040D01*
X96030Y5062D01*
X96019Y5105D01*
X96008Y5160D01*
X95997Y5226D01*
X95992Y5297D01*
X95981Y5378D01*
Y5460D01*
Y5690D01*
Y5701D01*
Y5728D01*
X95986Y5772D01*
Y5832D01*
X95997Y5897D01*
X96008Y5968D01*
X96019Y6039D01*
X96041Y6115D01*
Y6126D01*
X96052Y6148D01*
X96063Y6186D01*
X96085Y6230D01*
X96107Y6285D01*
X96134Y6339D01*
X96172Y6400D01*
X96210Y6454D01*
X96216Y6459D01*
X96232Y6476D01*
X96254Y6503D01*
X96287Y6536D01*
X96330Y6569D01*
X96380Y6607D01*
X96440Y6645D01*
X96500Y6678D01*
X96505Y6683D01*
X96532Y6689D01*
X96565Y6705D01*
X96620Y6722D01*
X96680Y6738D01*
X96751Y6749D01*
X96833Y6760D01*
X96920Y6765D01*
X97188D01*
Y4385D01*
D02*
G37*
M02*
