G04*
G04 #@! TF.GenerationSoftware,Altium Limited,Altium Designer,22.4.2 (48)*
G04*
G04 Layer_Physical_Order=2*
G04 Layer_Color=16711680*
%FSLAX25Y25*%
%MOIN*%
G70*
G04*
G04 #@! TF.SameCoordinates,3B532130-91F3-4BA7-A02C-12DA98C8FE5B*
G04*
G04*
G04 #@! TF.FilePolarity,Positive*
G04*
G01*
G75*
G04:AMPARAMS|DCode=12|XSize=90.55mil|YSize=47.24mil|CornerRadius=11.81mil|HoleSize=0mil|Usage=FLASHONLY|Rotation=0.000|XOffset=0mil|YOffset=0mil|HoleType=Round|Shape=RoundedRectangle|*
%AMROUNDEDRECTD12*
21,1,0.09055,0.02362,0,0,0.0*
21,1,0.06693,0.04724,0,0,0.0*
1,1,0.02362,0.03347,-0.01181*
1,1,0.02362,-0.03347,-0.01181*
1,1,0.02362,-0.03347,0.01181*
1,1,0.02362,0.03347,0.01181*
%
%ADD12ROUNDEDRECTD12*%
%ADD13C,0.02000*%
D12*
X172638Y25197D02*
D03*
Y39370D02*
D03*
Y32283D02*
D03*
Y11024D02*
D03*
Y3937D02*
D03*
Y18110D02*
D03*
X4528D02*
D03*
Y3937D02*
D03*
Y11024D02*
D03*
Y32283D02*
D03*
Y39370D02*
D03*
Y25197D02*
D03*
D13*
X175197Y39370D02*
D03*
X170079D02*
D03*
X175197Y32283D02*
D03*
X170079D02*
D03*
X175197Y25197D02*
D03*
X170079D02*
D03*
X175197Y18110D02*
D03*
X170079D02*
D03*
X175197Y11024D02*
D03*
X170079D02*
D03*
X175197Y3937D02*
D03*
X170079D02*
D03*
X7087D02*
D03*
X1969D02*
D03*
X7087Y11024D02*
D03*
X1969D02*
D03*
X7087Y18110D02*
D03*
X1969D02*
D03*
X7087Y25197D02*
D03*
X1969D02*
D03*
X7087Y32283D02*
D03*
X1969D02*
D03*
Y39370D02*
D03*
X7087D02*
D03*
M02*
