M48
;Layer_Color=9474304
;FILE_FORMAT=2:5
INCH,LZ
;TYPE=PLATED
T1F00S00C0.01000
%
T01
X0001969Y0003937
X0007087
Y0011024
X0001969
Y001811
X0007087
Y0025197
X0001969
Y0032283
X0007087
Y003937
X0001969
X0170079
X0175197
Y0032283
X0170079
Y0025197
X0175197
Y001811
X0170079
Y0011024
X0175197
Y0003937
X0170079
M30
