G04*
G04 #@! TF.GenerationSoftware,Altium Limited,Altium Designer,22.4.2 (48)*
G04*
G04 Layer_Color=65535*
%FSLAX25Y25*%
%MOIN*%
G70*
G04*
G04 #@! TF.SameCoordinates,3B532130-91F3-4BA7-A02C-12DA98C8FE5B*
G04*
G04*
G04 #@! TF.FilePolarity,Positive*
G04*
G01*
G75*
G36*
X88864Y40095D02*
X89322D01*
Y40057D01*
X89474D01*
Y40019D01*
X89703D01*
Y39981D01*
X89817D01*
Y39942D01*
X90008D01*
Y39904D01*
X90122D01*
Y39866D01*
X90237D01*
Y39828D01*
X90351D01*
Y39790D01*
X90465D01*
Y39752D01*
X90580D01*
Y39714D01*
X90656D01*
Y39676D01*
X90732D01*
Y39638D01*
X90847D01*
Y39599D01*
X90923D01*
Y39561D01*
X90999D01*
Y39523D01*
X91075D01*
Y39485D01*
X91152D01*
Y39447D01*
X91228D01*
Y39409D01*
X91304D01*
Y39371D01*
X91380D01*
Y39333D01*
X91419D01*
Y39294D01*
X91495D01*
Y39256D01*
X91571D01*
Y39218D01*
X91609D01*
Y39180D01*
X91685D01*
Y39142D01*
X91724D01*
Y39104D01*
X91800D01*
Y39066D01*
X91838D01*
Y39028D01*
X91914D01*
Y38989D01*
X91952D01*
Y38951D01*
X91990D01*
Y38913D01*
X92067D01*
Y38875D01*
X92105D01*
Y38837D01*
X92143D01*
Y38799D01*
X92181D01*
Y38761D01*
X92219D01*
Y38722D01*
X92295D01*
Y38684D01*
X92334D01*
Y38646D01*
X92372D01*
Y38608D01*
X92410D01*
Y38570D01*
X92448D01*
Y38532D01*
X92486D01*
Y38494D01*
Y38456D01*
X92524D01*
Y38418D01*
X92562D01*
Y38379D01*
X92600D01*
Y38341D01*
Y38303D01*
X92638D01*
Y38265D01*
X92677D01*
Y38227D01*
Y38189D01*
X92715D01*
Y38151D01*
Y38113D01*
X92753D01*
Y38074D01*
Y38036D01*
Y37998D01*
Y37960D01*
X92791D01*
Y37922D01*
Y37884D01*
Y37846D01*
Y37808D01*
Y37769D01*
Y37731D01*
Y37693D01*
Y37655D01*
Y37617D01*
X92753D01*
Y37579D01*
Y37541D01*
Y37503D01*
Y37464D01*
X92715D01*
Y37426D01*
Y37388D01*
Y37350D01*
Y37312D01*
X92677D01*
Y37274D01*
Y37236D01*
X92638D01*
Y37198D01*
Y37159D01*
Y37121D01*
X92600D01*
Y37083D01*
Y37045D01*
Y37007D01*
X92562D01*
Y36969D01*
Y36931D01*
Y36893D01*
X92524D01*
Y36854D01*
Y36816D01*
Y36778D01*
Y36740D01*
X92486D01*
Y36702D01*
Y36664D01*
Y36626D01*
X92448D01*
Y36588D01*
Y36549D01*
Y36511D01*
X92410D01*
Y36473D01*
Y36435D01*
Y36397D01*
X92372D01*
Y36359D01*
Y36321D01*
Y36283D01*
X92334D01*
Y36244D01*
Y36206D01*
Y36168D01*
X92295D01*
Y36130D01*
Y36092D01*
Y36054D01*
Y36016D01*
X92257D01*
Y35978D01*
Y35939D01*
Y35901D01*
X92219D01*
Y35863D01*
Y35825D01*
Y35787D01*
X92181D01*
Y35749D01*
Y35711D01*
Y35673D01*
X92143D01*
Y35634D01*
Y35596D01*
Y35558D01*
X92105D01*
Y35520D01*
Y35482D01*
Y35444D01*
X92067D01*
Y35406D01*
Y35368D01*
Y35329D01*
Y35291D01*
X92028D01*
Y35253D01*
Y35215D01*
Y35177D01*
X91990D01*
Y35139D01*
Y35101D01*
Y35063D01*
X91952D01*
Y35024D01*
Y34986D01*
Y34948D01*
X91914D01*
Y34910D01*
Y34872D01*
Y34834D01*
X91876D01*
Y34796D01*
Y34758D01*
Y34719D01*
X91838D01*
Y34681D01*
Y34643D01*
Y34605D01*
Y34567D01*
X91800D01*
Y34529D01*
Y34491D01*
Y34453D01*
X91762D01*
Y34414D01*
Y34376D01*
Y34338D01*
X91724D01*
Y34300D01*
Y34262D01*
Y34224D01*
Y34186D01*
X91685D01*
Y34148D01*
Y34109D01*
Y34071D01*
X91647D01*
Y34033D01*
Y33995D01*
Y33957D01*
X91609D01*
Y33919D01*
Y33881D01*
Y33843D01*
X91571D01*
Y33804D01*
Y33766D01*
Y33728D01*
X91533D01*
Y33690D01*
Y33652D01*
Y33614D01*
X91495D01*
Y33576D01*
Y33538D01*
Y33499D01*
Y33461D01*
X91457D01*
Y33423D01*
Y33385D01*
Y33347D01*
X91419D01*
Y33309D01*
Y33271D01*
X91380D01*
Y33233D01*
Y33194D01*
Y33156D01*
X91342D01*
Y33118D01*
Y33080D01*
X91304D01*
Y33042D01*
Y33004D01*
X91266D01*
Y32966D01*
Y32928D01*
X91228D01*
Y32889D01*
Y32851D01*
X91190D01*
Y32813D01*
Y32775D01*
X91152D01*
Y32737D01*
X91114D01*
Y32699D01*
X91075D01*
Y32661D01*
Y32623D01*
X91037D01*
Y32584D01*
X90999D01*
Y32546D01*
X90961D01*
Y32508D01*
X90923D01*
Y32470D01*
X90847D01*
Y32432D01*
X90809D01*
Y32394D01*
X90770D01*
Y32356D01*
X90694D01*
Y32318D01*
X90618D01*
Y32279D01*
X90542D01*
Y32241D01*
X90465D01*
Y32203D01*
X90389D01*
Y32165D01*
X90313D01*
Y32127D01*
X90199D01*
Y32089D01*
X90084D01*
Y32051D01*
X89970D01*
Y32013D01*
X89855D01*
Y31974D01*
X89665D01*
Y31936D01*
X89551D01*
Y31898D01*
X89284D01*
Y31860D01*
X88750D01*
Y31822D01*
X88635D01*
Y31860D01*
X88140D01*
Y31898D01*
X87911D01*
Y31936D01*
X87759D01*
Y31974D01*
X87606D01*
Y32013D01*
X87530D01*
Y32051D01*
X87415D01*
Y32089D01*
X87301D01*
Y32127D01*
X87225D01*
Y32165D01*
X87149D01*
Y32203D01*
X87072D01*
Y32241D01*
X87034D01*
Y32279D01*
X86958D01*
Y32318D01*
X86882D01*
Y32356D01*
X86844D01*
Y32394D01*
X86805D01*
Y32432D01*
X86767D01*
Y32470D01*
X86729D01*
Y32508D01*
X86691D01*
Y32546D01*
X86653D01*
Y32584D01*
X86615D01*
Y32623D01*
X86577D01*
Y32661D01*
X86539D01*
Y32699D01*
X86501D01*
Y32737D01*
X86462D01*
Y32775D01*
Y32813D01*
X86424D01*
Y32851D01*
X86386D01*
Y32889D01*
Y32928D01*
X86348D01*
Y32966D01*
Y33004D01*
X86310D01*
Y33042D01*
X86272D01*
Y33080D01*
Y33118D01*
X86234D01*
Y33156D01*
Y33194D01*
X86195D01*
Y33233D01*
Y33271D01*
X86157D01*
Y33309D01*
Y33347D01*
X86119D01*
Y33385D01*
Y33423D01*
Y33461D01*
X86081D01*
Y33499D01*
Y33538D01*
X86043D01*
Y33576D01*
Y33614D01*
X86005D01*
Y33652D01*
Y33690D01*
X85967D01*
Y33728D01*
Y33766D01*
Y33804D01*
X85929D01*
Y33843D01*
Y33881D01*
X85891D01*
Y33919D01*
Y33957D01*
Y33995D01*
X85852D01*
Y34033D01*
Y34071D01*
Y34109D01*
X85814D01*
Y34148D01*
Y34186D01*
X85776D01*
Y34224D01*
Y34262D01*
X85738D01*
Y34300D01*
Y34338D01*
Y34376D01*
X85700D01*
Y34414D01*
Y34453D01*
X85662D01*
Y34491D01*
Y34529D01*
Y34567D01*
X85624D01*
Y34605D01*
Y34643D01*
X85585D01*
Y34681D01*
Y34719D01*
Y34758D01*
X85547D01*
Y34796D01*
Y34834D01*
X85509D01*
Y34872D01*
Y34910D01*
Y34948D01*
X85471D01*
Y34986D01*
Y35024D01*
X85433D01*
Y35063D01*
Y35101D01*
Y35139D01*
X85395D01*
Y35177D01*
Y35215D01*
Y35253D01*
X85357D01*
Y35291D01*
Y35329D01*
X85319D01*
Y35368D01*
Y35406D01*
X85281D01*
Y35444D01*
Y35482D01*
Y35520D01*
X85242D01*
Y35558D01*
Y35596D01*
X85204D01*
Y35634D01*
Y35673D01*
Y35711D01*
X85166D01*
Y35749D01*
Y35787D01*
X85128D01*
Y35825D01*
Y35863D01*
Y35901D01*
X85090D01*
Y35939D01*
Y35978D01*
X85052D01*
Y36016D01*
Y36054D01*
Y36092D01*
X85014D01*
Y36130D01*
Y36168D01*
X84975D01*
Y36206D01*
Y36244D01*
Y36283D01*
X84937D01*
Y36321D01*
Y36359D01*
X84899D01*
Y36397D01*
Y36435D01*
X84861D01*
Y36473D01*
Y36511D01*
Y36549D01*
X84823D01*
Y36588D01*
Y36626D01*
X84785D01*
Y36664D01*
Y36702D01*
Y36740D01*
X84747D01*
Y36778D01*
Y36816D01*
Y36854D01*
X84709D01*
Y36893D01*
Y36931D01*
X84671D01*
Y36969D01*
Y37007D01*
Y37045D01*
X84632D01*
Y37083D01*
Y37121D01*
X84594D01*
Y37159D01*
Y37198D01*
Y37236D01*
X84556D01*
Y37274D01*
Y37312D01*
X84518D01*
Y37350D01*
Y37388D01*
Y37426D01*
X84480D01*
Y37464D01*
Y37503D01*
Y37541D01*
Y37579D01*
X84442D01*
Y37617D01*
Y37655D01*
Y37693D01*
X84404D01*
Y37731D01*
Y37769D01*
Y37808D01*
Y37846D01*
Y37884D01*
Y37922D01*
Y37960D01*
Y37998D01*
Y38036D01*
Y38074D01*
Y38113D01*
Y38151D01*
X84442D01*
Y38189D01*
Y38227D01*
Y38265D01*
X84480D01*
Y38303D01*
Y38341D01*
X84518D01*
Y38379D01*
Y38418D01*
X84556D01*
Y38456D01*
X84594D01*
Y38494D01*
Y38532D01*
X84632D01*
Y38570D01*
X84671D01*
Y38608D01*
X84709D01*
Y38646D01*
X84747D01*
Y38684D01*
X84785D01*
Y38722D01*
X84823D01*
Y38761D01*
X84861D01*
Y38799D01*
X84899D01*
Y38837D01*
X84937D01*
Y38875D01*
X84975D01*
Y38913D01*
X85052D01*
Y38951D01*
X85090D01*
Y38989D01*
X85128D01*
Y39028D01*
X85204D01*
Y39066D01*
X85242D01*
Y39104D01*
X85319D01*
Y39142D01*
X85357D01*
Y39180D01*
X85433D01*
Y39218D01*
X85509D01*
Y39256D01*
X85547D01*
Y39294D01*
X85624D01*
Y39333D01*
X85700D01*
Y39371D01*
X85776D01*
Y39409D01*
X85852D01*
Y39447D01*
X85929D01*
Y39485D01*
X86005D01*
Y39523D01*
X86081D01*
Y39561D01*
X86157D01*
Y39599D01*
X86234D01*
Y39638D01*
X86348D01*
Y39676D01*
X86462D01*
Y39714D01*
X86539D01*
Y39752D01*
X86653D01*
Y39790D01*
X86767D01*
Y39828D01*
X86882D01*
Y39866D01*
X87034D01*
Y39904D01*
X87149D01*
Y39942D01*
X87339D01*
Y39981D01*
X87454D01*
Y40019D01*
X87682D01*
Y40057D01*
X87873D01*
Y40095D01*
X88331D01*
Y40133D01*
X88864D01*
Y40095D01*
D02*
G37*
G36*
X93630Y37579D02*
X93744D01*
Y37541D01*
X93858D01*
Y37503D01*
X93935D01*
Y37464D01*
X94049D01*
Y37426D01*
X94125D01*
Y37388D01*
X94240D01*
Y37350D01*
X94316D01*
Y37312D01*
X94430D01*
Y37274D01*
X94507D01*
Y37236D01*
X94583D01*
Y37198D01*
X94659D01*
Y37159D01*
X94735D01*
Y37121D01*
X94850D01*
Y37083D01*
X94888D01*
Y37045D01*
X94964D01*
Y37007D01*
X95040D01*
Y36969D01*
X95117D01*
Y36931D01*
X95193D01*
Y36893D01*
X95231D01*
Y36854D01*
X95307D01*
Y36816D01*
X95384D01*
Y36778D01*
X95422D01*
Y36740D01*
X95460D01*
Y36702D01*
X95536D01*
Y36664D01*
X95574D01*
Y36626D01*
X95612D01*
Y36588D01*
X95650D01*
Y36549D01*
X95688D01*
Y36511D01*
X95727D01*
Y36473D01*
X95765D01*
Y36435D01*
X95803D01*
Y36397D01*
Y36359D01*
X95841D01*
Y36321D01*
Y36283D01*
X95879D01*
Y36244D01*
Y36206D01*
X95917D01*
Y36168D01*
Y36130D01*
Y36092D01*
Y36054D01*
Y36016D01*
Y35978D01*
Y35939D01*
Y35901D01*
Y35863D01*
Y35825D01*
Y35787D01*
Y35749D01*
Y35711D01*
Y35673D01*
X95879D01*
Y35634D01*
Y35596D01*
Y35558D01*
Y35520D01*
X95841D01*
Y35482D01*
Y35444D01*
X95803D01*
Y35406D01*
Y35368D01*
Y35329D01*
X95765D01*
Y35291D01*
Y35253D01*
Y35215D01*
X95727D01*
Y35177D01*
Y35139D01*
X95688D01*
Y35101D01*
Y35063D01*
X95650D01*
Y35024D01*
Y34986D01*
Y34948D01*
X95612D01*
Y34910D01*
Y34872D01*
X95574D01*
Y34834D01*
Y34796D01*
X95536D01*
Y34758D01*
Y34719D01*
X95498D01*
Y34681D01*
Y34643D01*
X95460D01*
Y34605D01*
Y34567D01*
X95422D01*
Y34529D01*
X95384D01*
Y34491D01*
Y34453D01*
X95345D01*
Y34414D01*
X95307D01*
Y34376D01*
Y34338D01*
X95269D01*
Y34300D01*
Y34262D01*
X95231D01*
Y34224D01*
X95193D01*
Y34186D01*
Y34148D01*
X95155D01*
Y34109D01*
Y34071D01*
X95117D01*
Y34033D01*
X95078D01*
Y33995D01*
Y33957D01*
X95040D01*
Y33919D01*
Y33881D01*
X95002D01*
Y33843D01*
X94964D01*
Y33804D01*
Y33766D01*
X94926D01*
Y33728D01*
X94888D01*
Y33690D01*
Y33652D01*
X94850D01*
Y33614D01*
Y33576D01*
X94812D01*
Y33538D01*
X94774D01*
Y33499D01*
Y33461D01*
X94735D01*
Y33423D01*
Y33385D01*
X94697D01*
Y33347D01*
X94659D01*
Y33309D01*
Y33271D01*
X94621D01*
Y33233D01*
X94583D01*
Y33194D01*
Y33156D01*
X94545D01*
Y33118D01*
Y33080D01*
X94507D01*
Y33042D01*
X94468D01*
Y33004D01*
Y32966D01*
X94430D01*
Y32928D01*
X94392D01*
Y32889D01*
Y32851D01*
X94354D01*
Y32813D01*
X94316D01*
Y32775D01*
Y32737D01*
X94278D01*
Y32699D01*
X94240D01*
Y32661D01*
Y32623D01*
X94202D01*
Y32584D01*
X94164D01*
Y32546D01*
Y32508D01*
X94125D01*
Y32470D01*
X94087D01*
Y32432D01*
Y32394D01*
X94049D01*
Y32356D01*
X94011D01*
Y32318D01*
Y32279D01*
X93973D01*
Y32241D01*
X93935D01*
Y32203D01*
X93897D01*
Y32165D01*
Y32127D01*
X93858D01*
Y32089D01*
X93820D01*
Y32051D01*
X93782D01*
Y32013D01*
X93744D01*
Y31974D01*
Y31936D01*
X93706D01*
Y31898D01*
X93668D01*
Y31860D01*
X93630D01*
Y31822D01*
X93592D01*
Y31784D01*
X93515D01*
Y31746D01*
X93477D01*
Y31708D01*
X93439D01*
Y31669D01*
X93363D01*
Y31631D01*
X93287D01*
Y31593D01*
X92791D01*
Y31631D01*
X92638D01*
Y31669D01*
X92524D01*
Y31708D01*
X92410D01*
Y31746D01*
X92334D01*
Y31784D01*
X92219D01*
Y31822D01*
X92143D01*
Y31860D01*
X92028D01*
Y31898D01*
X91952D01*
Y31936D01*
X91876D01*
Y31974D01*
X91762D01*
Y32013D01*
X91685D01*
Y32051D01*
X91609D01*
Y32089D01*
X91647D01*
Y32127D01*
X91685D01*
Y32165D01*
X91724D01*
Y32203D01*
X91762D01*
Y32241D01*
Y32279D01*
X91800D01*
Y32318D01*
X91838D01*
Y32356D01*
X91876D01*
Y32394D01*
Y32432D01*
X91914D01*
Y32470D01*
Y32508D01*
X91952D01*
Y32546D01*
Y32584D01*
X91990D01*
Y32623D01*
Y32661D01*
X92028D01*
Y32699D01*
Y32737D01*
X92067D01*
Y32775D01*
Y32813D01*
X92105D01*
Y32851D01*
Y32889D01*
X92143D01*
Y32928D01*
Y32966D01*
Y33004D01*
X92181D01*
Y33042D01*
Y33080D01*
Y33118D01*
X92219D01*
Y33156D01*
Y33194D01*
Y33233D01*
X92257D01*
Y33271D01*
Y33309D01*
Y33347D01*
X92295D01*
Y33385D01*
Y33423D01*
Y33461D01*
X92334D01*
Y33499D01*
Y33538D01*
Y33576D01*
Y33614D01*
X92372D01*
Y33652D01*
Y33690D01*
X92410D01*
Y33728D01*
Y33766D01*
Y33804D01*
Y33843D01*
X92448D01*
Y33881D01*
Y33919D01*
Y33957D01*
X92486D01*
Y33995D01*
Y34033D01*
Y34071D01*
X92524D01*
Y34109D01*
Y34148D01*
Y34186D01*
Y34224D01*
X92562D01*
Y34262D01*
Y34300D01*
X92600D01*
Y34338D01*
Y34376D01*
Y34414D01*
Y34453D01*
X92638D01*
Y34491D01*
Y34529D01*
X92677D01*
Y34567D01*
Y34605D01*
Y34643D01*
Y34681D01*
X92715D01*
Y34719D01*
Y34758D01*
Y34796D01*
X92753D01*
Y34834D01*
Y34872D01*
Y34910D01*
X92791D01*
Y34948D01*
Y34986D01*
Y35024D01*
Y35063D01*
X92829D01*
Y35101D01*
Y35139D01*
X92867D01*
Y35177D01*
Y35215D01*
Y35253D01*
Y35291D01*
X92905D01*
Y35329D01*
Y35368D01*
Y35406D01*
X92944D01*
Y35444D01*
Y35482D01*
Y35520D01*
X92982D01*
Y35558D01*
Y35596D01*
Y35634D01*
Y35673D01*
X93020D01*
Y35711D01*
Y35749D01*
X93058D01*
Y35787D01*
Y35825D01*
Y35863D01*
Y35901D01*
X93096D01*
Y35939D01*
Y35978D01*
Y36016D01*
X93134D01*
Y36054D01*
Y36092D01*
Y36130D01*
X93172D01*
Y36168D01*
Y36206D01*
Y36244D01*
X93210D01*
Y36283D01*
Y36321D01*
Y36359D01*
X93248D01*
Y36397D01*
Y36435D01*
Y36473D01*
Y36511D01*
X93287D01*
Y36549D01*
Y36588D01*
Y36626D01*
X93325D01*
Y36664D01*
Y36702D01*
Y36740D01*
X93363D01*
Y36778D01*
Y36816D01*
Y36854D01*
X93401D01*
Y36893D01*
Y36931D01*
Y36969D01*
X93439D01*
Y37007D01*
Y37045D01*
Y37083D01*
X93477D01*
Y37121D01*
Y37159D01*
Y37198D01*
X93515D01*
Y37236D01*
Y37274D01*
Y37312D01*
Y37350D01*
X93554D01*
Y37388D01*
Y37426D01*
Y37464D01*
Y37503D01*
X93592D01*
Y37541D01*
Y37579D01*
Y37617D01*
X93630D01*
Y37579D01*
D02*
G37*
G36*
X83641Y37426D02*
Y37388D01*
X83679D01*
Y37350D01*
Y37312D01*
Y37274D01*
X83717D01*
Y37236D01*
Y37198D01*
Y37159D01*
X83755D01*
Y37121D01*
Y37083D01*
Y37045D01*
X83794D01*
Y37007D01*
Y36969D01*
Y36931D01*
X83832D01*
Y36893D01*
Y36854D01*
X83870D01*
Y36816D01*
Y36778D01*
Y36740D01*
X83908D01*
Y36702D01*
Y36664D01*
X83946D01*
Y36626D01*
Y36588D01*
Y36549D01*
X83984D01*
Y36511D01*
Y36473D01*
X84022D01*
Y36435D01*
Y36397D01*
Y36359D01*
X84061D01*
Y36321D01*
Y36283D01*
X84099D01*
Y36244D01*
Y36206D01*
Y36168D01*
X84137D01*
Y36130D01*
Y36092D01*
X84175D01*
Y36054D01*
Y36016D01*
Y35978D01*
X84213D01*
Y35939D01*
Y35901D01*
X84251D01*
Y35863D01*
Y35825D01*
Y35787D01*
X84289D01*
Y35749D01*
Y35711D01*
X84327D01*
Y35673D01*
Y35634D01*
X84365D01*
Y35596D01*
Y35558D01*
Y35520D01*
X84404D01*
Y35482D01*
Y35444D01*
Y35406D01*
X84442D01*
Y35368D01*
Y35329D01*
X84480D01*
Y35291D01*
Y35253D01*
X84518D01*
Y35215D01*
Y35177D01*
Y35139D01*
X84556D01*
Y35101D01*
Y35063D01*
X84594D01*
Y35024D01*
Y34986D01*
Y34948D01*
X84632D01*
Y34910D01*
Y34872D01*
X84671D01*
Y34834D01*
Y34796D01*
Y34758D01*
X84709D01*
Y34719D01*
Y34681D01*
X84747D01*
Y34643D01*
Y34605D01*
Y34567D01*
X84785D01*
Y34529D01*
Y34491D01*
X84823D01*
Y34453D01*
Y34414D01*
Y34376D01*
X84861D01*
Y34338D01*
Y34300D01*
X84899D01*
Y34262D01*
Y34224D01*
Y34186D01*
X84937D01*
Y34148D01*
Y34109D01*
X84975D01*
Y34071D01*
Y34033D01*
Y33995D01*
X85014D01*
Y33957D01*
Y33919D01*
X85052D01*
Y33881D01*
Y33843D01*
Y33804D01*
X85090D01*
Y33766D01*
Y33728D01*
X85128D01*
Y33690D01*
Y33652D01*
Y33614D01*
X85166D01*
Y33576D01*
Y33538D01*
X85204D01*
Y33499D01*
Y33461D01*
Y33423D01*
X85242D01*
Y33385D01*
Y33347D01*
X85281D01*
Y33309D01*
Y33271D01*
X85319D01*
Y33233D01*
Y33194D01*
Y33156D01*
X85357D01*
Y33118D01*
Y33080D01*
X85395D01*
Y33042D01*
Y33004D01*
X85433D01*
Y32966D01*
Y32928D01*
X85471D01*
Y32889D01*
Y32851D01*
X85509D01*
Y32813D01*
Y32775D01*
X85547D01*
Y32737D01*
Y32699D01*
X85585D01*
Y32661D01*
Y32623D01*
X85624D01*
Y32584D01*
Y32546D01*
X85662D01*
Y32508D01*
X85700D01*
Y32470D01*
Y32432D01*
X85738D01*
Y32394D01*
X85776D01*
Y32356D01*
Y32318D01*
X85814D01*
Y32279D01*
X85852D01*
Y32241D01*
X85891D01*
Y32203D01*
X85929D01*
Y32165D01*
Y32127D01*
X85967D01*
Y32089D01*
X86005D01*
Y32051D01*
X85967D01*
Y32013D01*
X85891D01*
Y31974D01*
X85776D01*
Y31936D01*
X85700D01*
Y31898D01*
X85585D01*
Y31860D01*
X85509D01*
Y31822D01*
X85395D01*
Y31784D01*
X85281D01*
Y31746D01*
X85204D01*
Y31708D01*
X85052D01*
Y31669D01*
X84937D01*
Y31631D01*
X84785D01*
Y31593D01*
X84594D01*
Y31555D01*
X84061D01*
Y31593D01*
X83946D01*
Y31631D01*
X83870D01*
Y31669D01*
X83794D01*
Y31708D01*
X83755D01*
Y31746D01*
X83679D01*
Y31784D01*
X83641D01*
Y31822D01*
X83603D01*
Y31860D01*
X83565D01*
Y31898D01*
X83527D01*
Y31936D01*
X83489D01*
Y31974D01*
X83451D01*
Y32013D01*
X83412D01*
Y32051D01*
X83374D01*
Y32089D01*
X83336D01*
Y32127D01*
X83298D01*
Y32165D01*
X83260D01*
Y32203D01*
Y32241D01*
X83222D01*
Y32279D01*
X83184D01*
Y32318D01*
X83145D01*
Y32356D01*
X83107D01*
Y32394D01*
Y32432D01*
X83069D01*
Y32470D01*
X83031D01*
Y32508D01*
X82993D01*
Y32546D01*
Y32584D01*
X82955D01*
Y32623D01*
Y32661D01*
X82917D01*
Y32699D01*
Y32737D01*
X82879D01*
Y32775D01*
Y32813D01*
X82841D01*
Y32851D01*
X82802D01*
Y32889D01*
Y32928D01*
X82764D01*
Y32966D01*
Y33004D01*
X82726D01*
Y33042D01*
Y33080D01*
X82688D01*
Y33118D01*
Y33156D01*
X82650D01*
Y33194D01*
X82612D01*
Y33233D01*
Y33271D01*
X82574D01*
Y33309D01*
Y33347D01*
X82535D01*
Y33385D01*
Y33423D01*
X82497D01*
Y33461D01*
Y33499D01*
X82459D01*
Y33538D01*
Y33576D01*
X82421D01*
Y33614D01*
Y33652D01*
X82383D01*
Y33690D01*
X82345D01*
Y33728D01*
Y33766D01*
X82307D01*
Y33804D01*
Y33843D01*
X82269D01*
Y33881D01*
Y33919D01*
X82231D01*
Y33957D01*
Y33995D01*
X82192D01*
Y34033D01*
X82154D01*
Y34071D01*
Y34109D01*
X82116D01*
Y34148D01*
Y34186D01*
X82078D01*
Y34224D01*
Y34262D01*
X82040D01*
Y34300D01*
Y34338D01*
X82002D01*
Y34376D01*
X81964D01*
Y34414D01*
Y34453D01*
X81925D01*
Y34491D01*
Y34529D01*
X81887D01*
Y34567D01*
Y34605D01*
X81849D01*
Y34643D01*
Y34681D01*
X81811D01*
Y34719D01*
Y34758D01*
X81773D01*
Y34796D01*
Y34834D01*
X81735D01*
Y34872D01*
X81697D01*
Y34910D01*
Y34948D01*
X81659D01*
Y34986D01*
Y35024D01*
X81621D01*
Y35063D01*
Y35101D01*
X81582D01*
Y35139D01*
Y35177D01*
X81544D01*
Y35215D01*
X81506D01*
Y35253D01*
Y35291D01*
X81468D01*
Y35329D01*
Y35368D01*
X81430D01*
Y35406D01*
Y35444D01*
X81392D01*
Y35482D01*
Y35520D01*
X81354D01*
Y35558D01*
Y35596D01*
X81315D01*
Y35634D01*
Y35673D01*
Y35711D01*
X81277D01*
Y35749D01*
Y35787D01*
X81239D01*
Y35825D01*
Y35863D01*
Y35901D01*
Y35939D01*
Y35978D01*
Y36016D01*
Y36054D01*
Y36092D01*
X81277D01*
Y36130D01*
Y36168D01*
X81315D01*
Y36206D01*
Y36244D01*
X81354D01*
Y36283D01*
X81392D01*
Y36321D01*
X81430D01*
Y36359D01*
X81468D01*
Y36397D01*
X81506D01*
Y36435D01*
X81544D01*
Y36473D01*
X81621D01*
Y36511D01*
X81659D01*
Y36549D01*
X81735D01*
Y36588D01*
X81773D01*
Y36626D01*
X81849D01*
Y36664D01*
X81925D01*
Y36702D01*
X81964D01*
Y36740D01*
X82040D01*
Y36778D01*
X82116D01*
Y36816D01*
X82192D01*
Y36854D01*
X82269D01*
Y36893D01*
X82307D01*
Y36931D01*
X82421D01*
Y36969D01*
X82497D01*
Y37007D01*
X82574D01*
Y37045D01*
X82650D01*
Y37083D01*
X82726D01*
Y37121D01*
X82841D01*
Y37159D01*
X82879D01*
Y37198D01*
X82993D01*
Y37236D01*
X83069D01*
Y37274D01*
X83184D01*
Y37312D01*
X83260D01*
Y37350D01*
X83336D01*
Y37388D01*
X83451D01*
Y37426D01*
X83527D01*
Y37464D01*
X83641D01*
Y37426D01*
D02*
G37*
G36*
X96337Y34491D02*
X96375D01*
Y34453D01*
X96451D01*
Y34414D01*
X96489D01*
Y34376D01*
X96527D01*
Y34338D01*
X96565D01*
Y34300D01*
X96604D01*
Y34262D01*
X96642D01*
Y34224D01*
X96680D01*
Y34186D01*
X96718D01*
Y34148D01*
X96756D01*
Y34109D01*
Y34071D01*
X96794D01*
Y34033D01*
X96832D01*
Y33995D01*
X96870D01*
Y33957D01*
X96908D01*
Y33919D01*
Y33881D01*
X96947D01*
Y33843D01*
X96985D01*
Y33804D01*
Y33766D01*
X97023D01*
Y33728D01*
X97061D01*
Y33690D01*
Y33652D01*
X97099D01*
Y33614D01*
Y33576D01*
X97137D01*
Y33538D01*
X97175D01*
Y33499D01*
Y33461D01*
X97214D01*
Y33423D01*
Y33385D01*
X97252D01*
Y33347D01*
Y33309D01*
X97290D01*
Y33271D01*
Y33233D01*
Y33194D01*
X97328D01*
Y33156D01*
Y33118D01*
X97366D01*
Y33080D01*
Y33042D01*
Y33004D01*
X97404D01*
Y32966D01*
Y32928D01*
Y32889D01*
X97442D01*
Y32851D01*
Y32813D01*
Y32775D01*
Y32737D01*
X97480D01*
Y32699D01*
Y32661D01*
Y32623D01*
Y32584D01*
X97518D01*
Y32546D01*
Y32508D01*
Y32470D01*
Y32432D01*
Y32394D01*
X97557D01*
Y32356D01*
Y32318D01*
Y32279D01*
Y32241D01*
Y32203D01*
Y32165D01*
Y32127D01*
Y32089D01*
Y32051D01*
X97595D01*
Y32013D01*
Y31974D01*
Y31936D01*
Y31898D01*
Y31860D01*
Y31822D01*
Y31784D01*
Y31746D01*
Y31708D01*
Y31669D01*
X97557D01*
Y31631D01*
Y31593D01*
Y31555D01*
Y31517D01*
Y31479D01*
Y31441D01*
Y31403D01*
Y31364D01*
X97518D01*
Y31326D01*
Y31288D01*
Y31250D01*
X97252D01*
Y31288D01*
X97137D01*
Y31326D01*
X97023D01*
Y31364D01*
X96908D01*
Y31403D01*
X96832D01*
Y31441D01*
X96718D01*
Y31479D01*
X96642D01*
Y31517D01*
X96527D01*
Y31555D01*
X96451D01*
Y31593D01*
X96337D01*
Y31631D01*
X96260D01*
Y31669D01*
X96184D01*
Y31708D01*
X96070D01*
Y31746D01*
X95994D01*
Y31784D01*
X95917D01*
Y31822D01*
X95803D01*
Y31860D01*
X95727D01*
Y31898D01*
X95612D01*
Y31936D01*
X95536D01*
Y31974D01*
X95422D01*
Y32013D01*
X95345D01*
Y32051D01*
X95269D01*
Y32089D01*
X95155D01*
Y32127D01*
X95078D01*
Y32165D01*
X94964D01*
Y32203D01*
X94926D01*
Y32241D01*
Y32279D01*
X94964D01*
Y32318D01*
X95002D01*
Y32356D01*
Y32394D01*
X95040D01*
Y32432D01*
X95078D01*
Y32470D01*
Y32508D01*
X95117D01*
Y32546D01*
X95155D01*
Y32584D01*
Y32623D01*
X95193D01*
Y32661D01*
X95231D01*
Y32699D01*
Y32737D01*
X95269D01*
Y32775D01*
Y32813D01*
X95307D01*
Y32851D01*
X95345D01*
Y32889D01*
Y32928D01*
X95384D01*
Y32966D01*
X95422D01*
Y33004D01*
Y33042D01*
X95460D01*
Y33080D01*
Y33118D01*
X95498D01*
Y33156D01*
X95536D01*
Y33194D01*
Y33233D01*
X95574D01*
Y33271D01*
X95612D01*
Y33309D01*
Y33347D01*
X95650D01*
Y33385D01*
Y33423D01*
X95688D01*
Y33461D01*
X95727D01*
Y33499D01*
Y33538D01*
X95765D01*
Y33576D01*
Y33614D01*
X95803D01*
Y33652D01*
X95841D01*
Y33690D01*
Y33728D01*
X95879D01*
Y33766D01*
Y33804D01*
X95917D01*
Y33843D01*
X95955D01*
Y33881D01*
Y33919D01*
X95994D01*
Y33957D01*
Y33995D01*
X96032D01*
Y34033D01*
X96070D01*
Y34071D01*
Y34109D01*
X96108D01*
Y34148D01*
X96146D01*
Y34186D01*
Y34224D01*
X96184D01*
Y34262D01*
Y34300D01*
X96222D01*
Y34338D01*
Y34376D01*
X96260D01*
Y34414D01*
Y34453D01*
X96298D01*
Y34491D01*
Y34529D01*
X96337D01*
Y34491D01*
D02*
G37*
G36*
X81049Y34414D02*
Y34376D01*
X81087D01*
Y34338D01*
Y34300D01*
X81125D01*
Y34262D01*
X81163D01*
Y34224D01*
Y34186D01*
X81201D01*
Y34148D01*
Y34109D01*
X81239D01*
Y34071D01*
Y34033D01*
X81277D01*
Y33995D01*
Y33957D01*
X81315D01*
Y33919D01*
Y33881D01*
X81354D01*
Y33843D01*
X81392D01*
Y33804D01*
Y33766D01*
X81430D01*
Y33728D01*
Y33690D01*
X81468D01*
Y33652D01*
Y33614D01*
X81506D01*
Y33576D01*
Y33538D01*
X81544D01*
Y33499D01*
X81582D01*
Y33461D01*
Y33423D01*
X81621D01*
Y33385D01*
Y33347D01*
X81659D01*
Y33309D01*
Y33271D01*
X81697D01*
Y33233D01*
Y33194D01*
X81735D01*
Y33156D01*
Y33118D01*
X81773D01*
Y33080D01*
X81811D01*
Y33042D01*
Y33004D01*
X81849D01*
Y32966D01*
Y32928D01*
X81887D01*
Y32889D01*
Y32851D01*
X81925D01*
Y32813D01*
Y32775D01*
X81964D01*
Y32737D01*
Y32699D01*
X82002D01*
Y32661D01*
X82040D01*
Y32623D01*
Y32584D01*
X82078D01*
Y32546D01*
Y32508D01*
X82116D01*
Y32470D01*
Y32432D01*
X82154D01*
Y32394D01*
Y32356D01*
X82192D01*
Y32318D01*
X82231D01*
Y32279D01*
Y32241D01*
X82269D01*
Y32203D01*
Y32165D01*
X82307D01*
Y32127D01*
Y32089D01*
X82345D01*
Y32051D01*
X82269D01*
Y32013D01*
X82192D01*
Y31974D01*
X82078D01*
Y31936D01*
X82002D01*
Y31898D01*
X81925D01*
Y31860D01*
X81811D01*
Y31822D01*
X81735D01*
Y31784D01*
X81621D01*
Y31746D01*
X81544D01*
Y31708D01*
X81468D01*
Y31669D01*
X81354D01*
Y31631D01*
X81277D01*
Y31593D01*
X81201D01*
Y31555D01*
X81087D01*
Y31517D01*
X81011D01*
Y31479D01*
X80934D01*
Y31441D01*
X80820D01*
Y31403D01*
X80744D01*
Y31364D01*
X80629D01*
Y31326D01*
X80553D01*
Y31288D01*
X80439D01*
Y31250D01*
X80324D01*
Y31212D01*
X80210D01*
Y31174D01*
X80057D01*
Y31136D01*
X79943D01*
Y31174D01*
Y31212D01*
X79905D01*
Y31250D01*
Y31288D01*
Y31326D01*
X79867D01*
Y31364D01*
Y31403D01*
Y31441D01*
Y31479D01*
Y31517D01*
Y31555D01*
Y31593D01*
X79829D01*
Y31631D01*
Y31669D01*
Y31708D01*
Y31746D01*
Y31784D01*
Y31822D01*
Y31860D01*
Y31898D01*
Y31936D01*
Y31974D01*
Y32013D01*
Y32051D01*
Y32089D01*
Y32127D01*
X79867D01*
Y32165D01*
Y32203D01*
Y32241D01*
Y32279D01*
Y32318D01*
Y32356D01*
Y32394D01*
Y32432D01*
Y32470D01*
X79905D01*
Y32508D01*
Y32546D01*
Y32584D01*
Y32623D01*
X79943D01*
Y32661D01*
Y32699D01*
Y32737D01*
Y32775D01*
Y32813D01*
X79981D01*
Y32851D01*
Y32889D01*
Y32928D01*
X80019D01*
Y32966D01*
Y33004D01*
Y33042D01*
X80057D01*
Y33080D01*
Y33118D01*
Y33156D01*
X80096D01*
Y33194D01*
Y33233D01*
X80134D01*
Y33271D01*
Y33309D01*
X80172D01*
Y33347D01*
Y33385D01*
X80210D01*
Y33423D01*
Y33461D01*
X80248D01*
Y33499D01*
Y33538D01*
X80286D01*
Y33576D01*
Y33614D01*
X80324D01*
Y33652D01*
Y33690D01*
X80362D01*
Y33728D01*
X80401D01*
Y33766D01*
Y33804D01*
X80439D01*
Y33843D01*
X80477D01*
Y33881D01*
X80515D01*
Y33919D01*
Y33957D01*
X80553D01*
Y33995D01*
X80591D01*
Y34033D01*
X80629D01*
Y34071D01*
X80667D01*
Y34109D01*
X80705D01*
Y34148D01*
Y34186D01*
X80744D01*
Y34224D01*
X80782D01*
Y34262D01*
X80820D01*
Y34300D01*
X80896D01*
Y34338D01*
Y34376D01*
X80972D01*
Y34414D01*
X81011D01*
Y34453D01*
X81049D01*
Y34414D01*
D02*
G37*
G36*
X107416Y7864D02*
Y3543D01*
X69749D01*
Y7864D01*
Y11828D01*
X107416D01*
Y7864D01*
D02*
G37*
%LPC*%
G36*
X101695Y11429D02*
Y9207D01*
X101214D01*
X101204Y9147D01*
X101193Y9087D01*
X101182Y9038D01*
X101171Y8999D01*
X101160Y8961D01*
X101154Y8940D01*
X101143Y8923D01*
Y8918D01*
X101105Y8841D01*
X101067Y8776D01*
X101051Y8754D01*
X101034Y8737D01*
X101029Y8726D01*
X101023Y8721D01*
X100969Y8666D01*
X100909Y8623D01*
X100887Y8612D01*
X100865Y8601D01*
X100854Y8590D01*
X100849D01*
X100767Y8563D01*
X100685Y8552D01*
X100652Y8546D01*
X100597D01*
X100505Y8552D01*
X100461Y8563D01*
X100428Y8568D01*
X100401Y8579D01*
X100379Y8585D01*
X100368Y8590D01*
X100363D01*
X100297Y8628D01*
X100242Y8666D01*
X100221Y8677D01*
X100204Y8694D01*
X100199Y8699D01*
X100193Y8705D01*
X100144Y8765D01*
X100106Y8819D01*
X100095Y8847D01*
X100084Y8863D01*
X100073Y8874D01*
Y8879D01*
X100040Y8956D01*
X100013Y9027D01*
X100002Y9054D01*
X99997Y9076D01*
X99991Y9092D01*
Y9098D01*
X99970Y9180D01*
X99953Y9256D01*
X99948Y9283D01*
Y9305D01*
X99942Y9322D01*
Y9327D01*
X99937Y9414D01*
Y9458D01*
X99931Y9491D01*
Y9524D01*
Y9545D01*
Y9562D01*
Y9567D01*
Y10004D01*
Y10091D01*
X99937Y10130D01*
Y10168D01*
Y10195D01*
X99942Y10217D01*
Y10233D01*
Y10239D01*
X99959Y10326D01*
X99964Y10364D01*
X99975Y10403D01*
X99980Y10430D01*
X99986Y10452D01*
X99991Y10468D01*
Y10474D01*
X100019Y10556D01*
X100046Y10621D01*
X100057Y10648D01*
X100068Y10670D01*
X100073Y10681D01*
Y10687D01*
X100111Y10758D01*
X100150Y10812D01*
X100166Y10834D01*
X100182Y10851D01*
X100188Y10856D01*
X100193Y10861D01*
X100248Y10910D01*
X100303Y10949D01*
X100330Y10960D01*
X100346Y10971D01*
X100357Y10976D01*
X100363D01*
X100444Y11003D01*
X100521Y11014D01*
X100548Y11020D01*
X100597D01*
X100696Y11014D01*
X100739Y11003D01*
X100772Y10998D01*
X100805Y10987D01*
X100827Y10976D01*
X100838Y10971D01*
X100843D01*
X100920Y10927D01*
X100974Y10883D01*
X100996Y10867D01*
X101012Y10851D01*
X101018Y10840D01*
X101023Y10834D01*
X101072Y10769D01*
X101111Y10703D01*
X101127Y10676D01*
X101138Y10654D01*
X101143Y10638D01*
Y10632D01*
X101176Y10539D01*
X101198Y10446D01*
X101204Y10408D01*
X101209Y10375D01*
X101214Y10354D01*
Y10348D01*
X101695D01*
X101684Y10446D01*
X101668Y10534D01*
X101651Y10616D01*
X101635Y10681D01*
X101613Y10736D01*
X101602Y10780D01*
X101591Y10801D01*
X101586Y10812D01*
X101553Y10883D01*
X101515Y10943D01*
X101477Y10998D01*
X101444Y11047D01*
X101411Y11085D01*
X101384Y11118D01*
X101367Y11134D01*
X101362Y11140D01*
X101307Y11189D01*
X101253Y11233D01*
X101198Y11265D01*
X101143Y11298D01*
X101100Y11320D01*
X101061Y11336D01*
X101040Y11347D01*
X101029Y11353D01*
X100958Y11380D01*
X100881Y11396D01*
X100810Y11413D01*
X100739Y11418D01*
X100685Y11424D01*
X100636Y11429D01*
X100526D01*
X100455Y11418D01*
X100395Y11413D01*
X100341Y11402D01*
X100292Y11391D01*
X100259Y11380D01*
X100237Y11375D01*
X100232Y11369D01*
X100117Y11320D01*
X100068Y11293D01*
X100024Y11271D01*
X99986Y11249D01*
X99959Y11227D01*
X99942Y11216D01*
X99937Y11211D01*
X99849Y11134D01*
X99811Y11096D01*
X99778Y11058D01*
X99757Y11025D01*
X99735Y10998D01*
X99724Y10982D01*
X99718Y10976D01*
X99653Y10872D01*
X99625Y10823D01*
X99604Y10780D01*
X99587Y10741D01*
X99571Y10708D01*
X99566Y10687D01*
X99560Y10681D01*
X99522Y10561D01*
X99505Y10507D01*
X99494Y10457D01*
X99484Y10414D01*
X99478Y10381D01*
X99473Y10359D01*
Y10354D01*
X99456Y10228D01*
X99451Y10168D01*
X99445Y10113D01*
Y10070D01*
X99440Y10037D01*
Y9567D01*
X99445Y9436D01*
X99451Y9376D01*
X99456Y9322D01*
X99462Y9278D01*
X99467Y9245D01*
X99473Y9218D01*
Y9212D01*
X99500Y9092D01*
X99516Y9032D01*
X99533Y8983D01*
X99544Y8945D01*
X99555Y8912D01*
X99566Y8890D01*
Y8885D01*
X99615Y8770D01*
X99642Y8721D01*
X99664Y8677D01*
X99686Y8639D01*
X99702Y8612D01*
X99713Y8596D01*
X99718Y8590D01*
X99789Y8497D01*
X99827Y8454D01*
X99860Y8421D01*
X99893Y8394D01*
X99915Y8372D01*
X99931Y8361D01*
X99937Y8355D01*
X100040Y8290D01*
X100090Y8262D01*
X100133Y8241D01*
X100171Y8224D01*
X100204Y8213D01*
X100226Y8202D01*
X100232D01*
X100357Y8170D01*
X100417Y8159D01*
X100477Y8153D01*
X100526D01*
X100565Y8148D01*
X99440D01*
X101695D01*
D01*
X100597D01*
X100685Y8153D01*
X100761Y8159D01*
X100838Y8170D01*
X100898Y8186D01*
X100952Y8197D01*
X100990Y8208D01*
X101012Y8213D01*
X101023Y8219D01*
X101094Y8246D01*
X101154Y8279D01*
X101214Y8317D01*
X101263Y8350D01*
X101302Y8377D01*
X101329Y8404D01*
X101351Y8421D01*
X101356Y8426D01*
X101406Y8481D01*
X101449Y8535D01*
X101487Y8590D01*
X101520Y8639D01*
X101548Y8683D01*
X101564Y8716D01*
X101575Y8743D01*
X101580Y8748D01*
X101613Y8819D01*
X101635Y8901D01*
X101657Y8978D01*
X101673Y9049D01*
X101684Y9109D01*
X101689Y9163D01*
X101695Y9196D01*
Y11429D01*
D02*
G37*
G36*
X84501Y11435D02*
X84458D01*
X84370Y11429D01*
X84283Y11424D01*
X84212Y11407D01*
X84146Y11391D01*
X84092Y11375D01*
X84048Y11364D01*
X84026Y11353D01*
X84015Y11347D01*
X83944Y11309D01*
X83879Y11271D01*
X83824Y11227D01*
X83775Y11189D01*
X83737Y11151D01*
X83710Y11118D01*
X83688Y11096D01*
X83682Y11091D01*
X83633Y11025D01*
X83595Y10960D01*
X83557Y10894D01*
X83529Y10829D01*
X83502Y10774D01*
X83486Y10730D01*
X83480Y10703D01*
X83475Y10698D01*
Y10692D01*
X83453Y10599D01*
X83437Y10507D01*
X83420Y10419D01*
X83415Y10332D01*
X83409Y10261D01*
X83404Y10201D01*
Y11435D01*
D01*
Y9420D01*
X83409Y9311D01*
X83415Y9207D01*
X83426Y9114D01*
X83442Y9032D01*
X83453Y8967D01*
X83464Y8918D01*
X83469Y8885D01*
X83475Y8879D01*
Y8874D01*
X83508Y8792D01*
X83540Y8710D01*
X83579Y8645D01*
X83611Y8585D01*
X83639Y8541D01*
X83666Y8503D01*
X83682Y8481D01*
X83688Y8475D01*
X83742Y8415D01*
X83797Y8366D01*
X83852Y8328D01*
X83901Y8290D01*
X83950Y8262D01*
X83983Y8246D01*
X84004Y8235D01*
X84015Y8230D01*
X84092Y8202D01*
X84168Y8180D01*
X84245Y8170D01*
X84316Y8159D01*
X84376Y8153D01*
X84419Y8148D01*
X83404D01*
X85517D01*
X84463D01*
X84556Y8153D01*
X84638Y8159D01*
X84714Y8175D01*
X84780Y8191D01*
X84834Y8202D01*
X84878Y8219D01*
X84900Y8224D01*
X84911Y8230D01*
X84982Y8262D01*
X85047Y8301D01*
X85102Y8344D01*
X85151Y8382D01*
X85189Y8421D01*
X85217Y8448D01*
X85233Y8470D01*
X85238Y8475D01*
X85288Y8541D01*
X85331Y8612D01*
X85364Y8677D01*
X85391Y8743D01*
X85419Y8798D01*
X85435Y8841D01*
X85440Y8868D01*
X85446Y8879D01*
X85468Y8972D01*
X85490Y9065D01*
X85501Y9152D01*
X85506Y9240D01*
X85511Y9311D01*
X85517Y9371D01*
Y10152D01*
X85511Y10261D01*
X85506Y10364D01*
X85495Y10452D01*
X85484Y10534D01*
X85468Y10599D01*
X85457Y10643D01*
X85451Y10676D01*
X85446Y10687D01*
X85419Y10774D01*
X85386Y10850D01*
X85348Y10921D01*
X85315Y10982D01*
X85288Y11025D01*
X85260Y11063D01*
X85244Y11085D01*
X85238Y11091D01*
X85184Y11151D01*
X85129Y11200D01*
X85075Y11249D01*
X85020Y11282D01*
X84976Y11309D01*
X84938Y11331D01*
X84916Y11342D01*
X84905Y11347D01*
X84829Y11375D01*
X84753Y11396D01*
X84676Y11413D01*
X84610Y11424D01*
X84545Y11429D01*
X84501Y11435D01*
D02*
G37*
G36*
X90906Y11385D02*
X88705D01*
Y8186D01*
Y10954D01*
X90393D01*
X89110Y8186D01*
X89601D01*
X90906Y11112D01*
Y9562D01*
Y11385D01*
D02*
G37*
G36*
X86090Y9092D02*
Y9087D01*
D01*
Y9092D01*
D02*
G37*
G36*
X83404Y8776D02*
Y8770D01*
D01*
Y8776D01*
D02*
G37*
G36*
Y8699D02*
Y8699D01*
D01*
Y8699D01*
D02*
G37*
G36*
Y8481D02*
D01*
D01*
D01*
D02*
G37*
G36*
Y8328D02*
Y8317D01*
D01*
Y8328D01*
D02*
G37*
G36*
X98004Y11385D02*
X96934D01*
Y8186D01*
X99069Y8186D01*
X97425Y8186D01*
Y9431D01*
X97988D01*
X98069Y9436D01*
X98146Y9442D01*
X98217Y9458D01*
X98277Y9469D01*
X98331Y9480D01*
X98370Y9491D01*
X98392Y9502D01*
X98403D01*
X98474Y9529D01*
X98539Y9556D01*
X98599Y9589D01*
X98648Y9622D01*
X98692Y9644D01*
X98719Y9666D01*
X98741Y9682D01*
X98747Y9687D01*
X98801Y9737D01*
X98850Y9786D01*
X98888Y9840D01*
X98921Y9889D01*
X98949Y9928D01*
X98965Y9966D01*
X98976Y9988D01*
X98981Y9993D01*
X99009Y10064D01*
X99030Y10135D01*
X99047Y10206D01*
X99058Y10266D01*
X99063Y10326D01*
X99069Y10370D01*
Y10408D01*
D01*
X99063Y10496D01*
X99058Y10572D01*
X99041Y10643D01*
X99025Y10703D01*
X99009Y10752D01*
X98998Y10790D01*
X98987Y10818D01*
X98981Y10823D01*
X98949Y10889D01*
X98910Y10949D01*
X98872Y10998D01*
X98834Y11042D01*
X98801Y11080D01*
X98774Y11107D01*
X98752Y11124D01*
X98747Y11129D01*
X98692Y11173D01*
X98632Y11211D01*
X98572Y11244D01*
X98517Y11271D01*
X98474Y11287D01*
X98435Y11304D01*
X98413Y11315D01*
X98403D01*
X98331Y11336D01*
X98255Y11353D01*
X98179Y11364D01*
X98108Y11375D01*
X98048Y11380D01*
X98004Y11385D01*
D02*
G37*
G36*
X96257D02*
X94247D01*
Y8186D01*
X96257D01*
X94744D01*
Y9562D01*
X96038D01*
Y9982D01*
X94744D01*
Y10960D01*
X96257D01*
Y11385D01*
D02*
G37*
G36*
X80161D02*
X78146D01*
Y8186D01*
X80161D01*
Y8606D01*
D01*
X78637D01*
Y11385D01*
X80161D01*
D02*
G37*
G36*
X76379D02*
X75460D01*
Y8186D01*
X77474D01*
Y8606D01*
D01*
X75951D01*
Y11385D01*
X76379D01*
D02*
G37*
G36*
X87188Y11435D02*
X86090D01*
X87144D01*
X87057Y11429D01*
X86969Y11424D01*
X86898Y11407D01*
X86833Y11391D01*
X86778Y11375D01*
X86734Y11364D01*
X86713Y11353D01*
X86702Y11347D01*
X86631Y11309D01*
X86565Y11271D01*
X86511Y11227D01*
X86462Y11189D01*
X86423Y11151D01*
X86396Y11118D01*
X86374Y11096D01*
X86369Y11091D01*
X86320Y11025D01*
X86281Y10960D01*
X86243Y10894D01*
X86216Y10829D01*
X86189Y10774D01*
X86172Y10730D01*
X86167Y10703D01*
X86161Y10698D01*
Y10692D01*
X86139Y10599D01*
X86123Y10507D01*
X86107Y10419D01*
X86101Y10332D01*
X86096Y10261D01*
X86090Y10201D01*
Y9420D01*
X86096Y9311D01*
X86101Y9207D01*
X86112Y9114D01*
X86128Y9032D01*
X86139Y8967D01*
X86150Y8918D01*
X86156Y8885D01*
X86161Y8879D01*
Y8874D01*
X86194Y8792D01*
X86227Y8710D01*
X86265Y8645D01*
X86298Y8585D01*
X86325Y8541D01*
X86352Y8503D01*
X86369Y8481D01*
X86374Y8475D01*
X86429Y8415D01*
X86483Y8366D01*
X86538Y8328D01*
X86587Y8290D01*
X86636Y8262D01*
X86669Y8246D01*
X86691Y8235D01*
X86702Y8230D01*
X86778Y8202D01*
X86855Y8180D01*
X86931Y8170D01*
X87002Y8159D01*
X87062Y8153D01*
X87106Y8148D01*
X86090D01*
X88203D01*
X87149D01*
X87242Y8153D01*
X87324Y8159D01*
X87401Y8175D01*
X87466Y8191D01*
X87521Y8202D01*
X87564Y8219D01*
X87586Y8224D01*
X87597Y8230D01*
X87668Y8262D01*
X87734Y8301D01*
X87788Y8344D01*
X87837Y8382D01*
X87876Y8421D01*
X87903Y8448D01*
X87919Y8470D01*
X87925Y8475D01*
X87974Y8541D01*
X88018Y8612D01*
X88050Y8677D01*
X88078Y8743D01*
X88105Y8798D01*
X88121Y8841D01*
X88127Y8868D01*
X88132Y8879D01*
X88154Y8972D01*
X88176Y9065D01*
X88187Y9152D01*
X88192Y9240D01*
X88198Y9311D01*
X88203Y9371D01*
Y10152D01*
X88198Y10261D01*
X88192Y10364D01*
X88181Y10452D01*
X88170Y10534D01*
X88154Y10599D01*
X88143Y10643D01*
X88138Y10676D01*
X88132Y10687D01*
X88105Y10774D01*
X88072Y10850D01*
X88034Y10921D01*
X88001Y10982D01*
X87974Y11025D01*
X87947Y11063D01*
X87930Y11085D01*
X87925Y11091D01*
X87870Y11151D01*
X87815Y11200D01*
X87761Y11249D01*
X87706Y11282D01*
X87663Y11309D01*
X87625Y11331D01*
X87603Y11342D01*
X87592Y11347D01*
X87515Y11375D01*
X87439Y11396D01*
X87362Y11413D01*
X87297Y11424D01*
X87231Y11429D01*
X87188Y11435D01*
D02*
G37*
G36*
X82334Y11391D02*
X82252D01*
X82137Y11385D01*
X82033Y11380D01*
X81941Y11369D01*
X81859Y11353D01*
X81793Y11336D01*
X81744Y11326D01*
X81711Y11320D01*
X81706Y11315D01*
X81700D01*
X81613Y11282D01*
X81537Y11249D01*
X81466Y11216D01*
X81406Y11184D01*
X81356Y11151D01*
X81324Y11129D01*
X81296Y11112D01*
X81291Y11107D01*
X81231Y11058D01*
X81176Y11003D01*
X81127Y10954D01*
X81083Y10905D01*
X81051Y10861D01*
X81029Y10829D01*
X81012Y10807D01*
X81007Y10801D01*
X80936Y10670D01*
X80903Y10605D01*
X80881Y10545D01*
X80860Y10496D01*
X80843Y10452D01*
X80838Y10430D01*
X80832Y10419D01*
X80788Y10266D01*
X80772Y10195D01*
X80761Y10135D01*
X80750Y10081D01*
X80745Y10037D01*
X80739Y10010D01*
Y9999D01*
X80723Y9840D01*
X80718Y9769D01*
Y9704D01*
X80712Y9649D01*
Y9376D01*
X80718Y9267D01*
X80723Y9218D01*
X80729Y9174D01*
Y9136D01*
X80734Y9109D01*
X80739Y9087D01*
Y9081D01*
X80761Y8978D01*
X80778Y8929D01*
X80788Y8885D01*
X80805Y8847D01*
X80810Y8819D01*
X80821Y8803D01*
Y8798D01*
X80870Y8699D01*
X80892Y8655D01*
X80920Y8617D01*
X80936Y8585D01*
X80952Y8563D01*
X80963Y8546D01*
X80969Y8541D01*
X81040Y8459D01*
X81072Y8421D01*
X81105Y8388D01*
X81133Y8366D01*
X81154Y8344D01*
X81165Y8333D01*
X81171Y8328D01*
X81264Y8268D01*
X81307Y8246D01*
X81345Y8230D01*
X81384Y8213D01*
X81411Y8202D01*
X81427Y8191D01*
X81433D01*
X81547Y8164D01*
X81602Y8159D01*
X81651Y8153D01*
X81695Y8148D01*
X82776D01*
X81760D01*
X81853Y8153D01*
X81935Y8159D01*
X82012Y8175D01*
X82072Y8191D01*
X82126Y8202D01*
X82164Y8219D01*
X82186Y8224D01*
X82197Y8230D01*
X82268Y8268D01*
X82328Y8306D01*
X82383Y8344D01*
X82427Y8382D01*
X82465Y8415D01*
X82492Y8443D01*
X82508Y8464D01*
X82514Y8470D01*
X82558Y8530D01*
X82601Y8590D01*
X82634Y8650D01*
X82661Y8705D01*
X82683Y8748D01*
X82700Y8787D01*
X82705Y8808D01*
X82710Y8819D01*
X82732Y8896D01*
X82749Y8972D01*
X82760Y9043D01*
X82771Y9109D01*
Y9163D01*
X82776Y9207D01*
Y9245D01*
Y9245D01*
X82765Y9387D01*
X82760Y9453D01*
X82749Y9507D01*
X82738Y9556D01*
X82732Y9595D01*
X82721Y9617D01*
Y9627D01*
X82700Y9698D01*
X82672Y9764D01*
X82645Y9819D01*
X82618Y9873D01*
X82590Y9911D01*
X82569Y9944D01*
X82558Y9966D01*
X82552Y9971D01*
X82508Y10026D01*
X82459Y10075D01*
X82410Y10119D01*
X82361Y10152D01*
X82323Y10179D01*
X82290Y10201D01*
X82263Y10212D01*
X82257Y10217D01*
X82186Y10250D01*
X82115Y10272D01*
X82044Y10294D01*
X81979Y10304D01*
X81919Y10310D01*
X81875Y10315D01*
X81831D01*
X81749Y10310D01*
X81678Y10304D01*
X81651Y10299D01*
X81629Y10294D01*
X81618Y10288D01*
X81613D01*
X81542Y10266D01*
X81482Y10244D01*
X81455Y10233D01*
X81438Y10222D01*
X81427Y10217D01*
X81422D01*
X81362Y10184D01*
X81307Y10152D01*
X81285Y10135D01*
X81269Y10124D01*
X81264Y10119D01*
X81258Y10113D01*
X81236Y10091D01*
X81220Y10070D01*
X81214Y10060D01*
X81214Y10070D01*
X81225Y10135D01*
X81231Y10163D01*
X81236Y10184D01*
X81242Y10201D01*
Y10206D01*
X81269Y10294D01*
X81285Y10337D01*
X81296Y10370D01*
X81313Y10397D01*
X81318Y10425D01*
X81329Y10435D01*
Y10441D01*
X81373Y10517D01*
X81416Y10583D01*
X81433Y10610D01*
X81449Y10627D01*
X81455Y10638D01*
X81460Y10643D01*
X81526Y10708D01*
X81586Y10758D01*
X81613Y10774D01*
X81635Y10790D01*
X81646Y10796D01*
X81651Y10801D01*
X81739Y10845D01*
X81826Y10878D01*
X81859Y10889D01*
X81886Y10900D01*
X81908Y10905D01*
X81913D01*
X82028Y10932D01*
X82088Y10938D01*
X82137Y10943D01*
X82186Y10949D01*
X82334D01*
Y11391D01*
D02*
G37*
G36*
X93543Y8273D02*
X91485D01*
Y7864D01*
X93543D01*
Y8273D01*
D02*
G37*
G36*
X91373Y7219D02*
X91351D01*
X91302Y7213D01*
X91258Y7208D01*
X91220Y7191D01*
X91193Y7180D01*
X91171Y7164D01*
X91149Y7147D01*
X91143Y7142D01*
X91138Y7137D01*
X91116Y7104D01*
X91100Y7071D01*
X91078Y7006D01*
X91072Y6978D01*
X91067Y6962D01*
Y6945D01*
Y6940D01*
X91072Y6896D01*
X91078Y6864D01*
X91105Y6803D01*
X91116Y6782D01*
X91127Y6765D01*
X91132Y6754D01*
X91138Y6749D01*
X91165Y6722D01*
X91203Y6705D01*
X91269Y6683D01*
X91302Y6678D01*
X91329Y6673D01*
X91351D01*
X91400Y6678D01*
X91444Y6683D01*
X91477Y6694D01*
X91504Y6711D01*
X91531Y6727D01*
X91548Y6738D01*
X91553Y6743D01*
X91558Y6749D01*
X91586Y6782D01*
X91602Y6814D01*
X91624Y6875D01*
X91629Y6902D01*
X91635Y6924D01*
Y6934D01*
Y6940D01*
X91629Y6984D01*
X91624Y7022D01*
X91597Y7082D01*
X91580Y7104D01*
X91569Y7120D01*
X91564Y7131D01*
X91558Y7137D01*
X91531Y7164D01*
X91498Y7186D01*
X91460Y7197D01*
X91427Y7208D01*
X91400Y7213D01*
X91373Y7219D01*
D02*
G37*
G36*
X73655Y7175D02*
X73104D01*
X72164Y5963D01*
X71957Y5657D01*
Y7175D01*
X71460D01*
Y3975D01*
X72203D01*
X71957D01*
Y5056D01*
X72252Y5422D01*
X73175Y3975D01*
X73726D01*
X72563Y5766D01*
X73655Y7175D01*
D02*
G37*
G36*
X85962Y6421D02*
X84897D01*
D01*
X85847D01*
X85782Y6410D01*
X85716Y6405D01*
X85662Y6394D01*
X85612Y6383D01*
X85580Y6372D01*
X85552Y6367D01*
X85547Y6361D01*
X85481Y6339D01*
X85427Y6312D01*
X85378Y6290D01*
X85334Y6263D01*
X85296Y6241D01*
X85268Y6225D01*
X85252Y6214D01*
X85247Y6208D01*
X85203Y6170D01*
X85165Y6132D01*
X85132Y6094D01*
X85099Y6055D01*
X85077Y6028D01*
X85061Y6001D01*
X85056Y5985D01*
X85050Y5979D01*
X85028Y5930D01*
X85012Y5881D01*
X84996Y5832D01*
X84990Y5788D01*
X84984Y5750D01*
X84979Y5722D01*
Y5701D01*
Y5695D01*
X84984Y5641D01*
X84990Y5586D01*
X85001Y5542D01*
X85012Y5504D01*
X85023Y5466D01*
X85034Y5444D01*
X85045Y5428D01*
Y5422D01*
X85105Y5340D01*
X85165Y5280D01*
X85192Y5253D01*
X85214Y5237D01*
X85230Y5226D01*
X85236Y5220D01*
X85334Y5165D01*
X85383Y5138D01*
X85427Y5116D01*
X85465Y5100D01*
X85498Y5089D01*
X85520Y5084D01*
X85525Y5078D01*
X85656Y5040D01*
X85716Y5023D01*
X85776Y5007D01*
X85825Y4996D01*
X85869Y4985D01*
X85891Y4980D01*
X85902D01*
X85956Y4969D01*
X86011Y4953D01*
X86055Y4942D01*
X86093Y4931D01*
X86120Y4925D01*
X86147Y4914D01*
X86158Y4909D01*
X86164D01*
X86235Y4882D01*
X86284Y4854D01*
X86317Y4832D01*
X86328Y4827D01*
X86366Y4794D01*
X86393Y4767D01*
X86404Y4745D01*
X86410Y4734D01*
X86426Y4701D01*
X86431Y4669D01*
X86437Y4641D01*
Y4636D01*
Y4630D01*
X86431Y4587D01*
X86415Y4543D01*
X86393Y4510D01*
X86366Y4478D01*
X86344Y4450D01*
X86322Y4434D01*
X86306Y4423D01*
X86300Y4417D01*
X86251Y4390D01*
X86191Y4368D01*
X86131Y4357D01*
X86071Y4346D01*
X86016Y4341D01*
X85973Y4336D01*
X85935D01*
X85864Y4341D01*
X85804Y4346D01*
X85776Y4352D01*
X85760D01*
X85749Y4357D01*
X85743D01*
X85678Y4379D01*
X85623Y4401D01*
X85602Y4407D01*
X85585Y4417D01*
X85574Y4423D01*
X85569D01*
X85520Y4461D01*
X85476Y4499D01*
X85454Y4532D01*
X85443Y4538D01*
Y4543D01*
X85427Y4576D01*
X85416Y4614D01*
X85394Y4685D01*
X85389Y4718D01*
X85383Y4745D01*
Y4767D01*
Y4772D01*
X84897D01*
X84903Y4701D01*
X84908Y4630D01*
X84919Y4576D01*
X84935Y4521D01*
X84946Y4483D01*
X84957Y4450D01*
X84963Y4428D01*
X84968Y4423D01*
X84996Y4374D01*
X85028Y4325D01*
X85061Y4281D01*
X85094Y4243D01*
X85127Y4216D01*
X85148Y4194D01*
X85165Y4177D01*
X85170Y4172D01*
X85279Y4101D01*
X85334Y4068D01*
X85383Y4046D01*
X85432Y4024D01*
X85465Y4008D01*
X85487Y4002D01*
X85498Y3997D01*
X85574Y3975D01*
X85645Y3964D01*
X85722Y3953D01*
X85787Y3943D01*
X85847D01*
X85891Y3937D01*
X86923D01*
X86011D01*
X86088Y3943D01*
X86153Y3953D01*
X86213Y3959D01*
X86262Y3970D01*
X86295Y3975D01*
X86322Y3981D01*
X86328D01*
X86393Y4002D01*
X86453Y4024D01*
X86508Y4052D01*
X86552Y4073D01*
X86590Y4095D01*
X86617Y4112D01*
X86633Y4123D01*
X86639Y4128D01*
X86688Y4166D01*
X86732Y4205D01*
X86765Y4243D01*
X86792Y4281D01*
X86819Y4308D01*
X86835Y4336D01*
X86841Y4352D01*
X86846Y4357D01*
X86874Y4412D01*
X86890Y4461D01*
X86906Y4510D01*
X86912Y4559D01*
X86917Y4598D01*
X86923Y4630D01*
Y4718D01*
Y4712D01*
X86912Y4767D01*
X86901Y4811D01*
X86890Y4854D01*
X86879Y4887D01*
X86868Y4909D01*
X86863Y4925D01*
X86857Y4931D01*
X86830Y4974D01*
X86803Y5013D01*
X86770Y5051D01*
X86737Y5078D01*
X86710Y5105D01*
X86688Y5122D01*
X86672Y5133D01*
X86666Y5138D01*
X86568Y5198D01*
X86519Y5226D01*
X86475Y5247D01*
X86431Y5264D01*
X86399Y5275D01*
X86377Y5286D01*
X86371D01*
X86240Y5329D01*
X86175Y5346D01*
X86120Y5362D01*
X86066Y5373D01*
X86027Y5384D01*
X86006Y5389D01*
X85995D01*
X85935Y5400D01*
X85880Y5411D01*
X85831Y5422D01*
X85793Y5433D01*
X85760Y5444D01*
X85738Y5449D01*
X85722Y5455D01*
X85716D01*
X85651Y5477D01*
X85602Y5499D01*
X85574Y5515D01*
X85563Y5520D01*
X85531Y5548D01*
X85503Y5575D01*
X85492Y5597D01*
X85487Y5602D01*
X85476Y5641D01*
X85470Y5673D01*
X85465Y5701D01*
Y5711D01*
X85470Y5750D01*
X85481Y5782D01*
X85487Y5804D01*
X85492Y5815D01*
X85514Y5853D01*
X85541Y5886D01*
X85563Y5908D01*
X85574Y5914D01*
X85623Y5941D01*
X85667Y5963D01*
X85705Y5974D01*
X85711Y5979D01*
X85716D01*
X85787Y5995D01*
X85853Y6001D01*
X85880Y6006D01*
X85924D01*
X86006Y6001D01*
X86066Y5990D01*
X86093Y5985D01*
X86109Y5979D01*
X86120Y5974D01*
X86126D01*
X86191Y5946D01*
X86235Y5919D01*
X86268Y5903D01*
X86279Y5892D01*
X86322Y5853D01*
X86355Y5815D01*
X86371Y5788D01*
X86377Y5782D01*
Y5777D01*
X86399Y5728D01*
X86404Y5668D01*
X86410Y5646D01*
Y5624D01*
Y5613D01*
Y5608D01*
X86901D01*
X86896Y5679D01*
X86890Y5744D01*
X86879Y5804D01*
X86868Y5853D01*
X86852Y5897D01*
X86841Y5924D01*
X86835Y5946D01*
X86830Y5952D01*
X86770Y6050D01*
X86737Y6094D01*
X86704Y6126D01*
X86677Y6159D01*
X86655Y6181D01*
X86639Y6192D01*
X86633Y6197D01*
X86584Y6236D01*
X86530Y6268D01*
X86481Y6296D01*
X86431Y6318D01*
X86388Y6339D01*
X86355Y6350D01*
X86333Y6361D01*
X86322D01*
X86251Y6383D01*
X86186Y6394D01*
X86115Y6405D01*
X86055Y6416D01*
X86000D01*
X85962Y6421D01*
D02*
G37*
G36*
X84269D02*
D01*
Y5329D01*
X84258Y5411D01*
X84247Y5488D01*
X84237Y5559D01*
X84226Y5613D01*
X84215Y5657D01*
X84209Y5684D01*
X84204Y5695D01*
X84176Y5772D01*
X84149Y5848D01*
X84116Y5908D01*
X84084Y5968D01*
X84056Y6012D01*
X84035Y6045D01*
X84018Y6066D01*
X84013Y6072D01*
X83964Y6132D01*
X83909Y6181D01*
X83854Y6225D01*
X83800Y6263D01*
X83756Y6290D01*
X83718Y6312D01*
X83696Y6323D01*
X83685Y6329D01*
X83609Y6361D01*
X83532Y6383D01*
X83456Y6400D01*
X83385Y6410D01*
X83319Y6416D01*
X83270Y6421D01*
X82124D01*
X83226D01*
X83150Y6416D01*
X83074Y6410D01*
X83008Y6394D01*
X82942Y6378D01*
X82893Y6361D01*
X82850Y6350D01*
X82828Y6339D01*
X82817Y6334D01*
X82746Y6301D01*
X82680Y6257D01*
X82620Y6219D01*
X82566Y6181D01*
X82522Y6143D01*
X82489Y6115D01*
X82468Y6094D01*
X82462Y6088D01*
X82407Y6028D01*
X82358Y5963D01*
X82315Y5897D01*
X82282Y5837D01*
X82254Y5782D01*
X82233Y5739D01*
X82222Y5711D01*
X82216Y5701D01*
X82184Y5613D01*
X82162Y5520D01*
X82145Y5438D01*
X82134Y5357D01*
X82129Y5286D01*
X82124Y5231D01*
Y5094D01*
X82129Y5002D01*
X82134Y4914D01*
X82151Y4838D01*
X82167Y4767D01*
X82178Y4712D01*
X82195Y4669D01*
X82200Y4641D01*
X82205Y4630D01*
X82244Y4554D01*
X82282Y4483D01*
X82320Y4417D01*
X82358Y4363D01*
X82391Y4319D01*
X82418Y4286D01*
X82440Y4265D01*
X82446Y4259D01*
X82506Y4205D01*
X82566Y4155D01*
X82631Y4112D01*
X82686Y4079D01*
X82735Y4052D01*
X82779Y4035D01*
X82801Y4024D01*
X82811Y4019D01*
X82893Y3992D01*
X82975Y3970D01*
X83052Y3959D01*
X83123Y3948D01*
X83183Y3943D01*
X83232Y3937D01*
X82124D01*
X84269D01*
Y6421D01*
D02*
G37*
G36*
X86923D02*
D01*
Y5078D01*
Y6421D01*
D02*
G37*
G36*
X89609D02*
D01*
Y4832D01*
Y6421D01*
D02*
G37*
G36*
X92361Y7219D02*
Y4401D01*
X91607D01*
Y6378D01*
X90330D01*
Y6383D01*
Y5946D01*
X91116D01*
Y4401D01*
X90330D01*
Y3975D01*
X92361D01*
Y7219D01*
D02*
G37*
G36*
X105705Y7219D02*
Y4385D01*
X104138D01*
X104963Y5215D01*
X105045Y5313D01*
X105083Y5357D01*
X105116Y5395D01*
X105148Y5428D01*
X105170Y5455D01*
X105181Y5471D01*
X105186Y5477D01*
X105263Y5575D01*
X105296Y5624D01*
X105323Y5662D01*
X105345Y5695D01*
X105361Y5722D01*
X105372Y5739D01*
X105378Y5744D01*
X105438Y5848D01*
X105459Y5892D01*
X105481Y5935D01*
X105492Y5968D01*
X105503Y6001D01*
X105514Y6017D01*
Y6023D01*
X105541Y6126D01*
X105552Y6176D01*
X105558Y6219D01*
X105563Y6257D01*
Y6285D01*
Y6307D01*
Y6312D01*
X105558Y6383D01*
X105552Y6449D01*
X105541Y6509D01*
X105531Y6563D01*
X105514Y6607D01*
X105503Y6640D01*
X105498Y6662D01*
X105492Y6667D01*
X105465Y6727D01*
X105432Y6782D01*
X105400Y6831D01*
X105367Y6875D01*
X105334Y6907D01*
X105312Y6935D01*
X105296Y6951D01*
X105290Y6956D01*
X105241Y7000D01*
X105186Y7038D01*
X105137Y7071D01*
X105088Y7098D01*
X105045Y7120D01*
X105012Y7137D01*
X104990Y7142D01*
X104979Y7147D01*
X104908Y7169D01*
X104837Y7191D01*
X104766Y7202D01*
X104701Y7208D01*
X104646Y7213D01*
X104602Y7219D01*
X105705D01*
X103510D01*
D01*
X104564D01*
X104471Y7213D01*
X104389Y7208D01*
X104313Y7191D01*
X104247Y7180D01*
X104193Y7164D01*
X104149Y7147D01*
X104127Y7142D01*
X104116Y7137D01*
X104045Y7104D01*
X103985Y7071D01*
X103931Y7038D01*
X103882Y7000D01*
X103843Y6973D01*
X103811Y6945D01*
X103794Y6929D01*
X103789Y6924D01*
X103740Y6869D01*
X103701Y6814D01*
X103663Y6760D01*
X103636Y6711D01*
X103609Y6667D01*
X103592Y6634D01*
X103587Y6612D01*
X103581Y6601D01*
X103560Y6531D01*
X103543Y6459D01*
X103527Y6389D01*
X103521Y6318D01*
X103516Y6257D01*
X103510Y6214D01*
Y3975D01*
Y6170D01*
X104002D01*
Y6236D01*
X104007Y6296D01*
X104013Y6345D01*
X104018Y6389D01*
X104024Y6421D01*
X104029Y6443D01*
X104034Y6459D01*
Y6465D01*
X104067Y6541D01*
X104100Y6601D01*
X104116Y6623D01*
X104127Y6640D01*
X104133Y6645D01*
X104138Y6651D01*
X104198Y6700D01*
X104253Y6738D01*
X104275Y6749D01*
X104297Y6760D01*
X104307Y6765D01*
X104313D01*
X104395Y6793D01*
X104477Y6803D01*
X104509Y6809D01*
X104564D01*
X104646Y6803D01*
X104684Y6798D01*
X104717Y6787D01*
X104739Y6782D01*
X104761Y6771D01*
X104772Y6765D01*
X104777D01*
X104843Y6733D01*
X104892Y6694D01*
X104924Y6667D01*
X104930Y6662D01*
X104935Y6656D01*
X104979Y6601D01*
X105012Y6552D01*
X105023Y6525D01*
X105028Y6509D01*
X105034Y6498D01*
Y6492D01*
X105055Y6421D01*
X105066Y6361D01*
X105072Y6334D01*
Y6312D01*
Y6301D01*
Y6296D01*
X105066Y6230D01*
X105061Y6176D01*
X105055Y6154D01*
Y6137D01*
X105050Y6126D01*
Y6121D01*
X105028Y6061D01*
X105006Y6001D01*
X104990Y5979D01*
X104984Y5957D01*
X104974Y5946D01*
Y5941D01*
X104930Y5870D01*
X104881Y5799D01*
X104859Y5772D01*
X104843Y5750D01*
X104832Y5733D01*
X104826Y5728D01*
X104750Y5641D01*
X104679Y5553D01*
X104651Y5520D01*
X104624Y5493D01*
X104608Y5471D01*
X104602Y5466D01*
X103570Y4319D01*
Y3975D01*
X105705D01*
Y7219D01*
D02*
G37*
G36*
X103019D02*
Y4385D01*
X101452D01*
X102276Y5215D01*
X102358Y5313D01*
X102397Y5357D01*
X102429Y5395D01*
X102462Y5428D01*
X102484Y5455D01*
X102495Y5471D01*
X102500Y5477D01*
X102577Y5575D01*
X102609Y5624D01*
X102637Y5662D01*
X102659Y5695D01*
X102675Y5722D01*
X102686Y5739D01*
X102691Y5744D01*
X102751Y5848D01*
X102773Y5892D01*
X102795Y5935D01*
X102806Y5968D01*
X102817Y6001D01*
X102828Y6017D01*
Y6023D01*
X102855Y6126D01*
X102866Y6176D01*
X102872Y6219D01*
X102877Y6257D01*
Y6285D01*
Y6307D01*
Y6312D01*
X102872Y6383D01*
X102866Y6449D01*
X102855Y6509D01*
X102844Y6563D01*
X102828Y6607D01*
X102817Y6640D01*
X102811Y6662D01*
X102806Y6667D01*
X102779Y6727D01*
X102746Y6782D01*
X102713Y6831D01*
X102680Y6875D01*
X102648Y6907D01*
X102626Y6935D01*
X102609Y6951D01*
X102604Y6956D01*
X102555Y7000D01*
X102500Y7038D01*
X102451Y7071D01*
X102402Y7098D01*
X102358Y7120D01*
X102325Y7137D01*
X102304Y7142D01*
X102293Y7147D01*
X102222Y7169D01*
X102151Y7191D01*
X102080Y7202D01*
X102014Y7208D01*
X101960Y7213D01*
X101916Y7219D01*
X103019D01*
X101878D01*
X101785Y7213D01*
X101703Y7208D01*
X101627Y7191D01*
X101561Y7180D01*
X101506Y7164D01*
X101463Y7147D01*
X101441Y7142D01*
X101430Y7137D01*
X101359Y7104D01*
X101299Y7071D01*
X101244Y7038D01*
X101195Y7000D01*
X101157Y6973D01*
X101124Y6945D01*
X101108Y6929D01*
X101102Y6924D01*
X101053Y6869D01*
X101015Y6814D01*
X100977Y6760D01*
X100950Y6711D01*
X100922Y6667D01*
X100906Y6634D01*
X100900Y6612D01*
X100895Y6601D01*
X100873Y6531D01*
X100857Y6459D01*
X100840Y6389D01*
X100835Y6318D01*
X100830Y6257D01*
X100824Y6214D01*
Y3975D01*
Y6170D01*
X101315D01*
Y6236D01*
X101321Y6296D01*
X101326Y6345D01*
X101332Y6389D01*
X101337Y6421D01*
X101343Y6443D01*
X101348Y6459D01*
Y6465D01*
X101381Y6541D01*
X101414Y6601D01*
X101430Y6623D01*
X101441Y6640D01*
X101446Y6645D01*
X101452Y6651D01*
X101512Y6700D01*
X101567Y6738D01*
X101588Y6749D01*
X101610Y6760D01*
X101621Y6765D01*
X101627D01*
X101708Y6793D01*
X101790Y6803D01*
X101823Y6809D01*
X101878D01*
X101960Y6803D01*
X101998Y6798D01*
X102031Y6787D01*
X102052Y6782D01*
X102074Y6771D01*
X102085Y6765D01*
X102091D01*
X102156Y6733D01*
X102205Y6694D01*
X102238Y6667D01*
X102244Y6662D01*
X102249Y6656D01*
X102293Y6601D01*
X102325Y6552D01*
X102336Y6525D01*
X102342Y6509D01*
X102347Y6498D01*
Y6492D01*
X102369Y6421D01*
X102380Y6361D01*
X102386Y6334D01*
Y6312D01*
Y6301D01*
Y6296D01*
X102380Y6230D01*
X102375Y6176D01*
X102369Y6154D01*
Y6137D01*
X102364Y6126D01*
Y6121D01*
X102342Y6061D01*
X102320Y6001D01*
X102304Y5979D01*
X102298Y5957D01*
X102287Y5946D01*
Y5941D01*
X102244Y5870D01*
X102194Y5799D01*
X102173Y5772D01*
X102156Y5750D01*
X102145Y5733D01*
X102140Y5728D01*
X102063Y5641D01*
X101992Y5553D01*
X101965Y5520D01*
X101938Y5493D01*
X101921Y5471D01*
X101916Y5466D01*
X100884Y4319D01*
Y3975D01*
X103019D01*
Y7219D01*
D02*
G37*
G36*
X97646Y7219D02*
X95451D01*
X96505D01*
X96412Y7213D01*
X96330Y7208D01*
X96254Y7191D01*
X96188Y7180D01*
X96134Y7164D01*
X96090Y7147D01*
X96068Y7142D01*
X96057Y7137D01*
X95986Y7104D01*
X95926Y7071D01*
X95872Y7038D01*
X95823Y7000D01*
X95784Y6973D01*
X95752Y6945D01*
X95735Y6929D01*
X95730Y6924D01*
X95681Y6869D01*
X95643Y6814D01*
X95604Y6760D01*
X95577Y6711D01*
X95550Y6667D01*
X95533Y6634D01*
X95528Y6612D01*
X95522Y6601D01*
X95500Y6531D01*
X95484Y6459D01*
X95468Y6389D01*
X95462Y6318D01*
X95457Y6257D01*
X95451Y6214D01*
Y3975D01*
Y6170D01*
X95943D01*
Y6236D01*
X95948Y6296D01*
X95954Y6345D01*
X95959Y6389D01*
X95965Y6421D01*
X95970Y6443D01*
X95976Y6459D01*
Y6465D01*
X96008Y6541D01*
X96041Y6601D01*
X96057Y6623D01*
X96068Y6640D01*
X96074Y6645D01*
X96079Y6651D01*
X96139Y6700D01*
X96194Y6738D01*
X96216Y6749D01*
X96238Y6760D01*
X96249Y6765D01*
X96254D01*
X96336Y6793D01*
X96418Y6803D01*
X96451Y6809D01*
X96505D01*
X96587Y6803D01*
X96625Y6798D01*
X96658Y6787D01*
X96680Y6782D01*
X96702Y6771D01*
X96713Y6765D01*
X96718D01*
X96784Y6733D01*
X96833Y6694D01*
X96865Y6667D01*
X96871Y6662D01*
X96876Y6656D01*
X96920Y6601D01*
X96953Y6552D01*
X96964Y6525D01*
X96969Y6509D01*
X96975Y6498D01*
Y6492D01*
X96996Y6421D01*
X97008Y6361D01*
X97013Y6334D01*
Y6312D01*
Y6301D01*
Y6296D01*
X97008Y6230D01*
X97002Y6176D01*
X96996Y6154D01*
Y6137D01*
X96991Y6126D01*
Y6121D01*
X96969Y6061D01*
X96947Y6001D01*
X96931Y5979D01*
X96926Y5957D01*
X96915Y5946D01*
Y5941D01*
X96871Y5870D01*
X96822Y5799D01*
X96800Y5772D01*
X96784Y5750D01*
X96773Y5733D01*
X96767Y5728D01*
X96691Y5641D01*
X96620Y5553D01*
X96592Y5520D01*
X96565Y5493D01*
X96549Y5471D01*
X96543Y5466D01*
X95511Y4319D01*
Y3975D01*
X97646D01*
Y7219D01*
D02*
G37*
G36*
X88626Y6421D02*
X88473D01*
X88397Y6410D01*
X88332Y6400D01*
X88271Y6389D01*
X88222Y6378D01*
X88184Y6367D01*
X88162Y6361D01*
X88151Y6356D01*
X88086Y6334D01*
X88031Y6307D01*
X87982Y6279D01*
X87938Y6252D01*
X87900Y6230D01*
X87873Y6208D01*
X87857Y6197D01*
X87851Y6192D01*
X87807Y6154D01*
X87769Y6110D01*
X87736Y6072D01*
X87709Y6034D01*
X87687Y6006D01*
X87671Y5979D01*
X87665Y5963D01*
X87660Y5957D01*
X87638Y5908D01*
X87622Y5853D01*
X87611Y5799D01*
X87600Y5755D01*
X87594Y5711D01*
X87589Y5679D01*
Y5651D01*
Y5646D01*
X88080D01*
X88086Y5717D01*
X88097Y5772D01*
X88102Y5799D01*
X88108Y5810D01*
X88135Y5853D01*
X88162Y5886D01*
X88184Y5908D01*
X88195Y5914D01*
X88244Y5941D01*
X88288Y5968D01*
X88326Y5979D01*
X88332Y5985D01*
X88337D01*
X88402Y6001D01*
X88468Y6006D01*
X88495Y6012D01*
X88534D01*
X88615Y6006D01*
X88654Y6001D01*
X88686Y5995D01*
X88708Y5990D01*
X88730Y5985D01*
X88741Y5979D01*
X88747D01*
X88812Y5957D01*
X88861Y5930D01*
X88894Y5908D01*
X88905Y5897D01*
X88949Y5859D01*
X88981Y5815D01*
X88998Y5782D01*
X89003Y5777D01*
Y5772D01*
X89025Y5711D01*
X89036Y5657D01*
X89041Y5635D01*
Y5619D01*
Y5608D01*
Y5602D01*
Y5466D01*
X88561D01*
X88479Y5460D01*
X88402Y5449D01*
X88332Y5444D01*
X88277Y5433D01*
X88239Y5422D01*
X88211Y5417D01*
X88200D01*
X88130Y5395D01*
X88059Y5373D01*
X88004Y5346D01*
X87949Y5324D01*
X87911Y5302D01*
X87878Y5280D01*
X87857Y5269D01*
X87851Y5264D01*
X87796Y5226D01*
X87753Y5182D01*
X87714Y5144D01*
X87682Y5100D01*
X87655Y5067D01*
X87638Y5040D01*
X87627Y5018D01*
X87622Y5013D01*
X87594Y4953D01*
X87578Y4893D01*
X87562Y4832D01*
X87556Y4778D01*
X87551Y4729D01*
X87545Y4690D01*
Y4658D01*
X87551Y4598D01*
X87556Y4549D01*
X87567Y4499D01*
X87578Y4456D01*
X87589Y4417D01*
X87594Y4390D01*
X87605Y4374D01*
Y4368D01*
X87660Y4276D01*
X87687Y4237D01*
X87714Y4205D01*
X87736Y4177D01*
X87758Y4155D01*
X87769Y4144D01*
X87775Y4139D01*
X87862Y4073D01*
X87949Y4024D01*
X87982Y4008D01*
X88009Y3997D01*
X88031Y3986D01*
X88037D01*
X88157Y3959D01*
X88217Y3948D01*
X88271Y3943D01*
X88321D01*
X88359Y3937D01*
X88392D01*
X88479Y3943D01*
X88517D01*
X88550Y3948D01*
X88577Y3953D01*
X88599D01*
X88610Y3959D01*
X88615D01*
X88692Y3975D01*
X88757Y3997D01*
X88779Y4008D01*
X88796Y4013D01*
X88806Y4019D01*
X88812D01*
X88877Y4052D01*
X88932Y4084D01*
X88954Y4095D01*
X88970Y4106D01*
X88981Y4117D01*
X88987D01*
X89014Y4139D01*
X89030Y4161D01*
X89047Y4177D01*
X89052Y4194D01*
X89058Y4216D01*
Y4194D01*
X89063Y4155D01*
X89069Y4128D01*
Y4123D01*
Y4117D01*
X89085Y4063D01*
X89101Y4019D01*
X89118Y3986D01*
X89123Y3981D01*
Y3975D01*
X89609D01*
Y4063D01*
Y4057D01*
X89582Y4134D01*
X89565Y4205D01*
X89560Y4237D01*
X89555Y4259D01*
X89549Y4276D01*
Y4281D01*
X89538Y4374D01*
X89533Y4412D01*
Y4450D01*
X89527Y4478D01*
Y4499D01*
Y4516D01*
Y4521D01*
Y5597D01*
X89522Y5668D01*
X89516Y5739D01*
X89505Y5799D01*
X89489Y5848D01*
X89473Y5892D01*
X89462Y5924D01*
X89456Y5946D01*
X89451Y5952D01*
X89424Y6006D01*
X89391Y6061D01*
X89358Y6105D01*
X89325Y6143D01*
X89293Y6170D01*
X89271Y6197D01*
X89254Y6208D01*
X89249Y6214D01*
X89145Y6279D01*
X89091Y6307D01*
X89047Y6329D01*
X89003Y6345D01*
X88970Y6356D01*
X88943Y6367D01*
X88938D01*
X88801Y6400D01*
X88736Y6410D01*
X88681Y6416D01*
X88626Y6421D01*
D02*
G37*
G36*
X81676Y7175D02*
X79481D01*
Y3975D01*
X80245D01*
X80371Y3981D01*
X80480Y3992D01*
X80584Y4008D01*
X80671Y4030D01*
X80748Y4052D01*
X80802Y4068D01*
X80819Y4073D01*
X80835Y4079D01*
X80840Y4084D01*
X80846D01*
X80944Y4128D01*
X81032Y4177D01*
X81108Y4232D01*
X81168Y4281D01*
X81223Y4325D01*
X81261Y4357D01*
X81288Y4379D01*
X81294Y4390D01*
X81359Y4467D01*
X81419Y4549D01*
X81463Y4625D01*
X81507Y4701D01*
X81539Y4761D01*
X81561Y4816D01*
X81572Y4849D01*
X81577Y4854D01*
Y4860D01*
X81610Y4964D01*
X81632Y5067D01*
X81654Y5171D01*
X81665Y5264D01*
X81670Y5340D01*
X81676Y5406D01*
Y5695D01*
Y5690D01*
X81670Y5810D01*
X81659Y5919D01*
X81643Y6023D01*
X81627Y6110D01*
X81610Y6181D01*
X81594Y6236D01*
X81588Y6257D01*
X81583Y6274D01*
X81577Y6279D01*
Y6285D01*
X81539Y6383D01*
X81490Y6476D01*
X81446Y6552D01*
X81397Y6623D01*
X81359Y6678D01*
X81326Y6722D01*
X81305Y6743D01*
X81294Y6754D01*
X81223Y6825D01*
X81146Y6885D01*
X81075Y6940D01*
X81004Y6984D01*
X80939Y7016D01*
X80889Y7038D01*
X80857Y7055D01*
X80851Y7060D01*
X80846D01*
X80742Y7098D01*
X80633Y7126D01*
X80529Y7142D01*
X80425Y7158D01*
X80338Y7169D01*
X80300D01*
X80267Y7175D01*
X81676D01*
D02*
G37*
G36*
X99361Y7224D02*
X99317D01*
X99230Y7219D01*
X99142Y7213D01*
X99071Y7197D01*
X99006Y7180D01*
X98951Y7164D01*
X98908Y7153D01*
X98886Y7142D01*
X98875Y7137D01*
X98804Y7098D01*
X98738Y7060D01*
X98684Y7017D01*
X98634Y6978D01*
X98596Y6940D01*
X98569Y6907D01*
X98547Y6885D01*
X98542Y6880D01*
X98493Y6814D01*
X98454Y6749D01*
X98416Y6683D01*
X98389Y6618D01*
X98361Y6563D01*
X98345Y6520D01*
X98340Y6492D01*
X98334Y6487D01*
Y6481D01*
X98312Y6389D01*
X98296Y6296D01*
X98280Y6208D01*
X98274Y6121D01*
X98269Y6050D01*
X98263Y5990D01*
Y5209D01*
X98269Y5100D01*
X98274Y4996D01*
X98285Y4903D01*
X98302Y4822D01*
X98312Y4756D01*
X98323Y4707D01*
X98329Y4674D01*
X98334Y4669D01*
Y4663D01*
X98367Y4581D01*
X98400Y4499D01*
X98438Y4434D01*
X98471Y4374D01*
X98498Y4330D01*
X98525Y4292D01*
X98542Y4270D01*
X98547Y4265D01*
X98602Y4205D01*
X98656Y4155D01*
X98711Y4117D01*
X98760Y4079D01*
X98809Y4052D01*
X98842Y4035D01*
X98864Y4024D01*
X98875Y4019D01*
X98951Y3992D01*
X99028Y3970D01*
X99104Y3959D01*
X99175Y3948D01*
X99235Y3943D01*
X99279Y3937D01*
X98263Y3937D01*
X100376Y3937D01*
X99322D01*
X99415Y3943D01*
X99497Y3948D01*
X99574Y3964D01*
X99639Y3981D01*
X99694Y3992D01*
X99738Y4008D01*
X99759Y4013D01*
X99770Y4019D01*
X99841Y4052D01*
X99907Y4090D01*
X99961Y4134D01*
X100011Y4172D01*
X100049Y4210D01*
X100076Y4237D01*
X100092Y4259D01*
X100098Y4265D01*
X100147Y4330D01*
X100191Y4401D01*
X100223Y4467D01*
X100251Y4532D01*
X100278Y4587D01*
X100294Y4630D01*
X100300Y4658D01*
X100305Y4669D01*
X100327Y4761D01*
X100349Y4854D01*
X100360Y4942D01*
X100365Y5029D01*
X100371Y5100D01*
X100376Y5160D01*
Y5941D01*
X100371Y6050D01*
X100365Y6154D01*
X100354Y6241D01*
X100344Y6323D01*
X100327Y6389D01*
X100316Y6432D01*
X100311Y6465D01*
X100305Y6476D01*
X100278Y6563D01*
X100245Y6640D01*
X100207Y6711D01*
X100174Y6771D01*
X100147Y6814D01*
X100120Y6853D01*
X100103Y6875D01*
X100098Y6880D01*
X100043Y6940D01*
X99989Y6989D01*
X99934Y7038D01*
X99879Y7071D01*
X99836Y7098D01*
X99797Y7120D01*
X99776Y7131D01*
X99765Y7137D01*
X99688Y7164D01*
X99612Y7186D01*
X99535Y7202D01*
X99470Y7213D01*
X99404Y7219D01*
X99361Y7224D01*
D02*
G37*
G36*
X75555Y4625D02*
X74840D01*
X75195D01*
X75135Y4620D01*
X75086Y4614D01*
X75053Y4603D01*
X75047Y4598D01*
X75042D01*
X74998Y4576D01*
X74960Y4549D01*
X74938Y4532D01*
X74927Y4521D01*
X74900Y4483D01*
X74878Y4445D01*
X74867Y4417D01*
X74862Y4412D01*
Y4407D01*
X74851Y4363D01*
X74845Y4319D01*
X74840Y4286D01*
Y4276D01*
X74845Y4226D01*
X74851Y4183D01*
X74856Y4150D01*
X74862Y4144D01*
Y4139D01*
X74884Y4095D01*
X74905Y4063D01*
X74927Y4041D01*
X74933Y4030D01*
X74971Y3997D01*
X75004Y3975D01*
X75031Y3964D01*
X75042Y3959D01*
X75091Y3948D01*
X75146Y3943D01*
X75162Y3937D01*
X75195D01*
X75255Y3943D01*
X75304Y3953D01*
X75337Y3959D01*
X75342Y3964D01*
X75348D01*
X75397Y3986D01*
X75429Y4008D01*
X75457Y4024D01*
X75462Y4030D01*
X75495Y4068D01*
X75517Y4101D01*
X75528Y4128D01*
X75533Y4139D01*
X75544Y4188D01*
X75555Y4232D01*
Y3937D01*
D01*
Y4625D01*
D02*
G37*
%LPD*%
G36*
X84550Y11014D02*
X84627Y10998D01*
X84692Y10971D01*
X84753Y10943D01*
X84796Y10916D01*
X84824Y10889D01*
X84845Y10872D01*
X84851Y10867D01*
X84900Y10807D01*
X84933Y10741D01*
X84965Y10670D01*
X84987Y10599D01*
X85004Y10539D01*
X85015Y10490D01*
X85020Y10457D01*
Y10452D01*
Y10446D01*
X83895Y9540D01*
Y10239D01*
X83901Y10375D01*
X83917Y10496D01*
X83939Y10599D01*
X83966Y10681D01*
X83988Y10741D01*
X84010Y10785D01*
X84026Y10812D01*
X84032Y10823D01*
X84092Y10889D01*
X84157Y10938D01*
X84228Y10971D01*
X84299Y10998D01*
X84359Y11009D01*
X84414Y11014D01*
X84447Y11020D01*
X84458D01*
X84550Y11014D01*
D02*
G37*
G36*
X85026Y9338D02*
X85020Y9201D01*
X85004Y9081D01*
X84982Y8978D01*
X84960Y8896D01*
X84933Y8830D01*
X84911Y8781D01*
X84894Y8754D01*
X84889Y8743D01*
X84834Y8677D01*
X84763Y8628D01*
X84692Y8596D01*
X84627Y8574D01*
X84561Y8557D01*
X84512Y8552D01*
X84490Y8546D01*
X84463D01*
X84376Y8552D01*
X84299Y8568D01*
X84234Y8596D01*
X84179Y8623D01*
X84136Y8645D01*
X84103Y8672D01*
X84081Y8688D01*
X84075Y8694D01*
X84032Y8754D01*
X83994Y8819D01*
X83961Y8890D01*
X83939Y8956D01*
X83923Y9010D01*
X83912Y9060D01*
X83906Y9092D01*
Y9098D01*
Y9103D01*
X85026Y10010D01*
Y9338D01*
D02*
G37*
G36*
X98080Y10965D02*
X98124Y10960D01*
X98157Y10954D01*
X98184Y10943D01*
X98211Y10938D01*
X98222Y10932D01*
X98228D01*
X98304Y10900D01*
X98364Y10861D01*
X98386Y10845D01*
X98403Y10829D01*
X98408Y10823D01*
X98413Y10818D01*
X98468Y10758D01*
X98506Y10703D01*
X98523Y10676D01*
X98533Y10654D01*
X98539Y10643D01*
Y10638D01*
X98566Y10556D01*
X98577Y10479D01*
X98583Y10452D01*
Y10425D01*
Y10408D01*
Y10403D01*
X98577Y10310D01*
X98572Y10272D01*
X98561Y10239D01*
X98555Y10206D01*
X98544Y10184D01*
X98539Y10173D01*
Y10168D01*
X98501Y10102D01*
X98462Y10048D01*
X98441Y10026D01*
X98430Y10010D01*
X98419Y10004D01*
X98413Y9999D01*
X98353Y9950D01*
X98293Y9917D01*
X98266Y9900D01*
X98244Y9889D01*
X98233Y9884D01*
X98228D01*
X98151Y9862D01*
X98091Y9851D01*
X98064Y9846D01*
X97425D01*
Y10976D01*
X97988D01*
X98080Y10965D01*
D02*
G37*
G36*
X87237Y11014D02*
X87313Y10998D01*
X87379Y10971D01*
X87439Y10943D01*
X87483Y10916D01*
X87510Y10889D01*
X87532Y10872D01*
X87537Y10867D01*
X87586Y10807D01*
X87619Y10741D01*
X87652Y10670D01*
X87674Y10599D01*
X87690Y10539D01*
X87701Y10490D01*
X87706Y10457D01*
Y10452D01*
Y10446D01*
X86582Y9540D01*
Y10239D01*
X86587Y10375D01*
X86603Y10496D01*
X86625Y10599D01*
X86653Y10681D01*
X86674Y10741D01*
X86696Y10785D01*
X86713Y10812D01*
X86718Y10823D01*
X86778Y10889D01*
X86844Y10938D01*
X86915Y10971D01*
X86986Y10998D01*
X87046Y11009D01*
X87100Y11014D01*
X87133Y11020D01*
X87144D01*
X87237Y11014D01*
D02*
G37*
G36*
X87712Y9338D02*
X87706Y9201D01*
X87690Y9081D01*
X87668Y8978D01*
X87646Y8896D01*
X87619Y8830D01*
X87597Y8781D01*
X87581Y8754D01*
X87575Y8743D01*
X87521Y8677D01*
X87450Y8628D01*
X87379Y8596D01*
X87313Y8574D01*
X87248Y8557D01*
X87199Y8552D01*
X87177Y8546D01*
X87149D01*
X87062Y8552D01*
X86986Y8568D01*
X86920Y8596D01*
X86866Y8623D01*
X86822Y8645D01*
X86789Y8672D01*
X86767Y8688D01*
X86762Y8694D01*
X86718Y8754D01*
X86680Y8819D01*
X86647Y8890D01*
X86625Y8956D01*
X86609Y9010D01*
X86598Y9060D01*
X86593Y9092D01*
Y9098D01*
Y9103D01*
X87712Y10010D01*
Y9338D01*
D02*
G37*
G36*
X81859Y9889D02*
X81897Y9884D01*
X81930Y9873D01*
X81957Y9862D01*
X81979Y9851D01*
X81990Y9846D01*
X81995Y9840D01*
X82061Y9797D01*
X82115Y9747D01*
X82132Y9726D01*
X82148Y9709D01*
X82153Y9698D01*
X82159Y9693D01*
X82203Y9622D01*
X82235Y9551D01*
X82246Y9518D01*
X82252Y9496D01*
X82257Y9480D01*
Y9475D01*
X82279Y9387D01*
X82285Y9343D01*
Y9305D01*
X82290Y9273D01*
Y9245D01*
Y9229D01*
Y9223D01*
X82285Y9120D01*
X82279Y9070D01*
X82274Y9032D01*
X82263Y8999D01*
X82257Y8972D01*
X82252Y8956D01*
Y8950D01*
X82225Y8863D01*
X82203Y8830D01*
X82186Y8798D01*
X82170Y8770D01*
X82159Y8754D01*
X82153Y8743D01*
X82148Y8737D01*
X82094Y8683D01*
X82044Y8639D01*
X82017Y8628D01*
X82001Y8617D01*
X81990Y8606D01*
X81984D01*
X81908Y8579D01*
X81837Y8563D01*
X81804D01*
X81782Y8557D01*
X81760D01*
X81684Y8563D01*
X81618Y8585D01*
X81591Y8590D01*
X81569Y8601D01*
X81558Y8606D01*
X81553D01*
X81482Y8650D01*
X81427Y8699D01*
X81406Y8721D01*
X81389Y8737D01*
X81378Y8748D01*
X81373Y8754D01*
X81324Y8836D01*
X81280Y8923D01*
X81269Y8956D01*
X81258Y8983D01*
X81247Y9005D01*
Y9010D01*
X81220Y9131D01*
X81214Y9191D01*
X81209Y9245D01*
X81204Y9294D01*
Y9333D01*
Y9354D01*
Y9365D01*
Y9491D01*
X81231Y9556D01*
X81258Y9606D01*
X81274Y9627D01*
X81280Y9644D01*
X81291Y9649D01*
Y9655D01*
X81340Y9709D01*
X81384Y9747D01*
X81416Y9775D01*
X81422Y9786D01*
X81427D01*
X81487Y9824D01*
X81537Y9846D01*
X81558Y9857D01*
X81575Y9862D01*
X81586Y9868D01*
X81591D01*
X81657Y9889D01*
X81711Y9895D01*
X81733Y9900D01*
X81815D01*
X81859Y9889D01*
D02*
G37*
G36*
X83319Y5995D02*
X83363Y5990D01*
X83396Y5979D01*
X83428Y5968D01*
X83450Y5963D01*
X83461Y5952D01*
X83467D01*
X83538Y5908D01*
X83592Y5870D01*
X83609Y5848D01*
X83625Y5837D01*
X83631Y5826D01*
X83636Y5821D01*
X83680Y5755D01*
X83712Y5695D01*
X83723Y5668D01*
X83729Y5646D01*
X83734Y5635D01*
Y5630D01*
X83756Y5548D01*
X83772Y5482D01*
X83778Y5449D01*
X83783Y5428D01*
X82626D01*
X82648Y5509D01*
X82675Y5581D01*
X82686Y5608D01*
X82691Y5630D01*
X82702Y5646D01*
Y5651D01*
X82751Y5733D01*
X82773Y5766D01*
X82795Y5793D01*
X82811Y5815D01*
X82828Y5837D01*
X82833Y5843D01*
X82839Y5848D01*
X82904Y5897D01*
X82959Y5935D01*
X82986Y5946D01*
X83003Y5957D01*
X83013Y5963D01*
X83019D01*
X83095Y5990D01*
X83161Y6001D01*
X83188Y6006D01*
X83226D01*
X83319Y5995D01*
D02*
G37*
G36*
X84269Y3937D02*
X83276D01*
X83401Y3943D01*
X83456Y3948D01*
X83505Y3959D01*
X83543Y3964D01*
X83570Y3970D01*
X83592Y3975D01*
X83598D01*
X83707Y4002D01*
X83751Y4019D01*
X83794Y4035D01*
X83827Y4052D01*
X83849Y4063D01*
X83865Y4073D01*
X83871D01*
X83953Y4123D01*
X83991Y4150D01*
X84018Y4172D01*
X84045Y4194D01*
X84062Y4210D01*
X84073Y4216D01*
X84078Y4221D01*
X84144Y4292D01*
X84193Y4357D01*
X84215Y4385D01*
X84231Y4407D01*
X84237Y4423D01*
X84242Y4428D01*
X83942Y4652D01*
X83893Y4598D01*
X83843Y4554D01*
X83794Y4510D01*
X83751Y4478D01*
X83707Y4450D01*
X83680Y4434D01*
X83658Y4423D01*
X83652Y4417D01*
X83592Y4390D01*
X83532Y4374D01*
X83472Y4357D01*
X83417Y4352D01*
X83368Y4346D01*
X83330Y4341D01*
X83297D01*
X83194Y4352D01*
X83144Y4357D01*
X83106Y4368D01*
X83074Y4379D01*
X83046Y4385D01*
X83030Y4396D01*
X83024D01*
X82942Y4445D01*
X82904Y4467D01*
X82872Y4494D01*
X82850Y4516D01*
X82828Y4532D01*
X82817Y4543D01*
X82811Y4549D01*
X82751Y4625D01*
X82708Y4701D01*
X82691Y4729D01*
X82680Y4756D01*
X82670Y4772D01*
Y4778D01*
X82642Y4871D01*
X82631Y4914D01*
X82626Y4947D01*
X82620Y4974D01*
X82615Y5002D01*
Y5013D01*
Y5018D01*
X84269D01*
Y3937D01*
D02*
G37*
G36*
X97646Y4385D02*
X96079D01*
X96904Y5215D01*
X96986Y5313D01*
X97024Y5357D01*
X97057Y5395D01*
X97089Y5428D01*
X97111Y5455D01*
X97122Y5471D01*
X97128Y5477D01*
X97204Y5575D01*
X97237Y5624D01*
X97264Y5662D01*
X97286Y5695D01*
X97302Y5722D01*
X97313Y5739D01*
X97319Y5744D01*
X97379Y5848D01*
X97401Y5892D01*
X97422Y5935D01*
X97433Y5968D01*
X97444Y6001D01*
X97455Y6017D01*
Y6023D01*
X97483Y6126D01*
X97493Y6176D01*
X97499Y6219D01*
X97504Y6257D01*
Y6285D01*
Y6307D01*
Y6312D01*
X97499Y6383D01*
X97493Y6449D01*
X97483Y6509D01*
X97472Y6563D01*
X97455Y6607D01*
X97444Y6640D01*
X97439Y6662D01*
X97433Y6667D01*
X97406Y6727D01*
X97373Y6782D01*
X97341Y6831D01*
X97308Y6875D01*
X97275Y6907D01*
X97253Y6934D01*
X97237Y6951D01*
X97231Y6956D01*
X97182Y7000D01*
X97128Y7038D01*
X97078Y7071D01*
X97029Y7098D01*
X96986Y7120D01*
X96953Y7137D01*
X96931Y7142D01*
X96920Y7147D01*
X96849Y7169D01*
X96778Y7191D01*
X96707Y7202D01*
X96642Y7208D01*
X96587Y7213D01*
X96543Y7219D01*
X97646D01*
Y4385D01*
D02*
G37*
G36*
X89041Y4680D02*
X89014Y4641D01*
X88987Y4609D01*
X88965Y4581D01*
X88959Y4576D01*
X88954Y4570D01*
X88910Y4527D01*
X88867Y4494D01*
X88834Y4472D01*
X88828Y4461D01*
X88823D01*
X88763Y4434D01*
X88708Y4412D01*
X88681Y4401D01*
X88665Y4396D01*
X88654Y4390D01*
X88648D01*
X88577Y4374D01*
X88512Y4368D01*
X88484Y4363D01*
X88446D01*
X88370Y4368D01*
X88315Y4379D01*
X88293D01*
X88277Y4385D01*
X88266Y4390D01*
X88261D01*
X88211Y4412D01*
X88168Y4434D01*
X88146Y4456D01*
X88135Y4461D01*
X88102Y4499D01*
X88080Y4532D01*
X88064Y4559D01*
X88059Y4570D01*
X88042Y4620D01*
X88037Y4669D01*
X88031Y4701D01*
Y4707D01*
Y4712D01*
X88037Y4783D01*
X88059Y4843D01*
X88086Y4893D01*
X88119Y4931D01*
X88151Y4964D01*
X88179Y4985D01*
X88200Y4996D01*
X88206Y5002D01*
X88277Y5034D01*
X88359Y5056D01*
X88446Y5073D01*
X88528Y5084D01*
X88599Y5089D01*
X88659Y5094D01*
X89041D01*
Y4680D01*
D02*
G37*
G36*
X80333Y6760D02*
X80414Y6749D01*
X80485Y6738D01*
X80546Y6722D01*
X80600Y6705D01*
X80633Y6689D01*
X80660Y6683D01*
X80666Y6678D01*
X80726Y6645D01*
X80786Y6607D01*
X80835Y6569D01*
X80879Y6536D01*
X80911Y6503D01*
X80933Y6476D01*
X80950Y6459D01*
X80955Y6454D01*
X80993Y6400D01*
X81032Y6339D01*
X81059Y6285D01*
X81081Y6230D01*
X81103Y6186D01*
X81113Y6148D01*
X81124Y6126D01*
Y6115D01*
X81146Y6039D01*
X81157Y5968D01*
X81168Y5897D01*
X81179Y5832D01*
Y5772D01*
X81184Y5728D01*
Y5701D01*
Y5690D01*
Y5460D01*
Y5378D01*
X81173Y5297D01*
X81168Y5226D01*
X81157Y5160D01*
X81146Y5105D01*
X81135Y5062D01*
X81130Y5040D01*
X81124Y5029D01*
X81103Y4958D01*
X81075Y4893D01*
X81048Y4838D01*
X81021Y4789D01*
X80993Y4745D01*
X80971Y4718D01*
X80961Y4696D01*
X80955Y4690D01*
X80911Y4641D01*
X80862Y4598D01*
X80813Y4559D01*
X80769Y4527D01*
X80726Y4499D01*
X80693Y4483D01*
X80671Y4472D01*
X80666Y4467D01*
X80600Y4439D01*
X80535Y4417D01*
X80469Y4407D01*
X80414Y4396D01*
X80365Y4390D01*
X80327Y4385D01*
X79978D01*
Y6765D01*
X80245D01*
X80333Y6760D01*
D02*
G37*
G36*
X99410Y6803D02*
X99486Y6787D01*
X99552Y6760D01*
X99612Y6733D01*
X99656Y6705D01*
X99683Y6678D01*
X99705Y6662D01*
X99710Y6656D01*
X99759Y6596D01*
X99792Y6531D01*
X99825Y6459D01*
X99847Y6389D01*
X99863Y6329D01*
X99874Y6279D01*
X99879Y6247D01*
Y6241D01*
Y6236D01*
X98755Y5329D01*
Y6028D01*
X98760Y6165D01*
X98777Y6285D01*
X98798Y6389D01*
X98826Y6470D01*
X98848Y6531D01*
X98869Y6574D01*
X98886Y6601D01*
X98891Y6612D01*
X98951Y6678D01*
X99017Y6727D01*
X99088Y6760D01*
X99159Y6787D01*
X99219Y6798D01*
X99273Y6803D01*
X99306Y6809D01*
X99317D01*
X99410Y6803D01*
D02*
G37*
G36*
X99885Y5127D02*
X99879Y4991D01*
X99863Y4871D01*
X99841Y4767D01*
X99819Y4685D01*
X99792Y4620D01*
X99770Y4570D01*
X99754Y4543D01*
X99748Y4532D01*
X99694Y4467D01*
X99623Y4417D01*
X99552Y4385D01*
X99486Y4363D01*
X99421Y4346D01*
X99372Y4341D01*
X99350Y4336D01*
X99322D01*
X99235Y4341D01*
X99159Y4357D01*
X99093Y4385D01*
X99039Y4412D01*
X98995Y4434D01*
X98962Y4461D01*
X98940Y4478D01*
X98935Y4483D01*
X98891Y4543D01*
X98853Y4609D01*
X98820Y4680D01*
X98798Y4745D01*
X98782Y4800D01*
X98771Y4849D01*
X98766Y4882D01*
Y4887D01*
Y4893D01*
X99885Y5799D01*
Y5127D01*
D02*
G37*
G36*
X75555Y4276D02*
X75550Y4325D01*
X75544Y4368D01*
X75539Y4396D01*
X75533Y4401D01*
Y4407D01*
X75511Y4450D01*
X75490Y4488D01*
X75473Y4510D01*
X75462Y4516D01*
X75424Y4549D01*
X75391Y4570D01*
X75359Y4587D01*
X75353Y4592D01*
X75348D01*
X75299Y4614D01*
X75249Y4620D01*
X75227Y4625D01*
X75555D01*
Y4276D01*
D02*
G37*
M02*
